<svg width="64" height="64" viewBox="0 0 64 64" fill="none" xmlns="http://www.w3.org/2000/svg">
  <rect width="64" height="64" rx="16" fill="#F3E8FF"/>
  <circle cx="24" cy="22" r="6" fill="white" stroke="#9333EA" stroke-width="2"/>
  <circle cx="40" cy="22" r="6" fill="white" stroke="#9333EA" stroke-width="2"/>
  <path d="M16 48C16 42.4772 20.4772 38 26 38H22C17.5817 38 14 41.5817 14 46V48H16Z" fill="#9333EA"/>
  <path d="M48 48C48 42.4772 43.5228 38 38 38H42C46.4183 38 50 41.5817 50 46V48H48Z" fill="#9333EA"/>
  <circle cx="32" cy="26" r="7" fill="white" stroke="#9333EA" stroke-width="2"/>
  <path d="M20 48C20 42.4772 24.4772 38 30 38H34C39.5228 38 44 42.4772 44 48V50H20V48Z" fill="#9333EA"/>
  <circle cx="52" cy="12" r="8" fill="#10B981"/>
  <path d="M48 12L50.5 14.5L56 9" stroke="white" stroke-width="2" stroke-linecap="round" stroke-linejoin="round"/>
</svg> 