<svg width="64" height="64" viewBox="0 0 64 64" fill="none" xmlns="http://www.w3.org/2000/svg">
  <rect width="64" height="64" rx="16" fill="#F0FDFA"/>
  <path d="M16 16C16 13.7909 17.7909 12 20 12H36L48 24V52C48 54.2091 46.2091 56 44 56H20C17.7909 56 16 54.2091 16 52V16Z" fill="white" stroke="#14B8A6" stroke-width="2"/>
  <path d="M36 12V20C36 22.2091 37.7909 24 40 24H48" fill="#F0FDFA" stroke="#14B8A6" stroke-width="2"/>
  <rect x="22" y="28" width="14" height="2" rx="1" fill="#14B8A6"/>
  <rect x="22" y="32" width="20" height="2" rx="1" fill="#E5E7EB"/>
  <rect x="22" y="36" width="18" height="2" rx="1" fill="#E5E7EB"/>
  <rect x="22" y="40" width="16" height="2" rx="1" fill="#E5E7EB"/>
  <rect x="22" y="46" width="10" height="3" rx="1.5" fill="#14B8A6"/>
  <rect x="34" y="46" width="8" height="3" rx="1.5" fill="#F59E0B"/>
</svg> 