<svg xmlns="http://www.w3.org/2000/svg" xmlns:xlink="http://www.w3.org/1999/xlink" width="100" zoomAndPan="magnify" viewBox="0 0 75 74.999997" height="100" preserveAspectRatio="xMidYMid meet" version="1.0"><defs><clipPath id="df37e9b10e"><path d="M 4.949219 4.949219 L 70.199219 4.949219 L 70.199219 70.199219 L 4.949219 70.199219 Z M 4.949219 4.949219 " clip-rule="nonzero"/></clipPath></defs><g clip-path="url(#df37e9b10e)"><path fill="#000000" d="M 37.574219 70.199219 C 19.585938 70.199219 4.949219 55.5625 4.949219 37.574219 C 4.949219 19.585938 19.585938 4.949219 37.574219 4.949219 C 55.5625 4.949219 70.199219 19.585938 70.199219 37.574219 C 70.199219 55.5625 55.5625 70.199219 37.574219 70.199219 Z M 37.574219 9.679688 C 22.191406 9.679688 9.675781 22.191406 9.675781 37.574219 C 9.675781 52.957031 22.191406 65.46875 37.574219 65.46875 C 52.957031 65.46875 65.472656 52.957031 65.472656 37.574219 C 65.472656 22.191406 52.957031 9.679688 37.574219 9.679688 Z M 37.574219 9.679688 " fill-opacity="1" fill-rule="nonzero"/></g><path fill="#000000" d="M 38.246094 54.503906 C 37.996094 54.410156 37.726562 54.253906 37.726562 53.597656 C 37.726562 53.328125 37.769531 53.011719 37.863281 52.628906 L 41.984375 32.652344 C 42.078125 32.183594 42.125 31.691406 42.125 31.203125 C 42.125 29.914062 41.726562 28.929688 40.941406 28.277344 C 39.183594 26.832031 36.101562 27.117188 30.980469 28.847656 L 30.484375 29.015625 L 30.277344 31.59375 L 31.140625 31.59375 C 33.746094 31.59375 34.378906 31.796875 34.507812 31.859375 C 34.683594 31.941406 34.78125 32.042969 34.78125 32.335938 C 34.78125 32.5 34.757812 32.683594 34.714844 32.886719 C 34.664062 33.160156 34.605469 33.472656 34.546875 33.8125 L 30.769531 52.160156 C 30.59375 53.082031 30.5 53.875 30.5 54.507812 C 30.5 55.96875 30.921875 57.097656 31.746094 57.863281 C 32.554688 58.605469 33.660156 58.984375 35.035156 58.984375 C 36.644531 58.984375 38.804688 58.539062 41.636719 57.625 L 42.140625 57.460938 L 42.34375 54.847656 L 41.488281 54.847656 C 39.554688 54.847656 38.660156 54.660156 38.246094 54.503906 Z M 38.246094 54.503906 " fill-opacity="1" fill-rule="nonzero"/><path fill="#000000" d="M 43.671875 17.285156 C 42.894531 16.542969 41.894531 16.164062 40.703125 16.164062 C 39.472656 16.164062 38.425781 16.570312 37.605469 17.367188 C 36.777344 18.167969 36.355469 19.246094 36.355469 20.578125 C 36.355469 21.800781 36.757812 22.816406 37.546875 23.601562 C 38.335938 24.398438 39.347656 24.796875 40.546875 24.796875 C 41.769531 24.796875 42.804688 24.371094 43.628906 23.539062 C 44.449219 22.707031 44.863281 21.628906 44.863281 20.328125 C 44.863281 19.054688 44.464844 18.03125 43.671875 17.285156 Z M 43.671875 17.285156 " fill-opacity="1" fill-rule="nonzero"/></svg>