<svg xmlns="http://www.w3.org/2000/svg" xmlns:xlink="http://www.w3.org/1999/xlink" width="100" zoomAndPan="magnify" viewBox="0 0 75 74.999997" height="100" preserveAspectRatio="xMidYMid meet" version="1.0"><defs><clipPath id="06a8c1130d"><path d="M 4.234375 7.183594 L 70.984375 7.183594 L 70.984375 67.933594 L 4.234375 67.933594 Z M 4.234375 7.183594 " clip-rule="nonzero"/></clipPath></defs><g clip-path="url(#06a8c1130d)"><path fill="#000000" d="M 4.234375 61.648438 L 4.234375 17.8125 C 4.234375 14.355469 7.054688 11.535156 10.519531 11.535156 L 12.214844 11.535156 L 12.214844 9.574219 C 12.214844 8.265625 13.289062 7.195312 14.597656 7.195312 L 17.179688 7.195312 C 18.492188 7.195312 19.558594 8.265625 19.558594 9.574219 L 19.558594 11.535156 L 26.695312 11.535156 L 26.695312 9.574219 C 26.695312 8.265625 27.769531 7.195312 29.078125 7.195312 L 31.660156 7.195312 C 32.972656 7.195312 34.039062 8.265625 34.039062 9.574219 L 34.039062 11.535156 L 41.175781 11.535156 L 41.175781 9.574219 C 41.175781 8.265625 42.25 7.195312 43.558594 7.195312 L 46.140625 7.195312 C 47.453125 7.195312 48.519531 8.265625 48.519531 9.574219 L 48.519531 11.535156 L 55.65625 11.535156 L 55.65625 9.574219 C 55.65625 8.265625 56.730469 7.195312 58.039062 7.195312 L 60.621094 7.195312 C 61.933594 7.195312 63 8.265625 63 9.574219 L 63 11.535156 L 64.699219 11.535156 C 68.160156 11.535156 70.984375 14.355469 70.984375 17.8125 L 70.984375 53.769531 C 70.984375 54.769531 70.773438 55.6875 70.363281 56.523438 C 70.066406 57.132812 69.65625 57.695312 69.140625 58.210938 L 61.253906 66.089844 C 60.773438 66.570312 60.25 66.957031 59.6875 67.246094 C 59.597656 67.292969 59.507812 67.335938 59.417969 67.378906 C 59.402344 67.386719 59.386719 67.394531 59.367188 67.402344 C 58.585938 67.75 57.734375 67.925781 56.808594 67.925781 L 10.519531 67.925781 C 7.054688 67.925781 4.234375 65.105469 4.234375 61.648438 Z M 12.214844 13.6875 L 10.519531 13.6875 C 8.242188 13.6875 6.386719 15.539062 6.386719 17.8125 L 6.386719 22.890625 L 68.828125 22.890625 L 68.828125 17.8125 C 68.828125 15.542969 66.972656 13.6875 64.699219 13.6875 L 63 13.6875 L 63 17.460938 C 63 18.769531 61.933594 19.839844 60.621094 19.839844 L 58.039062 19.839844 C 56.730469 19.839844 55.65625 18.769531 55.65625 17.460938 L 55.65625 13.6875 L 48.519531 13.6875 L 48.519531 17.460938 C 48.519531 18.769531 47.453125 19.839844 46.140625 19.839844 L 43.558594 19.839844 C 42.25 19.839844 41.175781 18.769531 41.175781 17.460938 L 41.175781 13.6875 L 34.039062 13.6875 L 34.039062 17.460938 C 34.039062 18.769531 32.972656 19.839844 31.660156 19.839844 L 29.078125 19.839844 C 27.769531 19.839844 26.695312 18.769531 26.695312 17.460938 L 26.695312 13.6875 L 19.558594 13.6875 L 19.558594 17.460938 C 19.558594 18.769531 18.492188 19.839844 17.179688 19.839844 L 14.597656 19.839844 C 13.289062 19.839844 12.214844 18.769531 12.214844 17.460938 Z M 17.40625 17.460938 L 17.40625 9.574219 C 17.40625 9.449219 17.304688 9.34375 17.179688 9.34375 L 14.597656 9.34375 C 14.472656 9.34375 14.371094 9.449219 14.371094 9.574219 L 14.371094 17.460938 C 14.371094 17.585938 14.472656 17.6875 14.597656 17.6875 L 17.179688 17.6875 C 17.304688 17.6875 17.40625 17.585938 17.40625 17.460938 Z M 31.882812 17.460938 L 31.882812 9.574219 C 31.882812 9.449219 31.785156 9.34375 31.660156 9.34375 L 29.078125 9.34375 C 28.953125 9.34375 28.851562 9.449219 28.851562 9.574219 L 28.851562 17.460938 C 28.851562 17.585938 28.953125 17.6875 29.078125 17.6875 L 31.660156 17.6875 C 31.785156 17.6875 31.882812 17.585938 31.882812 17.460938 Z M 46.363281 17.460938 L 46.363281 9.574219 C 46.363281 9.449219 46.265625 9.34375 46.140625 9.34375 L 43.558594 9.34375 C 43.433594 9.34375 43.332031 9.449219 43.332031 9.574219 L 43.332031 17.460938 C 43.332031 17.585938 43.433594 17.6875 43.558594 17.6875 L 46.140625 17.6875 C 46.265625 17.6875 46.363281 17.585938 46.363281 17.460938 Z M 60.84375 17.460938 L 60.84375 9.574219 C 60.84375 9.449219 60.746094 9.34375 60.621094 9.34375 L 58.039062 9.34375 C 57.914062 9.34375 57.8125 9.449219 57.8125 9.574219 L 57.8125 17.460938 C 57.8125 17.585938 57.914062 17.6875 58.039062 17.6875 L 60.621094 17.6875 C 60.746094 17.6875 60.84375 17.585938 60.84375 17.460938 Z M 68.699219 54.847656 C 68.785156 54.507812 68.828125 54.148438 68.828125 53.769531 L 68.828125 25.039062 L 6.386719 25.039062 L 6.386719 61.648438 C 6.386719 63.921875 8.242188 65.773438 10.519531 65.773438 L 56.808594 65.773438 C 57.1875 65.773438 57.546875 65.730469 57.890625 65.644531 L 57.890625 57.226562 C 57.890625 55.917969 58.957031 54.847656 60.269531 54.847656 Z M 60.042969 64.257812 L 67.308594 57 L 60.269531 57 C 60.144531 57 60.042969 57.105469 60.042969 57.226562 Z M 11.613281 57.472656 C 11.019531 57.472656 10.539062 56.988281 10.539062 56.394531 C 10.539062 55.800781 11.019531 55.320312 11.613281 55.320312 L 28.117188 55.320312 C 28.710938 55.320312 29.191406 55.800781 29.191406 56.394531 C 29.191406 56.988281 28.710938 57.472656 28.117188 57.472656 Z M 11.613281 44.519531 C 11.019531 44.519531 10.539062 44.035156 10.539062 43.445312 C 10.539062 42.851562 11.019531 42.367188 11.613281 42.367188 L 28.117188 42.367188 C 28.710938 42.367188 29.191406 42.851562 29.191406 43.445312 C 29.191406 44.035156 28.710938 44.519531 28.117188 44.519531 Z M 32.582031 31.101562 C 31.988281 31.101562 31.503906 30.617188 31.503906 30.023438 C 31.503906 29.429688 31.988281 28.949219 32.582031 28.949219 L 64.101562 28.949219 C 64.695312 28.949219 65.175781 29.429688 65.175781 30.023438 C 65.175781 30.617188 64.695312 31.101562 64.101562 31.101562 Z M 32.582031 36.535156 C 31.988281 36.535156 31.503906 36.050781 31.503906 35.457031 C 31.503906 34.867188 31.988281 34.382812 32.582031 34.382812 L 64.101562 34.382812 C 64.695312 34.382812 65.175781 34.867188 65.175781 35.457031 C 65.175781 36.050781 64.695312 36.535156 64.101562 36.535156 Z M 11.613281 50.996094 C 11.019531 50.996094 10.539062 50.511719 10.539062 49.917969 C 10.539062 49.328125 11.019531 48.84375 11.613281 48.84375 L 28.117188 48.84375 C 28.710938 48.84375 29.191406 49.328125 29.191406 49.917969 C 29.191406 50.511719 28.710938 50.996094 28.117188 50.996094 Z M 28.070312 30.023438 L 28.070312 37.558594 C 28.070312 38.152344 27.589844 38.636719 26.996094 38.636719 L 11.613281 38.636719 C 11.019531 38.636719 10.539062 38.152344 10.539062 37.558594 L 10.539062 30.023438 C 10.539062 29.429688 11.019531 28.949219 11.613281 28.949219 L 26.996094 28.949219 C 27.589844 28.949219 28.070312 29.429688 28.070312 30.023438 Z M 25.917969 31.101562 L 12.691406 31.101562 L 12.691406 36.484375 L 25.917969 36.484375 Z M 43.105469 60.019531 C 43.714844 60.148438 44.351562 60.21875 45 60.21875 C 50.003906 60.21875 54.0625 56.164062 54.0625 51.167969 C 54.0625 49.8125 53.765625 48.53125 53.230469 47.375 C 52.980469 46.835938 53.214844 46.199219 53.753906 45.949219 C 54.296875 45.699219 54.933594 45.933594 55.183594 46.472656 C 55.847656 47.902344 56.214844 49.492188 56.214844 51.167969 C 56.214844 57.351562 51.191406 62.371094 45 62.371094 C 44.324219 62.371094 43.664062 62.308594 43.019531 62.195312 C 43.203125 62.679688 43.011719 63.238281 42.546875 63.503906 C 42.027344 63.796875 41.371094 63.617188 41.078125 63.101562 L 39.816406 60.894531 C 39.542969 60.414062 39.679688 59.804688 40.132812 59.484375 L 42.207031 58.019531 C 42.691406 57.675781 43.363281 57.792969 43.707031 58.277344 C 44.050781 58.761719 43.933594 59.433594 43.449219 59.773438 Z M 47.507812 40.246094 L 47.464844 40.152344 C 47.234375 39.605469 47.488281 38.972656 48.035156 38.742188 C 48.582031 38.507812 49.214844 38.765625 49.449219 39.308594 L 50.441406 41.648438 C 50.660156 42.15625 50.453125 42.746094 49.96875 43.011719 L 47.734375 44.226562 C 47.214844 44.511719 46.558594 44.320312 46.273438 43.800781 C 45.988281 43.277344 46.183594 42.625 46.703125 42.339844 L 46.789062 42.292969 C 46.210938 42.175781 45.613281 42.117188 45 42.117188 C 40 42.117188 35.9375 46.171875 35.9375 51.167969 C 35.9375 52.59375 36.269531 53.941406 36.855469 55.140625 C 37.117188 55.671875 36.898438 56.316406 36.363281 56.578125 C 35.832031 56.839844 35.183594 56.621094 34.921875 56.085938 C 34.195312 54.601562 33.785156 52.933594 33.785156 51.167969 C 33.785156 44.984375 38.8125 39.964844 45 39.964844 C 45.863281 39.964844 46.703125 40.0625 47.507812 40.246094 Z M 47.507812 40.246094 " fill-opacity="1" fill-rule="evenodd"/></g></svg>