<svg xmlns="http://www.w3.org/2000/svg" xmlns:xlink="http://www.w3.org/1999/xlink" width="100" zoomAndPan="magnify" viewBox="0 0 75 74.999997" height="100" preserveAspectRatio="xMidYMid meet" version="1.0"><defs><clipPath id="9137be40be"><path d="M 4.5 4.5 L 70.5 4.5 L 70.5 70.5 L 4.5 70.5 Z M 4.5 4.5 " clip-rule="nonzero"/></clipPath></defs><g clip-path="url(#9137be40be)"><path fill="#000000" d="M 60.84375 56.789062 C 62.75 55.542969 64.019531 53.390625 64.019531 50.945312 C 64.019531 47.101562 60.890625 43.976562 57.046875 43.976562 C 53.203125 43.976562 50.078125 47.101562 50.078125 50.945312 C 50.078125 53.390625 51.347656 55.546875 53.257812 56.789062 C 50.996094 57.457031 48.933594 58.71875 47.28125 60.476562 C 45.667969 58.761719 43.609375 57.472656 41.292969 56.789062 C 43.203125 55.542969 44.46875 53.390625 44.46875 50.945312 C 44.46875 47.101562 41.34375 43.976562 37.5 43.976562 C 33.65625 43.976562 30.53125 47.101562 30.53125 50.945312 C 30.53125 53.390625 31.796875 55.542969 33.707031 56.789062 C 31.390625 57.472656 29.332031 58.761719 27.71875 60.476562 C 26.066406 58.71875 24.003906 57.457031 21.742188 56.789062 C 23.652344 55.546875 24.921875 53.390625 24.921875 50.945312 C 24.921875 47.101562 21.796875 43.976562 17.953125 43.976562 C 14.109375 43.976562 10.980469 47.101562 10.980469 50.945312 C 10.980469 53.390625 12.25 55.542969 14.15625 56.789062 C 8.589844 58.429688 4.515625 63.585938 4.515625 69.679688 C 4.515625 70.132812 4.882812 70.5 5.335938 70.5 L 69.664062 70.5 C 70.117188 70.5 70.484375 70.132812 70.484375 69.679688 C 70.484375 63.585938 66.410156 58.429688 60.84375 56.789062 Z M 51.722656 50.945312 C 51.722656 48.007812 54.109375 45.617188 57.046875 45.617188 C 59.984375 45.617188 62.375 48.007812 62.375 50.945312 C 62.375 53.722656 60.238281 56.007812 57.523438 56.25 C 57.363281 56.246094 57.207031 56.242188 57.046875 56.242188 C 56.890625 56.242188 56.730469 56.246094 56.574219 56.25 C 53.859375 56.011719 51.722656 53.722656 51.722656 50.945312 Z M 32.171875 50.945312 C 32.171875 48.007812 34.5625 45.617188 37.5 45.617188 C 40.4375 45.617188 42.828125 48.007812 42.828125 50.945312 C 42.828125 53.722656 40.6875 56.007812 37.972656 56.25 C 37.816406 56.246094 37.660156 56.242188 37.5 56.242188 C 37.339844 56.242188 37.183594 56.246094 37.027344 56.25 C 34.3125 56.011719 32.171875 53.722656 32.171875 50.945312 Z M 12.625 50.945312 C 12.625 48.007812 15.011719 45.617188 17.949219 45.617188 C 20.886719 45.617188 23.277344 48.007812 23.277344 50.945312 C 23.277344 53.722656 21.140625 56.007812 18.421875 56.25 C 18.265625 56.246094 18.109375 56.242188 17.949219 56.242188 C 17.789062 56.242188 17.632812 56.246094 17.476562 56.25 C 14.761719 56.011719 12.625 53.722656 12.625 50.945312 Z M 17.457031 57.894531 C 17.621094 57.90625 17.785156 57.914062 17.953125 57.914062 C 18.121094 57.914062 18.285156 57.90625 18.449219 57.894531 C 21.589844 58.027344 24.53125 59.40625 26.660156 61.746094 C 25.179688 63.765625 24.25 66.210938 24.089844 68.859375 L 6.183594 68.859375 C 6.59375 62.898438 11.453125 58.144531 17.457031 57.894531 Z M 25.734375 68.859375 C 26.144531 62.898438 31.003906 58.144531 37.007812 57.894531 C 37.167969 57.90625 37.332031 57.914062 37.5 57.914062 C 37.664062 57.914062 37.828125 57.90625 37.992188 57.894531 C 43.996094 58.144531 48.855469 62.898438 49.265625 68.859375 Z M 50.914062 68.859375 C 50.753906 66.210938 49.820312 63.765625 48.339844 61.746094 C 50.472656 59.40625 53.410156 58.027344 56.550781 57.894531 C 56.714844 57.90625 56.882812 57.914062 57.050781 57.914062 C 57.214844 57.914062 57.378906 57.90625 57.542969 57.894531 C 63.546875 58.144531 68.40625 62.898438 68.816406 68.859375 Z M 14.4375 18.441406 L 19.015625 21.59375 C 19.152344 21.6875 19.316406 21.738281 19.480469 21.738281 C 19.53125 21.738281 19.582031 21.734375 19.628906 21.722656 C 19.84375 21.683594 20.035156 21.5625 20.15625 21.382812 L 20.414062 21.003906 C 20.929688 21.789062 21.582031 22.550781 22.382812 23.304688 L 22.175781 23.597656 C 21.785156 24.164062 21.636719 24.847656 21.757812 25.527344 C 21.878906 26.207031 22.257812 26.796875 22.820312 27.1875 C 23.09375 27.378906 23.398438 27.515625 23.714844 27.585938 C 23.125 28.71875 23.453125 30.144531 24.527344 30.890625 C 24.960938 31.195312 25.46875 31.351562 25.992188 31.351562 C 26.144531 31.351562 26.300781 31.339844 26.453125 31.3125 C 26.878906 31.238281 27.265625 31.058594 27.59375 30.804688 C 27.78125 31.109375 28.027344 31.378906 28.328125 31.585938 C 28.773438 31.898438 29.289062 32.046875 29.796875 32.046875 C 30.136719 32.046875 30.46875 31.980469 30.785156 31.851562 C 30.96875 32.277344 31.265625 32.65625 31.671875 32.9375 C 32.105469 33.242188 32.613281 33.398438 33.136719 33.398438 C 33.289062 33.398438 33.441406 33.386719 33.597656 33.359375 C 34.277344 33.238281 34.867188 32.859375 35.257812 32.292969 L 35.46875 31.996094 L 38.5 33.90625 C 38.957031 34.191406 39.46875 34.332031 39.976562 34.332031 C 40.898438 34.332031 41.804688 33.871094 42.332031 33.035156 C 42.566406 32.660156 42.699219 32.253906 42.742188 31.84375 C 43.011719 31.929688 43.289062 31.976562 43.574219 31.976562 C 43.777344 31.976562 43.984375 31.953125 44.1875 31.90625 C 44.917969 31.742188 45.539062 31.304688 45.9375 30.675781 C 46.199219 30.261719 46.335938 29.800781 46.359375 29.34375 C 46.507812 29.367188 46.65625 29.378906 46.808594 29.378906 C 47.019531 29.378906 47.226562 29.359375 47.433594 29.308594 C 48.160156 29.144531 48.777344 28.707031 49.171875 28.082031 C 49.5 27.5625 49.636719 26.964844 49.582031 26.359375 C 49.722656 26.347656 49.863281 26.328125 50 26.296875 C 50.726562 26.132812 51.34375 25.699219 51.738281 25.070312 C 52.132812 24.445312 52.261719 23.703125 52.09375 22.976562 C 52.050781 22.78125 51.984375 22.597656 51.902344 22.417969 C 52.8125 22.09375 53.671875 21.570312 54.40625 20.882812 L 54.839844 21.515625 C 54.964844 21.695312 55.152344 21.816406 55.367188 21.855469 C 55.417969 21.867188 55.46875 21.871094 55.515625 21.871094 C 55.683594 21.871094 55.84375 21.820312 55.980469 21.726562 L 60.558594 18.574219 C 60.933594 18.316406 61.027344 17.808594 60.769531 17.433594 L 52.226562 5.019531 C 52.105469 4.839844 51.914062 4.714844 51.699219 4.675781 C 51.484375 4.636719 51.265625 4.683594 51.085938 4.808594 L 46.507812 7.957031 C 46.132812 8.214844 46.039062 8.726562 46.296875 9.101562 L 46.851562 9.902344 C 45.308594 10.070312 43.9375 9.859375 42.761719 9.273438 C 41.785156 8.785156 40.757812 8.683594 39.519531 8.960938 C 37.296875 9.453125 35.433594 9.976562 33.59375 10.625 C 31.851562 10.714844 29.660156 10.496094 28.222656 9.664062 L 28.703125 8.964844 C 28.960938 8.589844 28.867188 8.082031 28.492188 7.824219 L 23.914062 4.671875 C 23.734375 4.550781 23.511719 4.5 23.300781 4.542969 C 23.085938 4.582031 22.894531 4.703125 22.773438 4.882812 L 14.226562 17.300781 C 13.96875 17.675781 14.0625 18.183594 14.4375 18.441406 Z M 23.375 25.238281 C 23.332031 24.992188 23.386719 24.742188 23.527344 24.539062 L 25.222656 22.101562 C 25.363281 21.898438 25.578125 21.761719 25.824219 21.71875 C 26.074219 21.675781 26.324219 21.726562 26.527344 21.867188 C 26.730469 22.011719 26.867188 22.226562 26.910156 22.472656 C 26.957031 22.71875 26.902344 22.96875 26.761719 23.171875 L 25.066406 25.609375 C 24.921875 25.8125 24.710938 25.949219 24.460938 25.992188 C 24.214844 26.035156 23.964844 25.984375 23.761719 25.84375 C 23.558594 25.703125 23.417969 25.488281 23.375 25.238281 Z M 25.46875 29.546875 C 25.042969 29.25 24.941406 28.664062 25.234375 28.242188 L 28.109375 24.109375 L 29.289062 22.417969 C 29.429688 22.210938 29.644531 22.074219 29.890625 22.03125 C 29.949219 22.023438 30.003906 22.015625 30.0625 22.015625 C 30.25 22.015625 30.433594 22.074219 30.589844 22.183594 C 31.015625 22.476562 31.117188 23.0625 30.824219 23.488281 L 29.910156 24.796875 C 29.910156 24.796875 29.910156 24.800781 29.910156 24.800781 L 27.6875 27.996094 C 27.6875 27.996094 27.6875 27.996094 27.6875 28 L 26.773438 29.3125 C 26.476562 29.734375 25.890625 29.839844 25.46875 29.546875 Z M 29.269531 30.238281 C 29.066406 30.097656 28.925781 29.882812 28.882812 29.636719 C 28.839844 29.386719 28.894531 29.140625 29.035156 28.9375 L 31.257812 25.738281 C 31.554688 25.3125 32.140625 25.210938 32.5625 25.503906 C 32.765625 25.648438 32.902344 25.859375 32.949219 26.109375 C 32.992188 26.355469 32.9375 26.605469 32.796875 26.808594 L 30.574219 30.003906 C 30.277344 30.429688 29.691406 30.535156 29.269531 30.238281 Z M 33.3125 31.742188 C 33.0625 31.785156 32.816406 31.730469 32.613281 31.589844 C 32.1875 31.296875 32.082031 30.710938 32.378906 30.289062 L 33.691406 28.402344 C 33.832031 28.199219 34.046875 28.0625 34.292969 28.019531 C 34.542969 27.976562 34.789062 28.027344 34.992188 28.167969 C 35.199219 28.3125 35.335938 28.523438 35.378906 28.773438 C 35.421875 29.019531 35.367188 29.269531 35.226562 29.472656 L 33.917969 31.355469 C 33.773438 31.5625 33.558594 31.699219 33.3125 31.742188 Z M 51.339844 6.625 L 58.957031 17.6875 L 55.730469 19.910156 L 48.113281 8.847656 Z M 39.878906 10.5625 C 40.734375 10.371094 41.398438 10.425781 42.027344 10.742188 C 43.710938 11.585938 45.683594 11.8125 47.886719 11.410156 L 53.464844 19.511719 C 52.664062 20.328125 51.65625 20.882812 50.609375 21.078125 L 39.773438 14.253906 C 39.65625 14.179688 39.527344 14.136719 39.390625 14.128906 L 36.597656 13.9375 C 36.136719 13.910156 35.710938 14.078125 35.398438 14.417969 C 32.992188 17.03125 31.144531 16.839844 29.859375 16.234375 L 31.585938 13.714844 C 31.972656 13.152344 32.503906 12.773438 33.355469 12.457031 C 35.390625 11.699219 37.402344 11.113281 39.878906 10.5625 Z M 30.765625 12.144531 C 30.570312 12.339844 30.390625 12.554688 30.230469 12.789062 L 28.148438 15.828125 C 27.980469 16.074219 27.921875 16.367188 27.984375 16.660156 C 28.046875 16.953125 28.222656 17.199219 28.476562 17.351562 C 30.355469 18.492188 33.277344 19.105469 36.554688 15.585938 L 39.070312 15.753906 L 49.992188 22.632812 C 50.25 22.792969 50.425781 23.046875 50.496094 23.34375 C 50.5625 23.640625 50.511719 23.945312 50.351562 24.199219 C 50.191406 24.453125 49.9375 24.632812 49.640625 24.699219 C 49.34375 24.769531 49.039062 24.71875 48.785156 24.558594 L 42.894531 20.851562 C 42.511719 20.609375 42.003906 20.726562 41.761719 21.109375 C 41.519531 21.492188 41.636719 22 42.019531 22.238281 L 47.425781 25.644531 C 47.683594 25.804688 47.859375 26.058594 47.929688 26.355469 C 47.996094 26.652344 47.945312 26.957031 47.785156 27.210938 C 47.625 27.464844 47.371094 27.644531 47.074219 27.710938 C 46.777344 27.78125 46.472656 27.730469 46.21875 27.570312 L 41.234375 24.429688 C 40.851562 24.191406 40.34375 24.304688 40.101562 24.6875 C 39.859375 25.070312 39.976562 25.578125 40.359375 25.820312 L 44.191406 28.234375 C 44.195312 28.234375 44.195312 28.238281 44.195312 28.238281 C 44.726562 28.570312 44.886719 29.273438 44.550781 29.804688 C 44.390625 30.0625 44.132812 30.242188 43.835938 30.308594 C 43.539062 30.371094 43.238281 30.324219 42.988281 30.164062 L 39.585938 27.992188 C 39.207031 27.746094 38.699219 27.859375 38.453125 28.242188 C 38.210938 28.625 38.320312 29.132812 38.703125 29.375 L 40.59375 30.585938 L 40.589844 30.59375 C 41.121094 30.929688 41.277344 31.632812 40.945312 32.160156 C 40.609375 32.691406 39.90625 32.851562 39.378906 32.519531 L 36.410156 30.648438 L 36.574219 30.414062 C 36.96875 29.851562 37.117188 29.164062 36.996094 28.484375 C 36.875 27.808594 36.496094 27.214844 35.929688 26.824219 C 35.535156 26.546875 35.078125 26.394531 34.605469 26.371094 C 34.609375 26.1875 34.597656 26.003906 34.566406 25.820312 C 34.445312 25.140625 34.066406 24.550781 33.503906 24.160156 C 33.199219 23.949219 32.863281 23.8125 32.511719 23.746094 C 32.847656 22.691406 32.480469 21.5 31.53125 20.835938 C 30.964844 20.445312 30.28125 20.296875 29.601562 20.417969 C 29.03125 20.519531 28.527344 20.804688 28.144531 21.222656 C 27.96875 20.949219 27.738281 20.710938 27.464844 20.519531 C 26.902344 20.128906 26.214844 19.980469 25.535156 20.101562 C 24.855469 20.222656 24.265625 20.601562 23.875 21.164062 L 23.332031 21.941406 C 22.507812 21.140625 21.882812 20.339844 21.4375 19.523438 L 27.289062 11.023438 C 28.34375 11.660156 29.609375 11.984375 30.765625 12.144531 Z M 23.660156 6.488281 L 26.882812 8.710938 L 19.269531 19.773438 L 16.042969 17.554688 Z M 23.660156 6.488281 " fill-opacity="1" fill-rule="nonzero"/></g></svg>