<svg xmlns="http://www.w3.org/2000/svg" xmlns:xlink="http://www.w3.org/1999/xlink" width="100" zoomAndPan="magnify" viewBox="0 0 75 74.999997" height="100" preserveAspectRatio="xMidYMid meet" version="1.0"><defs><clipPath id="40cbc067ed"><path d="M 2.214844 15.859375 L 72.714844 15.859375 L 72.714844 59.359375 L 2.214844 59.359375 Z M 2.214844 15.859375 " clip-rule="nonzero"/></clipPath></defs><g clip-path="url(#40cbc067ed)"><path fill="#231f20" d="M 71.730469 41.996094 C 71.105469 40.507812 70.210938 39.171875 69.070312 38.023438 C 67.929688 36.878906 66.601562 35.976562 65.121094 35.347656 C 63.984375 34.863281 62.789062 34.554688 61.566406 34.429688 C 61.445312 33.367188 61.175781 32.332031 60.757812 31.34375 C 60.195312 30.003906 59.390625 28.800781 58.363281 27.769531 C 57.335938 26.734375 56.140625 25.925781 54.808594 25.359375 C 53.429688 24.769531 51.964844 24.472656 50.457031 24.472656 C 49.269531 24.472656 48.113281 24.65625 47.003906 25.019531 C 45.488281 22.460938 43.382812 20.289062 40.859375 18.703125 C 37.90625 16.84375 34.492188 15.859375 30.996094 15.859375 C 28.480469 15.859375 26.042969 16.355469 23.746094 17.332031 C 21.527344 18.277344 19.535156 19.628906 17.824219 21.347656 C 16.117188 23.066406 14.773438 25.070312 13.835938 27.304688 C 12.867188 29.605469 12.375 32.054688 12.371094 34.574219 C 9.757812 35.058594 7.367188 36.375 5.535156 38.359375 C 3.398438 40.679688 2.21875 43.699219 2.21875 46.863281 C 2.21875 48.542969 2.546875 50.175781 3.191406 51.714844 C 3.8125 53.199219 4.703125 54.53125 5.835938 55.675781 C 6.96875 56.824219 8.289062 57.726562 9.761719 58.359375 C 11.269531 59.007812 12.875 59.34375 14.527344 59.359375 C 14.542969 59.359375 14.5625 59.359375 14.582031 59.359375 L 60.289062 59.359375 C 61.964844 59.359375 63.589844 59.03125 65.125 58.378906 C 66.601562 57.75 67.929688 56.847656 69.070312 55.699219 C 70.210938 54.550781 71.105469 53.214844 71.734375 51.726562 C 72.378906 50.1875 72.710938 48.550781 72.710938 46.863281 C 72.710938 45.175781 72.378906 43.539062 71.730469 41.996094 Z M 67.160156 53.777344 C 65.324219 55.625 62.882812 56.644531 60.289062 56.644531 L 14.625 56.644531 C 14.613281 56.644531 14.601562 56.644531 14.585938 56.644531 C 12.003906 56.628906 9.574219 55.605469 7.75 53.761719 C 5.925781 51.914062 4.917969 49.464844 4.917969 46.863281 C 4.917969 44.386719 5.839844 42.023438 7.515625 40.210938 C 9.179688 38.40625 11.4375 37.304688 13.867188 37.113281 C 14.601562 37.054688 15.15625 36.410156 15.105469 35.667969 C 15.082031 35.3125 15.070312 34.953125 15.070312 34.597656 C 15.070312 32.433594 15.492188 30.335938 16.320312 28.363281 C 17.125 26.453125 18.273438 24.742188 19.734375 23.269531 C 21.199219 21.796875 22.902344 20.640625 24.796875 19.835938 C 26.757812 19 28.84375 18.578125 30.996094 18.578125 C 33.988281 18.578125 36.902344 19.417969 39.425781 21.003906 C 41.882812 22.550781 43.875 24.738281 45.1875 27.332031 C 45.515625 27.980469 46.292969 28.253906 46.949219 27.953125 C 48.054688 27.445312 49.234375 27.191406 50.457031 27.191406 C 52.722656 27.191406 54.851562 28.078125 56.453125 29.691406 C 58.054688 31.300781 58.9375 33.445312 58.9375 35.722656 C 58.9375 36.472656 59.542969 37.082031 60.289062 37.082031 C 62.882812 37.082031 65.324219 38.097656 67.160156 39.945312 C 68.996094 41.792969 70.007812 44.25 70.007812 46.863281 C 70.007812 49.476562 68.996094 51.929688 67.160156 53.777344 Z M 67.160156 53.777344 " fill-opacity="1" fill-rule="nonzero"/></g></svg>