<svg xmlns="http://www.w3.org/2000/svg" xmlns:xlink="http://www.w3.org/1999/xlink" width="100" zoomAndPan="magnify" viewBox="0 0 75 74.999997" height="100" preserveAspectRatio="xMidYMid meet" version="1.0"><defs><clipPath id="c2757ce6d7"><path d="M 5.1875 3.53125 L 69.6875 3.53125 L 69.6875 71.78125 L 5.1875 71.78125 Z M 5.1875 3.53125 " clip-rule="nonzero"/></clipPath></defs><g clip-path="url(#c2757ce6d7)"><path fill="#000000" d="M 14.445312 13.90625 C 14.445312 13.316406 14.921875 12.835938 15.507812 12.835938 L 36.488281 12.835938 C 37.074219 12.835938 37.550781 13.316406 37.550781 13.90625 C 37.550781 14.5 37.074219 14.976562 36.488281 14.976562 L 15.507812 14.976562 C 14.921875 14.976562 14.445312 14.5 14.445312 13.90625 Z M 15.507812 29.796875 L 36.488281 29.796875 C 37.074219 29.796875 37.550781 29.316406 37.550781 28.726562 C 37.550781 28.136719 37.074219 27.65625 36.488281 27.65625 L 15.507812 27.65625 C 14.921875 27.65625 14.445312 28.136719 14.445312 28.726562 C 14.445312 29.316406 14.921875 29.796875 15.507812 29.796875 Z M 15.507812 22.386719 L 36.488281 22.386719 C 37.074219 22.386719 37.550781 21.910156 37.550781 21.316406 C 37.550781 20.726562 37.074219 20.246094 36.488281 20.246094 L 15.507812 20.246094 C 14.921875 20.246094 14.445312 20.726562 14.445312 21.316406 C 14.445312 21.910156 14.921875 22.386719 15.507812 22.386719 Z M 69.269531 54.640625 C 68.984375 55.070312 68.550781 55.363281 68.046875 55.464844 L 63.738281 56.328125 C 63.613281 56.351562 63.484375 56.363281 63.363281 56.363281 C 62.550781 56.363281 61.820312 55.847656 61.550781 55.070312 L 60.101562 56.527344 C 60.402344 57.722656 60.070312 59.03125 59.183594 59.921875 C 58.507812 60.605469 57.621094 60.949219 56.730469 60.960938 C 56.722656 61.894531 56.355469 62.769531 55.703125 63.429688 C 55.039062 64.097656 54.152344 64.464844 53.210938 64.464844 C 52.445312 64.464844 51.722656 64.222656 51.121094 63.777344 C 50.949219 64.230469 50.683594 64.65625 50.320312 65.019531 C 48.945312 66.40625 46.707031 66.40625 45.332031 65.019531 L 44.269531 63.953125 C 44.09375 64.398438 43.832031 64.804688 43.484375 65.152344 C 42.820312 65.820312 41.933594 66.1875 40.992188 66.1875 C 40.046875 66.1875 39.160156 65.820312 38.496094 65.152344 L 28.636719 55.226562 C 28.328125 55.914062 27.640625 56.363281 26.886719 56.363281 C 26.761719 56.363281 26.636719 56.351562 26.511719 56.328125 L 22.199219 55.464844 C 21.351562 55.292969 20.746094 54.582031 20.664062 53.757812 L 7.960938 53.757812 C 6.4375 53.757812 5.203125 52.511719 5.203125 50.984375 L 5.203125 6.304688 C 5.203125 4.777344 6.4375 3.53125 7.960938 3.53125 L 39.652344 3.53125 C 39.9375 3.53125 40.207031 3.644531 40.40625 3.84375 L 46.480469 9.960938 C 46.679688 10.160156 46.792969 10.433594 46.792969 10.71875 L 46.792969 28.933594 C 49.460938 29.140625 52.050781 29.847656 54.441406 31.019531 L 54.359375 30.71875 C 54.207031 30.148438 54.539062 29.558594 55.105469 29.402344 C 55.671875 29.246094 56.257812 29.582031 56.414062 30.152344 L 57.164062 32.925781 C 57.167969 32.9375 57.171875 32.949219 57.175781 32.957031 C 57.210938 33.101562 57.214844 33.242188 57.191406 33.378906 C 57.171875 33.515625 57.125 33.648438 57.046875 33.773438 C 57.027344 33.8125 57 33.847656 56.972656 33.878906 C 56.972656 33.882812 56.972656 33.882812 56.972656 33.882812 C 56.914062 33.953125 56.851562 34.019531 56.78125 34.070312 C 56.78125 34.070312 56.777344 34.070312 56.777344 34.070312 C 56.695312 34.132812 56.605469 34.183594 56.503906 34.222656 C 56.476562 34.230469 56.445312 34.238281 56.417969 34.246094 L 53.664062 35.007812 C 53.570312 35.03125 53.472656 35.046875 53.382812 35.046875 C 52.914062 35.046875 52.484375 34.734375 52.355469 34.257812 C 52.199219 33.6875 52.535156 33.097656 53.101562 32.941406 L 53.359375 32.871094 C 50.800781 31.648438 47.996094 31.007812 45.125 31.007812 C 41.074219 31.007812 37.207031 32.261719 33.929688 34.632812 C 33.453125 34.976562 32.789062 34.867188 32.445312 34.386719 C 32.105469 33.90625 32.210938 33.238281 32.6875 32.890625 C 36.203125 30.347656 40.335938 28.964844 44.667969 28.871094 L 44.667969 11.789062 L 41.347656 11.789062 C 39.828125 11.789062 38.589844 10.542969 38.589844 9.011719 L 38.589844 5.671875 L 7.960938 5.671875 C 7.613281 5.671875 7.328125 5.957031 7.328125 6.304688 L 7.328125 50.984375 C 7.328125 51.332031 7.613281 51.617188 7.960938 51.617188 L 21.003906 51.617188 L 22.386719 44.617188 L 15.507812 44.617188 C 14.921875 44.617188 14.445312 44.136719 14.445312 43.546875 C 14.445312 42.953125 14.921875 42.476562 15.507812 42.476562 L 22.8125 42.476562 L 23.855469 37.207031 L 15.507812 37.207031 C 14.921875 37.207031 14.445312 36.726562 14.445312 36.136719 C 14.445312 35.542969 14.921875 35.066406 15.507812 35.066406 L 24.820312 35.066406 C 24.832031 35.054688 24.84375 35.046875 24.859375 35.039062 C 25.285156 34.75 25.796875 34.648438 26.300781 34.75 L 30.609375 35.613281 C 31.113281 35.714844 31.546875 36.007812 31.832031 36.4375 C 31.9375 36.59375 32.015625 36.765625 32.070312 36.941406 L 41.214844 36.941406 L 42.875 35.546875 C 44.664062 34.042969 47.136719 34.089844 49.035156 35.664062 C 52.699219 38.707031 55.664062 38.589844 58.121094 37.824219 C 58.039062 37.339844 58.140625 36.847656 58.414062 36.4375 C 58.699219 36.003906 59.136719 35.714844 59.636719 35.613281 L 63.949219 34.75 C 64.449219 34.648438 64.960938 34.75 65.390625 35.039062 C 65.816406 35.324219 66.105469 35.761719 66.207031 36.265625 L 69.554688 53.1875 C 69.65625 53.695312 69.554688 54.210938 69.269531 54.640625 Z M 41.347656 9.648438 L 43.160156 9.648438 L 40.71875 7.1875 L 40.71875 9.011719 C 40.71875 9.363281 41 9.648438 41.347656 9.648438 Z M 38.457031 42.046875 C 38.15625 42.300781 37.820312 42.71875 37.9375 43.269531 L 39.441406 50.203125 C 41.875 49.1875 42.050781 47.164062 42.285156 44.480469 C 42.304688 44.261719 42.324219 44.046875 42.34375 43.828125 C 42.34375 43.820312 42.34375 43.8125 42.347656 43.800781 C 42.433594 43.070312 42.859375 42.503906 43.519531 42.257812 C 44.816406 41.769531 46.785156 42.617188 48.925781 44.578125 C 48.9375 44.589844 48.953125 44.605469 48.964844 44.617188 L 58.875 54.734375 L 61.035156 52.5625 L 58.535156 39.9375 C 55.679688 40.785156 52.019531 40.921875 47.679688 37.316406 C 46.582031 36.40625 45.230469 36.355469 44.238281 37.191406 Z M 29.992188 37.671875 L 26.085938 36.890625 L 24.738281 43.695312 C 24.734375 43.738281 24.726562 43.773438 24.714844 43.8125 L 22.816406 53.402344 L 26.722656 54.1875 Z M 57.984375 56.875 L 47.472656 46.140625 C 46.011719 44.808594 44.910156 44.335938 44.4375 44.269531 C 44.425781 44.402344 44.414062 44.535156 44.402344 44.667969 C 44.128906 47.824219 43.816406 51.402344 38.90625 52.621094 C 38.628906 52.691406 38.332031 52.644531 38.089844 52.492188 C 37.847656 52.335938 37.675781 52.09375 37.613281 51.808594 L 35.859375 43.726562 C 35.59375 42.496094 36.042969 41.285156 37.09375 40.402344 L 38.667969 39.082031 L 31.882812 39.082031 L 29.179688 52.746094 L 40 63.640625 C 40.265625 63.902344 40.617188 64.046875 40.992188 64.046875 C 41.367188 64.046875 41.71875 63.902344 41.980469 63.640625 C 42.242188 63.375 42.386719 63.019531 42.386719 62.644531 C 42.386719 62.265625 42.242188 61.914062 41.980469 61.648438 L 39.070312 58.71875 C 38.652344 58.300781 38.652344 57.621094 39.070312 57.203125 C 39.484375 56.785156 40.15625 56.785156 40.574219 57.203125 L 43.484375 60.132812 C 43.484375 60.132812 43.484375 60.132812 43.484375 60.136719 L 43.488281 60.136719 L 46.835938 63.507812 C 47.382812 64.058594 48.269531 64.058594 48.816406 63.507812 C 49.359375 62.957031 49.359375 62.066406 48.816406 61.515625 L 42.96875 55.628906 C 42.550781 55.210938 42.550781 54.535156 42.96875 54.117188 C 43.382812 53.699219 44.054688 53.699219 44.472656 54.117188 L 50.320312 60.003906 L 52.21875 61.914062 C 52.480469 62.179688 52.832031 62.324219 53.207031 62.324219 C 53.582031 62.324219 53.933594 62.179688 54.199219 61.914062 C 54.460938 61.648438 54.605469 61.296875 54.605469 60.917969 C 54.605469 60.539062 54.460938 60.1875 54.199219 59.921875 L 46.863281 52.542969 C 46.449219 52.125 46.449219 51.449219 46.863281 51.027344 C 47.28125 50.613281 47.953125 50.613281 48.371094 51.027344 L 55.703125 58.410156 C 56.246094 58.957031 57.132812 58.957031 57.679688 58.410156 C 58.078125 58.007812 58.191406 57.394531 57.980469 56.875 Z M 67.429688 53.402344 L 64.160156 36.890625 L 60.253906 37.671875 L 63.523438 54.1875 Z M 64.066406 57.640625 C 63.527344 57.402344 62.898438 57.644531 62.660156 58.183594 C 59.578125 65.144531 52.695312 69.640625 45.125 69.640625 C 38.71875 69.640625 32.867188 66.496094 29.3125 61.285156 L 29.488281 61.335938 C 30.050781 61.5 30.640625 61.171875 30.804688 60.605469 C 30.96875 60.039062 30.644531 59.445312 30.078125 59.277344 L 27.332031 58.480469 C 27.3125 58.472656 27.292969 58.464844 27.269531 58.460938 C 27.15625 58.4375 27.046875 58.429688 26.9375 58.4375 C 26.820312 58.449219 26.707031 58.480469 26.59375 58.53125 C 26.578125 58.539062 26.5625 58.546875 26.546875 58.554688 C 26.414062 58.625 26.304688 58.714844 26.214844 58.824219 C 26.125 58.929688 26.054688 59.058594 26.015625 59.203125 C 26.011719 59.203125 26.011719 59.207031 26.011719 59.210938 L 25.214844 61.972656 C 25.050781 62.542969 25.375 63.136719 25.941406 63.300781 C 26.503906 63.464844 27.09375 63.136719 27.257812 62.570312 L 27.363281 62.203125 C 29.035156 64.730469 31.226562 66.882812 33.800781 68.507812 C 37.1875 70.648438 41.105469 71.78125 45.125 71.78125 C 53.53125 71.78125 61.179688 66.785156 64.605469 59.054688 C 64.84375 58.515625 64.601562 57.882812 64.066406 57.640625 Z M 64.066406 57.640625 " fill-opacity="1" fill-rule="nonzero"/></g></svg>