<svg xmlns="http://www.w3.org/2000/svg" xmlns:xlink="http://www.w3.org/1999/xlink" width="100" zoomAndPan="magnify" viewBox="0 0 75 74.999997" height="100" preserveAspectRatio="xMidYMid meet" version="1.0"><defs><clipPath id="073a88d5ff"><path d="M 4.476562 12.566406 L 70.476562 12.566406 L 70.476562 62.066406 L 4.476562 62.066406 Z M 4.476562 12.566406 " clip-rule="nonzero"/></clipPath></defs><g clip-path="url(#073a88d5ff)"><path fill="#000000" d="M 65.433594 12.5625 L 9.523438 12.5625 C 6.765625 12.5625 4.527344 14.789062 4.527344 17.527344 L 4.527344 57.097656 C 4.527344 59.835938 6.765625 62.058594 9.523438 62.058594 L 65.429688 62.058594 C 68.1875 62.058594 70.425781 59.835938 70.425781 57.097656 L 70.425781 17.527344 C 70.429688 14.789062 68.1875 12.5625 65.433594 12.5625 Z M 68.789062 57.097656 C 68.789062 58.933594 67.28125 60.429688 65.433594 60.429688 L 9.523438 60.429688 C 7.671875 60.429688 6.167969 58.933594 6.167969 57.097656 L 6.167969 17.527344 C 6.167969 15.6875 7.671875 14.195312 9.523438 14.195312 L 65.429688 14.195312 C 67.28125 14.195312 68.785156 15.6875 68.785156 17.527344 L 68.785156 57.097656 Z M 16.167969 49.265625 L 11.65625 49.265625 C 11.203125 49.265625 10.835938 49.632812 10.835938 50.082031 L 10.835938 56.289062 C 10.835938 56.738281 11.203125 57.101562 11.65625 57.101562 L 16.167969 57.101562 C 16.621094 57.101562 16.988281 56.738281 16.988281 56.289062 L 16.988281 50.082031 C 16.988281 49.628906 16.621094 49.265625 16.167969 49.265625 Z M 15.347656 55.472656 L 12.476562 55.472656 L 12.476562 50.894531 L 15.347656 50.894531 Z M 24.324219 43.894531 L 19.8125 43.894531 C 19.359375 43.894531 18.992188 44.261719 18.992188 44.710938 L 18.992188 56.285156 C 18.992188 56.738281 19.359375 57.101562 19.8125 57.101562 L 24.324219 57.101562 C 24.777344 57.101562 25.144531 56.738281 25.144531 56.285156 L 25.144531 44.710938 C 25.144531 44.261719 24.78125 43.894531 24.324219 43.894531 Z M 23.503906 55.472656 L 20.632812 55.472656 L 20.632812 45.527344 L 23.503906 45.527344 Z M 32.484375 47.054688 L 27.972656 47.054688 C 27.519531 47.054688 27.152344 47.421875 27.152344 47.871094 L 27.152344 56.285156 C 27.152344 56.738281 27.519531 57.101562 27.972656 57.101562 L 32.484375 57.101562 C 32.9375 57.101562 33.304688 56.738281 33.304688 56.285156 L 33.304688 47.871094 C 33.304688 47.421875 32.9375 47.054688 32.484375 47.054688 Z M 31.664062 55.472656 L 28.792969 55.472656 L 28.792969 48.6875 L 31.664062 48.6875 Z M 40.644531 37.289062 L 36.128906 37.289062 C 35.679688 37.289062 35.308594 37.652344 35.308594 38.101562 L 35.308594 56.289062 C 35.308594 56.738281 35.679688 57.101562 36.128906 57.101562 L 40.644531 57.101562 C 41.09375 57.101562 41.464844 56.738281 41.464844 56.289062 L 41.464844 38.101562 C 41.464844 37.652344 41.09375 37.289062 40.644531 37.289062 Z M 39.824219 55.472656 L 36.949219 55.472656 L 36.949219 38.917969 L 39.824219 38.917969 Z M 18.941406 20.304688 C 18.941406 19.855469 19.308594 19.488281 19.761719 19.488281 L 36.476562 19.488281 C 36.929688 19.488281 37.296875 19.855469 37.296875 20.304688 C 37.296875 20.753906 36.929688 21.121094 36.476562 21.121094 L 19.761719 21.121094 C 19.308594 21.121094 18.941406 20.753906 18.941406 20.304688 Z M 18.941406 24.542969 C 18.941406 24.09375 19.308594 23.730469 19.761719 23.730469 L 31.773438 23.730469 C 32.222656 23.730469 32.59375 24.09375 32.59375 24.542969 C 32.59375 24.992188 32.222656 25.359375 31.773438 25.359375 L 19.761719 25.359375 C 19.308594 25.359375 18.941406 24.996094 18.941406 24.542969 Z M 13.613281 25.636719 C 15.398438 25.636719 16.847656 24.195312 16.847656 22.425781 C 16.847656 20.652344 15.398438 19.210938 13.613281 19.210938 C 11.828125 19.210938 10.378906 20.652344 10.378906 22.425781 C 10.378906 24.195312 11.828125 25.636719 13.613281 25.636719 Z M 13.613281 20.839844 C 14.492188 20.839844 15.207031 21.550781 15.207031 22.425781 C 15.207031 23.296875 14.492188 24.007812 13.613281 24.007812 C 12.734375 24.007812 12.019531 23.296875 12.019531 22.425781 C 12.019531 21.550781 12.734375 20.839844 13.613281 20.839844 Z M 18.941406 28.597656 C 18.941406 28.148438 19.308594 27.785156 19.761719 27.785156 L 36.476562 27.785156 C 36.929688 27.785156 37.296875 28.148438 37.296875 28.597656 C 37.296875 29.046875 36.929688 29.414062 36.476562 29.414062 L 19.761719 29.414062 C 19.308594 29.414062 18.941406 29.050781 18.941406 28.597656 Z M 18.941406 32.839844 C 18.941406 32.390625 19.308594 32.023438 19.761719 32.023438 L 31.773438 32.023438 C 32.222656 32.023438 32.59375 32.390625 32.59375 32.839844 C 32.59375 33.289062 32.222656 33.652344 31.773438 33.652344 L 19.761719 33.652344 C 19.308594 33.652344 18.941406 33.289062 18.941406 32.839844 Z M 13.613281 33.933594 C 15.398438 33.933594 16.847656 32.492188 16.847656 30.71875 C 16.847656 28.945312 15.398438 27.507812 13.613281 27.507812 C 11.828125 27.507812 10.378906 28.945312 10.378906 30.71875 C 10.378906 32.492188 11.828125 33.933594 13.613281 33.933594 Z M 13.613281 29.136719 C 14.492188 29.136719 15.207031 29.847656 15.207031 30.71875 C 15.207031 31.59375 14.492188 32.304688 13.613281 32.304688 C 12.734375 32.304688 12.019531 31.59375 12.019531 30.71875 C 12.019531 29.847656 12.734375 29.136719 13.613281 29.136719 Z M 52.800781 38.527344 C 57.992188 38.527344 62.210938 34.332031 62.210938 29.171875 C 62.210938 28.722656 61.84375 28.359375 61.390625 28.359375 C 61.375 28.359375 61.359375 28.359375 61.34375 28.359375 L 53.621094 28.359375 L 53.621094 20.710938 C 53.621094 20.6875 53.621094 20.664062 53.621094 20.640625 C 53.621094 20.1875 53.253906 19.824219 52.800781 19.824219 C 47.609375 19.824219 43.386719 24.019531 43.386719 29.175781 C 43.386719 34.332031 47.609375 38.527344 52.800781 38.527344 Z M 51.980469 21.5 L 51.980469 29.175781 C 51.980469 29.625 52.347656 29.992188 52.800781 29.992188 L 60.53125 29.992188 C 60.117188 33.867188 56.808594 36.898438 52.800781 36.898438 C 48.511719 36.898438 45.027344 33.433594 45.027344 29.175781 C 45.027344 25.195312 48.078125 21.90625 51.980469 21.5 Z M 55.949219 16.699219 C 55.949219 16.699219 55.945312 16.699219 55.945312 16.699219 C 55.492188 16.699219 55.125 17.0625 55.125 17.515625 L 55.125 26.050781 C 55.125 26.5 55.492188 26.863281 55.945312 26.863281 L 64.539062 26.863281 C 64.757812 26.863281 64.964844 26.777344 65.121094 26.625 C 65.273438 26.46875 65.359375 26.261719 65.359375 26.046875 C 65.359375 20.894531 61.136719 16.703125 55.949219 16.699219 Z M 56.765625 25.234375 L 56.765625 18.371094 C 60.398438 18.753906 63.292969 21.628906 63.675781 25.234375 Z M 64.5 41.21875 C 64.5 41.667969 64.132812 42.03125 63.679688 42.03125 L 46.722656 42.03125 C 46.269531 42.03125 45.902344 41.667969 45.902344 41.21875 C 45.902344 40.765625 46.269531 40.402344 46.722656 40.402344 L 63.679688 40.402344 C 64.132812 40.402344 64.5 40.765625 64.5 41.21875 Z M 64.5 45.769531 C 64.5 46.21875 64.132812 46.585938 63.679688 46.585938 L 46.722656 46.585938 C 46.269531 46.585938 45.902344 46.21875 45.902344 45.769531 C 45.902344 45.320312 46.269531 44.957031 46.722656 44.957031 L 63.679688 44.957031 C 64.132812 44.957031 64.5 45.320312 64.5 45.769531 Z M 64.5 50.324219 C 64.5 50.773438 64.132812 51.136719 63.679688 51.136719 L 46.722656 51.136719 C 46.269531 51.136719 45.902344 50.773438 45.902344 50.324219 C 45.902344 49.871094 46.269531 49.507812 46.722656 49.507812 L 63.679688 49.507812 C 64.132812 49.507812 64.5 49.871094 64.5 50.324219 Z M 64.5 54.875 C 64.5 55.324219 64.132812 55.691406 63.679688 55.691406 L 46.722656 55.691406 C 46.269531 55.691406 45.902344 55.324219 45.902344 54.875 C 45.902344 54.425781 46.269531 54.0625 46.722656 54.0625 L 63.679688 54.0625 C 64.132812 54.0625 64.5 54.425781 64.5 54.875 Z M 64.5 54.875 " fill-opacity="1" fill-rule="nonzero"/></g></svg>