<svg xmlns="http://www.w3.org/2000/svg" xmlns:xlink="http://www.w3.org/1999/xlink" width="100" zoomAndPan="magnify" viewBox="0 0 75 74.999997" height="100" preserveAspectRatio="xMidYMid meet" version="1.0"><defs><clipPath id="ce1b8dd490"><path d="M 3.679688 10.261719 L 26 10.261719 L 26 33 L 3.679688 33 Z M 3.679688 10.261719 " clip-rule="nonzero"/></clipPath><clipPath id="a57f8af275"><path d="M 48 30 L 71.179688 30 L 71.179688 51 L 48 51 Z M 48 30 " clip-rule="nonzero"/></clipPath></defs><path fill="#000000" d="M 46.742188 64.976562 L 13.453125 64.976562 C 11.507812 64.976562 9.925781 63.382812 9.925781 61.425781 L 9.925781 30.769531 C 9.925781 30.34375 10.269531 30 10.691406 30 C 11.109375 30 11.453125 30.34375 11.453125 30.769531 L 11.453125 61.425781 C 11.453125 62.535156 12.351562 63.4375 13.453125 63.4375 L 46.742188 63.4375 C 47.84375 63.4375 48.742188 62.535156 48.742188 61.425781 L 48.742188 19.40625 C 48.742188 18.296875 47.84375 17.394531 46.742188 17.394531 L 23.667969 17.394531 C 23.246094 17.394531 22.902344 17.050781 22.902344 16.625 C 22.902344 16.199219 23.246094 15.855469 23.667969 15.855469 L 46.742188 15.855469 C 48.6875 15.855469 50.269531 17.449219 50.269531 19.40625 L 50.269531 61.425781 C 50.269531 63.382812 48.6875 64.976562 46.742188 64.976562 Z M 46.742188 64.976562 " fill-opacity="1" fill-rule="nonzero"/><g clip-path="url(#ce1b8dd490)"><path fill="#000000" d="M 14.617188 32.328125 C 8.582031 32.328125 3.675781 27.386719 3.675781 21.3125 C 3.675781 15.238281 8.582031 10.296875 14.617188 10.296875 C 20.648438 10.296875 25.554688 15.238281 25.554688 21.3125 C 25.554688 27.386719 20.648438 32.328125 14.617188 32.328125 Z M 14.617188 11.832031 C 9.425781 11.832031 5.203125 16.085938 5.203125 21.3125 C 5.203125 26.539062 9.425781 30.789062 14.617188 30.789062 C 19.804688 30.789062 24.027344 26.539062 24.027344 21.3125 C 24.027344 16.085938 19.804688 11.832031 14.617188 11.832031 Z M 14.617188 11.832031 " fill-opacity="1" fill-rule="nonzero"/></g><path fill="#000000" d="M 43.980469 59.191406 L 16.214844 59.191406 C 15.792969 59.191406 15.453125 58.847656 15.453125 58.425781 C 15.453125 58 15.792969 57.65625 16.214844 57.65625 L 43.980469 57.65625 C 44.402344 57.65625 44.746094 58 44.746094 58.425781 C 44.746094 58.847656 44.402344 59.191406 43.980469 59.191406 Z M 43.980469 59.191406 " fill-opacity="1" fill-rule="nonzero"/><path fill="#000000" d="M 43.980469 53.191406 L 16.214844 53.191406 C 15.792969 53.191406 15.453125 52.847656 15.453125 52.421875 C 15.453125 51.996094 15.792969 51.652344 16.214844 51.652344 L 43.980469 51.652344 C 44.402344 51.652344 44.746094 51.996094 44.746094 52.421875 C 44.746094 52.847656 44.402344 53.191406 43.980469 53.191406 Z M 43.980469 53.191406 " fill-opacity="1" fill-rule="nonzero"/><path fill="#000000" d="M 43.980469 47.1875 L 16.214844 47.1875 C 15.792969 47.1875 15.453125 46.84375 15.453125 46.421875 C 15.453125 45.996094 15.792969 45.652344 16.214844 45.652344 L 43.980469 45.652344 C 44.402344 45.652344 44.746094 45.996094 44.746094 46.421875 C 44.746094 46.84375 44.402344 47.1875 43.980469 47.1875 Z M 43.980469 47.1875 " fill-opacity="1" fill-rule="nonzero"/><path fill="#000000" d="M 43.980469 41.1875 L 16.214844 41.1875 C 15.792969 41.1875 15.453125 40.84375 15.453125 40.417969 C 15.453125 39.992188 15.792969 39.648438 16.214844 39.648438 L 43.980469 39.648438 C 44.402344 39.648438 44.746094 39.992188 44.746094 40.417969 C 44.746094 40.84375 44.402344 41.1875 43.980469 41.1875 Z M 43.980469 41.1875 " fill-opacity="1" fill-rule="nonzero"/><path fill="#000000" d="M 43.980469 35.183594 L 19.996094 35.183594 C 19.574219 35.183594 19.230469 34.839844 19.230469 34.414062 C 19.230469 33.992188 19.574219 33.644531 19.996094 33.644531 L 43.980469 33.644531 C 44.402344 33.644531 44.746094 33.992188 44.746094 34.414062 C 44.746094 34.839844 44.402344 35.183594 43.980469 35.183594 Z M 43.980469 35.183594 " fill-opacity="1" fill-rule="nonzero"/><path fill="#000000" d="M 43.980469 29.179688 L 28.515625 29.179688 C 28.09375 29.179688 27.753906 28.835938 27.753906 28.414062 C 27.753906 27.988281 28.09375 27.644531 28.515625 27.644531 L 43.980469 27.644531 C 44.402344 27.644531 44.742188 27.988281 44.742188 28.414062 C 44.742188 28.835938 44.402344 29.179688 43.980469 29.179688 Z M 43.980469 29.179688 " fill-opacity="1" fill-rule="nonzero"/><path fill="#000000" d="M 43.980469 23.179688 L 28.515625 23.179688 C 28.09375 23.179688 27.753906 22.835938 27.753906 22.410156 C 27.753906 21.984375 28.09375 21.640625 28.515625 21.640625 L 43.980469 21.640625 C 44.402344 21.640625 44.742188 21.984375 44.742188 22.410156 C 44.742188 22.835938 44.402344 23.179688 43.980469 23.179688 Z M 43.980469 23.179688 " fill-opacity="1" fill-rule="nonzero"/><path fill="#000000" d="M 14.613281 27.449219 C 12.722656 27.449219 11.183594 25.902344 11.183594 23.996094 C 11.183594 23.570312 11.527344 23.226562 11.949219 23.226562 C 12.371094 23.226562 12.710938 23.570312 12.710938 23.996094 C 12.710938 25.050781 13.566406 25.910156 14.613281 25.910156 C 15.664062 25.910156 16.515625 25.050781 16.515625 23.996094 C 16.515625 22.9375 15.664062 22.078125 14.613281 22.078125 C 12.722656 22.078125 11.183594 20.53125 11.183594 18.625 C 11.183594 16.71875 12.722656 15.171875 14.613281 15.171875 C 16.507812 15.171875 18.042969 16.71875 18.042969 18.625 C 18.042969 19.050781 17.703125 19.394531 17.28125 19.394531 C 16.859375 19.394531 16.515625 19.050781 16.515625 18.625 C 16.515625 17.566406 15.664062 16.707031 14.613281 16.707031 C 13.566406 16.707031 12.710938 17.566406 12.710938 18.625 C 12.710938 19.679688 13.566406 20.539062 14.613281 20.539062 C 16.503906 20.539062 18.042969 22.089844 18.042969 23.996094 C 18.042969 25.902344 16.507812 27.449219 14.613281 27.449219 Z M 14.613281 27.449219 " fill-opacity="1" fill-rule="nonzero"/><path fill="#000000" d="M 14.613281 16.710938 C 14.191406 16.710938 13.851562 16.367188 13.851562 15.941406 L 13.851562 14.285156 C 13.851562 13.859375 14.191406 13.515625 14.613281 13.515625 C 15.035156 13.515625 15.378906 13.859375 15.378906 14.285156 L 15.378906 15.941406 C 15.378906 16.367188 15.039062 16.710938 14.613281 16.710938 Z M 14.613281 16.710938 " fill-opacity="1" fill-rule="nonzero"/><path fill="#000000" d="M 14.613281 29.109375 C 14.191406 29.109375 13.851562 28.761719 13.851562 28.339844 L 13.851562 26.679688 C 13.851562 26.257812 14.191406 25.910156 14.613281 25.910156 C 15.035156 25.910156 15.378906 26.257812 15.378906 26.679688 L 15.378906 28.339844 C 15.378906 28.761719 15.039062 29.109375 14.613281 29.109375 Z M 14.613281 29.109375 " fill-opacity="1" fill-rule="nonzero"/><g clip-path="url(#a57f8af275)"><path fill="#000000" d="M 61.113281 50.554688 C 60.804688 50.554688 60.496094 50.496094 60.199219 50.375 C 59.296875 50.003906 58.738281 49.148438 58.730469 48.152344 L 58.730469 43.785156 L 49.503906 43.785156 C 49.082031 43.785156 48.738281 43.441406 48.738281 43.015625 C 48.738281 42.59375 49.082031 42.246094 49.503906 42.246094 L 59.496094 42.246094 C 59.914062 42.246094 60.257812 42.59375 60.257812 43.015625 L 60.257812 48.144531 C 60.261719 48.679688 60.625 48.886719 60.78125 48.953125 C 61.035156 49.058594 61.414062 49.066406 61.707031 48.769531 L 69.402344 41.023438 C 69.558594 40.863281 69.648438 40.648438 69.648438 40.417969 C 69.648438 40.1875 69.558594 39.972656 69.402344 39.8125 L 61.707031 32.066406 C 61.414062 31.769531 61.035156 31.78125 60.777344 31.886719 C 60.65625 31.9375 60.257812 32.148438 60.257812 32.671875 L 60.257812 37.820312 C 60.257812 38.246094 59.914062 38.589844 59.496094 38.589844 L 49.503906 38.589844 C 49.082031 38.589844 48.738281 38.246094 48.738281 37.820312 C 48.738281 37.394531 49.082031 37.050781 49.503906 37.050781 L 58.730469 37.050781 L 58.730469 32.671875 C 58.730469 31.691406 59.292969 30.84375 60.195312 30.46875 C 61.089844 30.09375 62.109375 30.292969 62.789062 30.976562 L 70.480469 38.722656 C 70.929688 39.175781 71.175781 39.777344 71.175781 40.417969 C 71.175781 41.058594 70.929688 41.660156 70.480469 42.109375 L 62.789062 49.859375 C 62.335938 50.3125 61.730469 50.554688 61.113281 50.554688 Z M 61.113281 50.554688 " fill-opacity="1" fill-rule="nonzero"/></g></svg>