<svg xmlns="http://www.w3.org/2000/svg" xmlns:xlink="http://www.w3.org/1999/xlink" width="100" zoomAndPan="magnify" viewBox="0 0 75 74.999997" height="100" preserveAspectRatio="xMidYMid meet" version="1.0"><defs><clipPath id="deda2de479"><path d="M 7 5.054688 L 68.339844 5.054688 L 68.339844 70.304688 L 7 70.304688 Z M 7 5.054688 " clip-rule="nonzero"/></clipPath></defs><g clip-path="url(#deda2de479)"><path fill="#000000" d="M 40.519531 41.417969 L 41.042969 41.417969 C 41.429688 39.28125 42.476562 36.949219 42.476562 34.601562 C 42.476562 31.222656 39.128906 29.425781 37.203125 30.269531 C 36.417969 30.601562 35.867188 31.441406 35.867188 32.878906 C 35.867188 40.796875 32.371094 44.9375 26.273438 46.070312 L 26.273438 65.707031 C 28.257812 66.449219 32.796875 67.777344 34.671875 67.777344 L 37.191406 67.777344 C 36.28125 66.105469 36.488281 63.925781 37.769531 62.519531 C 35.757812 61.015625 35.511719 57.855469 37.175781 55.976562 C 34.820312 54.28125 34.847656 50.402344 37.246094 48.746094 C 35.042969 46.179688 36.335938 41.417969 40.519531 41.417969 Z M 43.203125 41.417969 L 50.265625 41.417969 C 54.1875 41.417969 55.605469 45.640625 53.84375 48.320312 C 56.789062 49.476562 57.3125 53.617188 55.070312 55.671875 C 57.382812 57.796875 56.75 62.132812 53.570312 63.125 C 55.222656 65.816406 53.789062 69.914062 49.921875 69.914062 L 34.65625 69.914062 C 32.660156 69.914062 28.492188 68.753906 26.234375 67.96875 C 26.082031 69.28125 24.953125 70.300781 23.617188 70.300781 L 16.734375 70.300781 C 15.289062 70.300781 14.105469 69.113281 14.105469 67.664062 L 14.105469 44.164062 C 14.105469 42.714844 15.289062 41.527344 16.734375 41.527344 L 23.617188 41.527344 C 24.964844 41.527344 26.09375 42.5625 26.234375 43.890625 C 27.652344 43.585938 29.273438 43.019531 30.609375 41.820312 C 32.359375 40.257812 33.695312 37.570312 33.695312 32.863281 C 33.695312 28.433594 37.480469 26.984375 40.742188 28.503906 C 42.820312 29.46875 44.582031 31.609375 44.582031 34.601562 C 44.609375 37.113281 43.699219 39.226562 43.203125 41.417969 Z M 50.28125 50.152344 L 39.75 50.152344 C 37.824219 50.152344 37.203125 52.003906 37.726562 53.328125 C 38.015625 54.046875 38.691406 54.597656 39.75 54.597656 L 52.152344 54.597656 C 54.078125 54.597656 54.699219 52.75 54.160156 51.421875 C 53.871094 50.707031 53.210938 50.152344 52.152344 50.152344 Z M 50.265625 43.570312 L 40.507812 43.570312 C 38.578125 43.570312 37.960938 45.421875 38.484375 46.746094 C 38.773438 47.449219 39.433594 48.015625 40.480469 48.015625 L 50.265625 48.015625 C 52.179688 48.015625 52.796875 46.164062 52.261719 44.839844 C 52 44.125 51.324219 43.570312 50.265625 43.570312 Z M 40.398438 56.734375 C 38.46875 56.734375 37.851562 58.585938 38.375 59.910156 C 38.664062 60.628906 39.335938 61.179688 40.398438 61.179688 L 52.136719 61.179688 C 54.066406 61.179688 54.683594 59.332031 54.148438 58.003906 C 53.859375 57.289062 53.199219 56.734375 52.136719 56.734375 Z M 45.007812 67.777344 L 49.921875 67.777344 C 51.847656 67.777344 52.46875 65.925781 51.945312 64.601562 C 51.65625 63.882812 50.980469 63.332031 49.921875 63.332031 L 40.949219 63.332031 C 39.019531 63.332031 38.402344 65.179688 38.9375 66.507812 C 39.226562 67.210938 39.886719 67.777344 40.933594 67.777344 Z M 23.632812 43.667969 L 16.75 43.667969 C 16.472656 43.667969 16.253906 43.890625 16.253906 44.164062 L 16.253906 67.652344 C 16.253906 67.925781 16.472656 68.148438 16.75 68.148438 L 23.632812 68.148438 C 23.90625 68.148438 24.128906 67.925781 24.128906 67.652344 L 24.128906 44.164062 C 24.128906 43.902344 23.90625 43.667969 23.632812 43.667969 Z M 61.511719 21.824219 L 63.578125 25.023438 L 67.265625 26.019531 C 68.007812 26.210938 68.339844 27.121094 67.789062 27.757812 L 65.40625 30.695312 L 65.613281 34.53125 C 65.65625 35.292969 64.898438 35.886719 64.125 35.566406 L 60.589844 34.203125 L 57.023438 35.582031 C 56.292969 35.859375 55.539062 35.292969 55.578125 34.53125 L 55.785156 30.695312 L 53.375 27.714844 C 52.882812 27.109375 53.199219 26.199219 53.925781 26.019531 L 57.628906 25.023438 L 59.707031 21.808594 C 60.136719 21.148438 61.097656 21.160156 61.511719 21.824219 Z M 62.019531 26.527344 L 60.601562 24.347656 L 59.210938 26.488281 C 59.074219 26.722656 58.855469 26.902344 58.566406 26.972656 L 56.0625 27.632812 L 57.671875 29.621094 C 57.835938 29.828125 57.945312 30.089844 57.933594 30.367188 L 57.796875 32.960938 L 60.21875 32.019531 C 60.453125 31.925781 60.726562 31.925781 60.988281 32.019531 L 63.398438 32.960938 L 63.257812 30.367188 C 63.246094 30.117188 63.328125 29.855469 63.492188 29.632812 L 65.132812 27.621094 L 62.625 26.957031 C 62.390625 26.914062 62.160156 26.765625 62.019531 26.527344 Z M 15.441406 21.824219 L 17.507812 25.023438 L 21.207031 26.019531 C 21.953125 26.210938 22.28125 27.121094 21.730469 27.757812 L 19.351562 30.695312 L 19.558594 34.53125 C 19.597656 35.292969 18.839844 35.886719 18.070312 35.566406 L 14.53125 34.203125 L 10.96875 35.582031 C 10.238281 35.859375 9.480469 35.292969 9.523438 34.53125 L 9.730469 30.695312 L 7.320312 27.714844 C 6.839844 27.109375 7.140625 26.199219 7.871094 26.019531 L 11.558594 25.023438 L 13.636719 21.808594 C 14.078125 21.148438 15.042969 21.160156 15.441406 21.824219 Z M 15.949219 26.527344 L 14.546875 24.347656 L 13.15625 26.488281 C 13.019531 26.722656 12.796875 26.902344 12.507812 26.972656 L 10.003906 27.632812 L 11.613281 29.621094 C 11.792969 29.828125 11.890625 30.089844 11.875 30.367188 L 11.738281 32.960938 L 14.148438 32.019531 C 14.382812 31.925781 14.65625 31.925781 14.917969 32.019531 L 17.339844 32.960938 L 17.203125 30.367188 C 17.191406 30.117188 17.273438 29.855469 17.4375 29.632812 L 19.074219 27.621094 L 16.585938 26.957031 C 16.324219 26.914062 16.101562 26.765625 15.949219 26.527344 Z M 38.484375 5.734375 L 41.429688 10.316406 L 46.699219 11.722656 C 47.445312 11.914062 47.773438 12.828125 47.222656 13.460938 L 43.824219 17.671875 L 44.113281 23.132812 C 44.15625 23.894531 43.398438 24.488281 42.625 24.167969 L 37.574219 22.210938 L 32.480469 24.167969 C 31.753906 24.445312 30.996094 23.878906 31.035156 23.121094 L 31.324219 17.65625 L 27.882812 13.417969 C 27.390625 12.8125 27.707031 11.902344 28.433594 11.722656 L 33.722656 10.316406 L 36.679688 5.71875 C 37.105469 5.058594 38.070312 5.085938 38.484375 5.734375 Z M 39.875 11.820312 L 37.574219 8.257812 L 35.304688 11.777344 C 35.167969 12.011719 34.945312 12.191406 34.65625 12.261719 L 30.582031 13.351562 L 33.210938 16.609375 C 33.390625 16.816406 33.488281 17.078125 33.472656 17.367188 L 33.238281 21.589844 L 37.175781 20.070312 C 37.410156 19.972656 37.683594 19.972656 37.945312 20.070312 L 41.882812 21.589844 L 41.648438 17.367188 C 41.636719 17.117188 41.71875 16.855469 41.882812 16.636719 L 44.539062 13.351562 L 40.464844 12.261719 C 40.246094 12.207031 40.023438 12.054688 39.875 11.820312 Z M 39.875 11.820312 " fill-opacity="1" fill-rule="nonzero"/></g></svg>