<svg xmlns="http://www.w3.org/2000/svg" xmlns:xlink="http://www.w3.org/1999/xlink" width="100" zoomAndPan="magnify" viewBox="0 0 75 74.999997" height="100" preserveAspectRatio="xMidYMid meet" version="1.0"><defs><clipPath id="364bf5a11b"><path d="M 4.800781 5 L 70 5 L 70 70 L 4.800781 70 Z M 4.800781 5 " clip-rule="nonzero"/></clipPath></defs><g clip-path="url(#364bf5a11b)"><path fill="#000000" d="M 68.269531 27.464844 L 59.753906 21.015625 L 59.753906 8.5625 C 59.753906 8.414062 59.726562 8.269531 59.667969 8.132812 C 59.609375 7.996094 59.53125 7.875 59.425781 7.769531 C 59.320312 7.664062 59.199219 7.582031 59.0625 7.527344 C 58.925781 7.46875 58.78125 7.441406 58.632812 7.441406 L 49.949219 7.441406 C 49.800781 7.441406 49.65625 7.46875 49.519531 7.527344 C 49.382812 7.582031 49.261719 7.664062 49.15625 7.769531 C 49.050781 7.875 48.972656 7.996094 48.914062 8.132812 C 48.859375 8.269531 48.828125 8.414062 48.828125 8.5625 L 48.828125 12.914062 L 40.167969 6.378906 C 39.761719 6.078125 39.320312 5.847656 38.84375 5.691406 C 38.363281 5.535156 37.871094 5.453125 37.367188 5.453125 C 36.867188 5.453125 36.375 5.535156 35.894531 5.691406 C 35.417969 5.847656 34.976562 6.078125 34.570312 6.378906 L 6.46875 27.464844 C 5.597656 28.09375 5.078125 28.941406 4.910156 30.003906 C 4.875 30.257812 4.863281 30.515625 4.878906 30.773438 C 4.890625 31.03125 4.929688 31.285156 4.996094 31.53125 C 5.0625 31.78125 5.148438 32.023438 5.261719 32.253906 C 5.375 32.488281 5.511719 32.703125 5.667969 32.910156 C 5.824219 33.113281 5.996094 33.300781 6.191406 33.472656 C 6.386719 33.640625 6.59375 33.789062 6.816406 33.917969 C 7.039062 34.046875 7.273438 34.152344 7.519531 34.234375 C 7.765625 34.316406 8.015625 34.371094 8.269531 34.402344 C 8.457031 34.414062 8.644531 34.414062 8.828125 34.402344 C 9.691406 34.402344 10.46875 34.144531 11.15625 33.621094 L 11.347656 33.472656 L 11.347656 68.539062 C 11.347656 68.6875 11.375 68.832031 11.433594 68.96875 C 11.488281 69.105469 11.570312 69.226562 11.675781 69.332031 C 11.78125 69.433594 11.902344 69.515625 12.039062 69.574219 C 12.175781 69.628906 12.316406 69.660156 12.464844 69.660156 L 62.328125 69.660156 C 62.476562 69.660156 62.617188 69.628906 62.753906 69.574219 C 62.894531 69.515625 63.015625 69.433594 63.117188 69.332031 C 63.222656 69.226562 63.304688 69.105469 63.363281 68.96875 C 63.417969 68.832031 63.445312 68.6875 63.445312 68.539062 L 63.445312 33.519531 L 63.636719 33.664062 C 64.324219 34.1875 65.101562 34.449219 65.964844 34.449219 C 66.578125 34.445312 67.160156 34.304688 67.707031 34.027344 C 68.257812 33.753906 68.71875 33.371094 69.085938 32.882812 C 69.738281 32.027344 69.984375 31.066406 69.824219 30.003906 C 69.660156 28.941406 69.140625 28.09375 68.269531 27.464844 Z M 51.035156 9.644531 L 57.515625 9.644531 L 57.515625 19.394531 L 51.011719 14.527344 Z M 46.480469 67.453125 L 28.257812 67.453125 L 28.257812 36.6875 C 28.257812 36.503906 28.292969 36.324219 28.359375 36.15625 C 28.429688 35.984375 28.527344 35.835938 28.65625 35.707031 C 28.789062 35.574219 28.9375 35.476562 29.105469 35.40625 C 29.273438 35.332031 29.453125 35.296875 29.636719 35.296875 L 45.101562 35.296875 C 45.285156 35.296875 45.460938 35.332031 45.628906 35.402344 C 45.796875 35.472656 45.945312 35.574219 46.078125 35.703125 C 46.207031 35.832031 46.304688 35.980469 46.375 36.148438 C 46.445312 36.316406 46.480469 36.492188 46.480469 36.675781 Z M 61.242188 67.453125 L 48.640625 67.453125 L 48.640625 36.6875 C 48.636719 36.21875 48.546875 35.765625 48.367188 35.335938 C 48.1875 34.902344 47.933594 34.519531 47.601562 34.1875 C 47.269531 33.859375 46.886719 33.601562 46.453125 33.421875 C 46.023438 33.242188 45.570312 33.152344 45.101562 33.148438 L 29.636719 33.148438 C 29.167969 33.152344 28.714844 33.242188 28.285156 33.421875 C 27.851562 33.601562 27.46875 33.859375 27.136719 34.1875 C 26.804688 34.519531 26.550781 34.902344 26.371094 35.335938 C 26.191406 35.765625 26.101562 36.21875 26.097656 36.6875 L 26.097656 67.453125 L 13.496094 67.453125 L 13.496094 31.941406 L 37.367188 14.035156 L 61.242188 31.941406 Z M 67.320312 31.640625 C 67.179688 31.816406 67.007812 31.960938 66.8125 32.074219 C 66.613281 32.1875 66.402344 32.257812 66.175781 32.289062 C 65.953125 32.320312 65.730469 32.308594 65.507812 32.253906 C 65.289062 32.199219 65.085938 32.105469 64.902344 31.972656 L 38.039062 11.828125 C 37.847656 11.691406 37.628906 11.621094 37.390625 11.621094 C 37.152344 11.621094 36.9375 11.691406 36.742188 11.828125 L 9.835938 31.941406 C 9.457031 32.226562 9.03125 32.339844 8.5625 32.277344 C 8.097656 32.199219 7.726562 31.976562 7.441406 31.605469 C 7.167969 31.210938 7.070312 30.777344 7.148438 30.308594 C 7.222656 29.84375 7.445312 29.46875 7.820312 29.1875 L 35.871094 8.113281 C 36.3125 7.777344 36.8125 7.609375 37.367188 7.609375 C 37.921875 7.613281 38.421875 7.777344 38.867188 8.101562 L 66.972656 29.175781 C 67.347656 29.457031 67.570312 29.832031 67.644531 30.296875 C 67.714844 30.773438 67.605469 31.207031 67.320312 31.59375 Z M 67.320312 31.640625 " fill-opacity="1" fill-rule="nonzero"/></g></svg>