<svg xmlns="http://www.w3.org/2000/svg" xmlns:xlink="http://www.w3.org/1999/xlink" width="100" zoomAndPan="magnify" viewBox="0 0 75 74.999997" height="100" preserveAspectRatio="xMidYMid meet" version="1.0"><defs><clipPath id="5420b864c3"><path d="M 8.242188 3.578125 L 66.742188 3.578125 L 66.742188 71.078125 L 8.242188 71.078125 Z M 8.242188 3.578125 " clip-rule="nonzero"/></clipPath></defs><g clip-path="url(#5420b864c3)"><path fill="#000000" d="M 65.742188 3.519531 L 18.558594 3.519531 C 18.078125 3.519531 17.675781 3.917969 17.675781 4.398438 L 17.675781 46.660156 C 17.675781 47.140625 18.078125 47.542969 18.558594 47.542969 C 19.042969 47.542969 19.445312 47.140625 19.445312 46.660156 L 19.445312 5.28125 L 64.859375 5.28125 L 64.859375 60.75 C 64.859375 63.027344 63.972656 65.160156 62.359375 66.769531 C 60.742188 68.378906 58.59375 69.257812 56.308594 69.257812 C 54.019531 69.257812 51.871094 68.378906 50.257812 66.769531 C 48.640625 65.160156 47.753906 63.027344 47.753906 60.75 C 47.753906 60.511719 47.660156 60.289062 47.496094 60.125 C 47.332031 59.960938 47.105469 59.867188 46.871094 59.867188 L 19.445312 59.867188 L 19.445312 56.050781 C 19.445312 55.570312 19.042969 55.171875 18.558594 55.171875 C 18.078125 55.171875 17.675781 55.570312 17.675781 56.050781 L 17.675781 59.867188 L 9.125 59.867188 C 8.640625 59.867188 8.238281 60.265625 8.238281 60.75 C 8.238281 63.496094 9.3125 66.066406 11.257812 68.015625 C 13.203125 69.953125 15.800781 71.019531 18.558594 71.019531 L 56.308594 71.019531 C 59.066406 71.019531 61.652344 69.953125 63.609375 68.015625 C 65.554688 66.078125 66.628906 63.496094 66.628906 60.75 L 66.628906 4.398438 C 66.628906 3.917969 66.226562 3.519531 65.742188 3.519531 Z M 18.558594 69.257812 C 16.273438 69.257812 14.125 68.378906 12.507812 66.769531 C 11.105469 65.375 10.246094 63.578125 10.054688 61.628906 L 46.03125 61.628906 C 46.234375 64.046875 47.285156 66.277344 49.015625 68.015625 C 49.488281 68.484375 49.996094 68.894531 50.527344 69.257812 Z M 17.675781 52.53125 L 17.675781 50.183594 C 17.675781 49.703125 18.078125 49.300781 18.558594 49.300781 C 19.042969 49.300781 19.445312 49.703125 19.445312 50.183594 L 19.445312 52.53125 C 19.445312 53.011719 19.042969 53.410156 18.558594 53.410156 C 18.078125 53.410156 17.675781 53.011719 17.675781 52.53125 Z M 23.867188 19.367188 C 23.386719 19.367188 22.984375 18.96875 22.984375 18.488281 L 22.984375 11.445312 C 22.984375 10.960938 23.386719 10.5625 23.867188 10.5625 C 24.351562 10.5625 24.753906 10.960938 24.753906 11.445312 L 24.753906 18.488281 C 24.753906 18.96875 24.351562 19.367188 23.867188 19.367188 Z M 27.40625 19.367188 C 26.921875 19.367188 26.523438 18.96875 26.523438 18.488281 L 26.523438 11.445312 C 26.523438 11.03125 26.804688 10.679688 27.207031 10.585938 C 27.609375 10.492188 28.019531 10.679688 28.199219 11.042969 L 30.0625 14.753906 L 30.0625 11.445312 C 30.0625 10.960938 30.460938 10.5625 30.945312 10.5625 C 31.429688 10.5625 31.832031 10.960938 31.832031 11.445312 L 31.832031 18.488281 C 31.832031 18.898438 31.546875 19.25 31.148438 19.34375 C 31.074219 19.355469 31.003906 19.367188 30.945312 19.367188 C 30.617188 19.367188 30.308594 19.179688 30.15625 18.886719 L 28.292969 15.175781 L 28.292969 18.488281 C 28.292969 18.96875 27.890625 19.367188 27.40625 19.367188 Z M 35.371094 18.699219 L 33.625 11.65625 C 33.503906 11.183594 33.800781 10.703125 34.273438 10.585938 C 34.746094 10.46875 35.226562 10.761719 35.347656 11.234375 L 36.242188 14.859375 L 37.175781 11.234375 C 37.292969 10.761719 37.777344 10.46875 38.246094 10.597656 C 38.71875 10.714844 39.003906 11.195312 38.882812 11.667969 L 37.089844 18.710938 C 36.996094 19.097656 36.644531 19.378906 36.230469 19.378906 C 35.828125 19.378906 35.476562 19.097656 35.371094 18.710938 Z M 45.394531 16.726562 L 45.394531 13.203125 C 45.394531 11.75 44.203125 10.5625 42.742188 10.5625 C 41.277344 10.5625 40.085938 11.75 40.085938 13.203125 L 40.085938 16.726562 C 40.085938 18.183594 41.277344 19.367188 42.742188 19.367188 C 44.203125 19.367188 45.394531 18.183594 45.394531 16.726562 Z M 41.855469 16.726562 L 41.855469 13.203125 C 41.855469 12.722656 42.257812 12.324219 42.742188 12.324219 C 43.226562 12.324219 43.625 12.722656 43.625 13.203125 L 43.625 16.726562 C 43.625 17.207031 43.226562 17.605469 42.742188 17.605469 C 42.257812 17.605469 41.855469 17.207031 41.855469 16.726562 Z M 47.460938 19.367188 C 46.976562 19.367188 46.574219 18.96875 46.574219 18.488281 L 46.574219 11.445312 C 46.574219 10.960938 46.976562 10.5625 47.460938 10.5625 C 47.945312 10.5625 48.34375 10.960938 48.34375 11.445312 L 48.34375 18.488281 C 48.34375 18.96875 47.945312 19.367188 47.460938 19.367188 Z M 52.074219 13.097656 C 51.578125 13.59375 51.292969 14.273438 51.292969 14.964844 C 51.292969 15.65625 51.578125 16.339844 52.074219 16.832031 C 52.578125 17.324219 53.242188 17.605469 53.949219 17.605469 C 54.429688 17.605469 54.832031 18.007812 54.832031 18.488281 C 54.832031 18.96875 54.429688 19.367188 53.949219 19.367188 C 52.769531 19.367188 51.660156 18.910156 50.820312 18.078125 C 49.996094 17.253906 49.523438 16.117188 49.523438 14.964844 C 49.523438 13.816406 49.996094 12.675781 50.820312 11.855469 C 51.660156 11.019531 52.769531 10.5625 53.949219 10.5625 C 54.429688 10.5625 54.832031 10.960938 54.832031 11.445312 C 54.832031 11.925781 54.429688 12.324219 53.949219 12.324219 C 53.242188 12.324219 52.566406 12.59375 52.074219 13.097656 Z M 57.78125 12.324219 L 57.78125 14.085938 L 59.257812 14.085938 C 59.738281 14.085938 60.140625 14.484375 60.140625 14.964844 C 60.140625 15.445312 59.738281 15.847656 59.257812 15.847656 L 57.78125 15.847656 L 57.78125 17.605469 L 60.4375 17.605469 C 60.917969 17.605469 61.320312 18.007812 61.320312 18.488281 C 61.320312 18.96875 60.917969 19.367188 60.4375 19.367188 L 56.898438 19.367188 C 56.414062 19.367188 56.011719 18.96875 56.011719 18.488281 L 56.011719 11.445312 C 56.011719 10.960938 56.414062 10.5625 56.898438 10.5625 L 60.4375 10.5625 C 60.917969 10.5625 61.320312 10.960938 61.320312 11.445312 C 61.320312 11.925781 60.917969 12.324219 60.4375 12.324219 Z M 22.394531 25.53125 L 22.394531 46.660156 C 22.394531 47.140625 22.796875 47.542969 23.277344 47.542969 L 61.027344 47.542969 C 61.507812 47.542969 61.910156 47.140625 61.910156 46.660156 L 61.910156 25.53125 C 61.910156 25.050781 61.507812 24.648438 61.027344 24.648438 L 23.277344 24.648438 C 22.796875 24.648438 22.394531 25.050781 22.394531 25.53125 Z M 60.140625 38.738281 L 33.601562 38.738281 L 33.601562 33.453125 L 60.140625 33.453125 Z M 31.832031 38.738281 L 24.164062 38.738281 L 24.164062 33.453125 L 31.832031 33.453125 Z M 24.164062 40.5 L 31.832031 40.5 L 31.832031 45.78125 L 24.164062 45.78125 Z M 33.601562 45.78125 L 33.601562 40.5 L 60.140625 40.5 L 60.140625 45.78125 Z M 60.140625 31.695312 L 33.601562 31.695312 L 33.601562 26.410156 L 60.140625 26.410156 Z M 24.164062 26.410156 L 31.832031 26.410156 L 31.832031 31.695312 L 24.164062 31.695312 Z M 22.394531 56.050781 C 22.394531 55.570312 22.796875 55.171875 23.277344 55.171875 L 35.074219 55.171875 C 35.558594 55.171875 35.960938 55.570312 35.960938 56.050781 C 35.960938 56.535156 35.558594 56.933594 35.074219 56.933594 L 23.277344 56.933594 C 22.796875 56.933594 22.394531 56.535156 22.394531 56.050781 Z M 22.394531 56.050781 " fill-opacity="1" fill-rule="nonzero"/></g></svg>