<svg xmlns="http://www.w3.org/2000/svg" xmlns:xlink="http://www.w3.org/1999/xlink" width="100" zoomAndPan="magnify" viewBox="0 0 75 74.999997" height="100" preserveAspectRatio="xMidYMid meet" version="1.0"><defs><clipPath id="e0f6294d8e"><path d="M 4.238281 4.238281 L 70.988281 4.238281 L 70.988281 70.988281 L 4.238281 70.988281 Z M 4.238281 4.238281 " clip-rule="nonzero"/></clipPath></defs><g clip-path="url(#e0f6294d8e)"><path fill="#000000" d="M 67.304688 28.109375 L 64.929688 28.109375 L 64.929688 7.917969 C 64.902344 7.421875 64.785156 6.949219 64.570312 6.5 C 64.355469 6.050781 64.0625 5.660156 63.695312 5.328125 C 63.328125 4.992188 62.90625 4.742188 62.4375 4.574219 C 61.972656 4.40625 61.488281 4.332031 60.992188 4.355469 L 14.234375 4.355469 C 13.738281 4.332031 13.253906 4.40625 12.785156 4.574219 C 12.316406 4.742188 11.898438 4.992188 11.53125 5.328125 C 11.160156 5.660156 10.871094 6.050781 10.65625 6.5 C 10.441406 6.949219 10.320312 7.421875 10.292969 7.917969 L 10.292969 28.109375 L 7.917969 28.109375 C 7.445312 28.109375 6.992188 28.199219 6.554688 28.382812 C 6.121094 28.5625 5.734375 28.820312 5.398438 29.15625 C 5.066406 29.488281 4.808594 29.875 4.628906 30.308594 C 4.445312 30.746094 4.355469 31.203125 4.355469 31.675781 L 4.355469 43.550781 C 4.355469 44.023438 4.445312 44.476562 4.628906 44.914062 C 4.808594 45.351562 5.066406 45.738281 5.398438 46.070312 C 5.734375 46.40625 6.121094 46.664062 6.554688 46.84375 C 6.992188 47.023438 7.445312 47.113281 7.917969 47.113281 L 10.292969 47.113281 L 10.292969 67.304688 C 10.320312 67.800781 10.441406 68.273438 10.65625 68.722656 C 10.871094 69.171875 11.160156 69.566406 11.53125 69.898438 C 11.898438 70.234375 12.316406 70.484375 12.785156 70.652344 C 13.253906 70.820312 13.738281 70.890625 14.234375 70.867188 L 60.992188 70.867188 C 61.488281 70.890625 61.972656 70.820312 62.4375 70.652344 C 62.90625 70.484375 63.328125 70.234375 63.695312 69.898438 C 64.0625 69.566406 64.355469 69.171875 64.570312 68.722656 C 64.785156 68.273438 64.902344 67.800781 64.929688 67.304688 L 64.929688 47.113281 L 67.304688 47.113281 C 67.777344 47.113281 68.234375 47.023438 68.667969 46.84375 C 69.105469 46.664062 69.492188 46.40625 69.824219 46.070312 C 70.160156 45.738281 70.417969 45.351562 70.597656 44.914062 C 70.777344 44.476562 70.867188 44.023438 70.867188 43.550781 L 70.867188 31.675781 C 70.867188 31.203125 70.777344 30.746094 70.597656 30.308594 C 70.417969 29.875 70.160156 29.488281 69.824219 29.15625 C 69.492188 28.820312 69.105469 28.5625 68.667969 28.382812 C 68.234375 28.199219 67.777344 28.109375 67.304688 28.109375 Z M 12.671875 7.917969 C 12.671875 7.277344 13.382812 6.730469 14.234375 6.730469 L 60.992188 6.730469 C 61.84375 6.730469 62.554688 7.277344 62.554688 7.917969 L 62.554688 28.109375 L 12.671875 28.109375 Z M 62.554688 67.304688 C 62.554688 67.949219 61.84375 68.492188 60.992188 68.492188 L 14.234375 68.492188 C 13.382812 68.492188 12.671875 67.949219 12.671875 67.304688 L 12.671875 47.113281 L 62.554688 47.113281 Z M 68.492188 43.550781 C 68.492188 43.707031 68.464844 43.859375 68.402344 44.003906 C 68.34375 44.152344 68.257812 44.28125 68.144531 44.390625 C 68.035156 44.503906 67.90625 44.589844 67.761719 44.648438 C 67.613281 44.707031 67.464844 44.738281 67.304688 44.738281 L 7.917969 44.738281 C 7.761719 44.738281 7.609375 44.707031 7.464844 44.648438 C 7.320312 44.589844 7.191406 44.503906 7.078125 44.390625 C 6.96875 44.28125 6.882812 44.152344 6.820312 44.003906 C 6.761719 43.859375 6.730469 43.707031 6.730469 43.550781 L 6.730469 31.675781 C 6.730469 31.515625 6.761719 31.363281 6.820312 31.21875 C 6.882812 31.074219 6.96875 30.945312 7.078125 30.835938 C 7.191406 30.722656 7.320312 30.636719 7.464844 30.578125 C 7.609375 30.515625 7.761719 30.484375 7.917969 30.484375 L 67.304688 30.484375 C 67.464844 30.484375 67.613281 30.515625 67.761719 30.578125 C 67.90625 30.636719 68.035156 30.722656 68.144531 30.835938 C 68.257812 30.945312 68.34375 31.074219 68.402344 31.21875 C 68.464844 31.363281 68.492188 31.515625 68.492188 31.675781 Z M 68.492188 43.550781 " fill-opacity="1" fill-rule="nonzero"/></g><path fill="#000000" d="M 10.292969 32.863281 C 10.136719 32.863281 9.984375 32.890625 9.839844 32.953125 C 9.695312 33.011719 9.566406 33.097656 9.453125 33.210938 C 9.34375 33.320312 9.257812 33.449219 9.199219 33.59375 C 9.136719 33.742188 9.105469 33.890625 9.105469 34.050781 L 9.105469 41.175781 C 9.105469 41.332031 9.136719 41.484375 9.199219 41.628906 C 9.257812 41.777344 9.34375 41.902344 9.453125 42.015625 C 9.566406 42.125 9.695312 42.210938 9.839844 42.273438 C 9.984375 42.332031 10.136719 42.363281 10.292969 42.363281 C 10.453125 42.363281 10.605469 42.332031 10.75 42.273438 C 10.894531 42.210938 11.023438 42.125 11.132812 42.015625 C 11.246094 41.902344 11.332031 41.777344 11.390625 41.628906 C 11.453125 41.484375 11.484375 41.332031 11.484375 41.175781 L 11.484375 34.050781 C 11.484375 33.890625 11.453125 33.742188 11.390625 33.59375 C 11.332031 33.449219 11.246094 33.320312 11.132812 33.210938 C 11.023438 33.097656 10.894531 33.011719 10.75 32.953125 C 10.605469 32.890625 10.453125 32.863281 10.292969 32.863281 Z M 10.292969 32.863281 " fill-opacity="1" fill-rule="nonzero"/><path fill="#000000" d="M 47.113281 32.863281 C 46.957031 32.863281 46.804688 32.890625 46.660156 32.953125 C 46.515625 33.011719 46.386719 33.097656 46.273438 33.210938 C 46.164062 33.320312 46.078125 33.449219 46.015625 33.59375 C 45.957031 33.742188 45.925781 33.890625 45.925781 34.050781 L 45.925781 41.175781 C 45.925781 41.332031 45.957031 41.484375 46.015625 41.628906 C 46.078125 41.777344 46.164062 41.902344 46.273438 42.015625 C 46.386719 42.125 46.515625 42.210938 46.660156 42.273438 C 46.804688 42.332031 46.957031 42.363281 47.113281 42.363281 C 47.273438 42.363281 47.421875 42.332031 47.570312 42.273438 C 47.714844 42.210938 47.84375 42.125 47.953125 42.015625 C 48.066406 41.902344 48.152344 41.777344 48.210938 41.628906 C 48.273438 41.484375 48.300781 41.332031 48.300781 41.175781 L 48.300781 34.050781 C 48.300781 33.890625 48.273438 33.742188 48.210938 33.59375 C 48.152344 33.449219 48.066406 33.320312 47.953125 33.210938 C 47.84375 33.097656 47.714844 33.011719 47.570312 32.953125 C 47.421875 32.890625 47.273438 32.863281 47.113281 32.863281 Z M 47.113281 32.863281 " fill-opacity="1" fill-rule="nonzero"/><path fill="#000000" d="M 64.929688 35.238281 C 65.085938 35.238281 65.238281 35.207031 65.382812 35.148438 C 65.53125 35.085938 65.660156 35 65.769531 34.890625 C 65.882812 34.777344 65.96875 34.648438 66.027344 34.503906 C 66.085938 34.359375 66.117188 34.207031 66.117188 34.050781 C 66.117188 33.890625 66.085938 33.742188 66.027344 33.59375 C 65.96875 33.449219 65.882812 33.320312 65.769531 33.210938 C 65.660156 33.097656 65.53125 33.011719 65.382812 32.953125 C 65.238281 32.890625 65.085938 32.863281 64.929688 32.863281 L 61.367188 32.863281 C 61.210938 32.863281 61.058594 32.890625 60.914062 32.953125 C 60.765625 33.011719 60.636719 33.097656 60.527344 33.210938 C 60.414062 33.320312 60.328125 33.449219 60.269531 33.59375 C 60.210938 33.742188 60.179688 33.890625 60.179688 34.050781 L 60.179688 41.175781 C 60.179688 41.332031 60.210938 41.484375 60.269531 41.628906 C 60.328125 41.777344 60.414062 41.902344 60.527344 42.015625 C 60.636719 42.125 60.765625 42.210938 60.914062 42.273438 C 61.058594 42.332031 61.210938 42.363281 61.367188 42.363281 L 64.929688 42.363281 C 65.085938 42.363281 65.238281 42.332031 65.382812 42.273438 C 65.53125 42.210938 65.660156 42.125 65.769531 42.015625 C 65.882812 41.902344 65.96875 41.777344 66.027344 41.628906 C 66.085938 41.484375 66.117188 41.332031 66.117188 41.175781 C 66.117188 41.019531 66.085938 40.867188 66.027344 40.722656 C 65.96875 40.574219 65.882812 40.445312 65.769531 40.335938 C 65.660156 40.222656 65.53125 40.136719 65.382812 40.078125 C 65.238281 40.019531 65.085938 39.988281 64.929688 39.988281 L 62.554688 39.988281 L 62.554688 38.800781 L 64.929688 38.800781 C 65.085938 38.800781 65.238281 38.769531 65.382812 38.710938 C 65.53125 38.648438 65.660156 38.5625 65.769531 38.453125 C 65.882812 38.339844 65.96875 38.210938 66.027344 38.066406 C 66.085938 37.921875 66.117188 37.769531 66.117188 37.613281 C 66.117188 37.453125 66.085938 37.304688 66.027344 37.15625 C 65.96875 37.011719 65.882812 36.882812 65.769531 36.773438 C 65.660156 36.660156 65.53125 36.574219 65.382812 36.515625 C 65.238281 36.453125 65.085938 36.425781 64.929688 36.425781 L 62.554688 36.425781 L 62.554688 35.238281 Z M 64.929688 35.238281 " fill-opacity="1" fill-rule="nonzero"/><path fill="#000000" d="M 20.984375 32.863281 C 20.828125 32.863281 20.675781 32.890625 20.53125 32.953125 C 20.382812 33.011719 20.257812 33.097656 20.144531 33.210938 C 20.03125 33.320312 19.949219 33.449219 19.886719 33.59375 C 19.828125 33.742188 19.796875 33.890625 19.796875 34.050781 L 19.796875 37.894531 L 15.957031 33.289062 C 15.796875 33.097656 15.597656 32.96875 15.355469 32.902344 C 15.113281 32.835938 14.875 32.847656 14.640625 32.933594 C 14.40625 33.015625 14.214844 33.164062 14.074219 33.367188 C 13.929688 33.570312 13.859375 33.800781 13.859375 34.050781 L 13.859375 41.175781 C 13.859375 41.332031 13.886719 41.484375 13.949219 41.628906 C 14.007812 41.777344 14.09375 41.902344 14.207031 42.015625 C 14.316406 42.125 14.445312 42.210938 14.589844 42.273438 C 14.738281 42.332031 14.886719 42.363281 15.046875 42.363281 C 15.203125 42.363281 15.355469 42.332031 15.5 42.273438 C 15.644531 42.210938 15.773438 42.125 15.886719 42.015625 C 15.996094 41.902344 16.082031 41.777344 16.144531 41.628906 C 16.203125 41.484375 16.234375 41.332031 16.234375 41.175781 L 16.234375 37.328125 L 20.070312 41.9375 C 20.230469 42.128906 20.433594 42.257812 20.675781 42.324219 C 20.914062 42.386719 21.152344 42.378906 21.390625 42.292969 C 21.625 42.207031 21.8125 42.0625 21.957031 41.859375 C 22.101562 41.652344 22.171875 41.425781 22.171875 41.175781 L 22.171875 34.050781 C 22.171875 33.890625 22.140625 33.742188 22.082031 33.59375 C 22.019531 33.449219 21.9375 33.320312 21.824219 33.210938 C 21.710938 33.097656 21.585938 33.011719 21.4375 32.953125 C 21.292969 32.890625 21.140625 32.863281 20.984375 32.863281 Z M 20.984375 32.863281 " fill-opacity="1" fill-rule="nonzero"/><path fill="#000000" d="M 33.394531 32.988281 C 33.253906 32.917969 33.105469 32.875 32.949219 32.863281 C 32.789062 32.851562 32.636719 32.871094 32.488281 32.921875 C 32.339844 32.972656 32.203125 33.046875 32.085938 33.148438 C 31.964844 33.253906 31.871094 33.375 31.800781 33.515625 L 29.285156 38.519531 L 26.804688 33.519531 C 26.734375 33.378906 26.640625 33.257812 26.519531 33.152344 C 26.402344 33.050781 26.269531 32.972656 26.117188 32.925781 C 25.96875 32.875 25.816406 32.855469 25.660156 32.863281 C 25.503906 32.875 25.351562 32.914062 25.210938 32.984375 C 25.070312 33.054688 24.949219 33.152344 24.84375 33.269531 C 24.742188 33.386719 24.664062 33.523438 24.613281 33.671875 C 24.5625 33.820312 24.542969 33.972656 24.554688 34.128906 C 24.566406 34.289062 24.605469 34.4375 24.675781 34.578125 L 28.222656 41.703125 C 28.320312 41.90625 28.46875 42.066406 28.660156 42.183594 C 28.851562 42.304688 29.058594 42.363281 29.28125 42.363281 C 29.507812 42.363281 29.714844 42.304688 29.90625 42.1875 C 30.097656 42.070312 30.242188 41.910156 30.34375 41.707031 L 33.925781 34.582031 C 33.996094 34.441406 34.039062 34.292969 34.050781 34.136719 C 34.058594 33.976562 34.039062 33.824219 33.992188 33.675781 C 33.941406 33.523438 33.863281 33.390625 33.761719 33.273438 C 33.65625 33.152344 33.535156 33.058594 33.394531 32.988281 Z M 33.394531 32.988281 " fill-opacity="1" fill-rule="nonzero"/><path fill="#000000" d="M 39.988281 32.863281 C 39.515625 32.863281 39.0625 32.953125 38.625 33.132812 C 38.1875 33.3125 37.800781 33.570312 37.46875 33.90625 C 37.132812 34.238281 36.875 34.625 36.695312 35.0625 C 36.515625 35.496094 36.425781 35.953125 36.425781 36.425781 L 36.425781 38.800781 C 36.425781 39.273438 36.515625 39.726562 36.695312 40.164062 C 36.875 40.601562 37.132812 40.984375 37.46875 41.320312 C 37.800781 41.652344 38.1875 41.910156 38.625 42.09375 C 39.0625 42.273438 39.515625 42.363281 39.988281 42.363281 C 40.460938 42.363281 40.914062 42.273438 41.351562 42.09375 C 41.789062 41.910156 42.171875 41.652344 42.507812 41.320312 C 42.839844 40.984375 43.097656 40.601562 43.28125 40.164062 C 43.460938 39.726562 43.550781 39.273438 43.550781 38.800781 L 43.550781 36.425781 C 43.550781 35.953125 43.460938 35.496094 43.28125 35.0625 C 43.097656 34.625 42.839844 34.238281 42.507812 33.90625 C 42.171875 33.570312 41.789062 33.3125 41.351562 33.132812 C 40.914062 32.953125 40.460938 32.863281 39.988281 32.863281 Z M 41.175781 38.800781 C 41.175781 38.957031 41.144531 39.109375 41.085938 39.253906 C 41.023438 39.398438 40.9375 39.527344 40.828125 39.640625 C 40.714844 39.75 40.589844 39.835938 40.441406 39.898438 C 40.296875 39.957031 40.144531 39.988281 39.988281 39.988281 C 39.832031 39.988281 39.679688 39.957031 39.535156 39.898438 C 39.386719 39.835938 39.257812 39.75 39.148438 39.640625 C 39.035156 39.527344 38.949219 39.398438 38.890625 39.253906 C 38.832031 39.109375 38.800781 38.957031 38.800781 38.800781 L 38.800781 36.425781 C 38.800781 36.265625 38.832031 36.117188 38.890625 35.96875 C 38.949219 35.824219 39.035156 35.695312 39.148438 35.585938 C 39.257812 35.472656 39.386719 35.386719 39.535156 35.328125 C 39.679688 35.265625 39.832031 35.238281 39.988281 35.238281 C 40.144531 35.238281 40.296875 35.265625 40.441406 35.328125 C 40.589844 35.386719 40.714844 35.472656 40.828125 35.585938 C 40.9375 35.695312 41.023438 35.824219 41.085938 35.96875 C 41.144531 36.117188 41.175781 36.265625 41.175781 36.425781 Z M 41.175781 38.800781 " fill-opacity="1" fill-rule="nonzero"/><path fill="#000000" d="M 54.242188 35.238281 L 56.617188 35.238281 C 56.773438 35.238281 56.925781 35.207031 57.070312 35.148438 C 57.214844 35.085938 57.34375 35 57.457031 34.890625 C 57.566406 34.777344 57.652344 34.648438 57.714844 34.503906 C 57.773438 34.359375 57.804688 34.207031 57.804688 34.050781 C 57.804688 33.890625 57.773438 33.742188 57.714844 33.59375 C 57.652344 33.449219 57.566406 33.320312 57.457031 33.210938 C 57.34375 33.097656 57.214844 33.011719 57.070312 32.953125 C 56.925781 32.890625 56.773438 32.863281 56.617188 32.863281 L 54.242188 32.863281 C 53.769531 32.863281 53.3125 32.953125 52.878906 33.132812 C 52.441406 33.3125 52.054688 33.570312 51.722656 33.90625 C 51.386719 34.238281 51.128906 34.625 50.949219 35.0625 C 50.769531 35.496094 50.675781 35.953125 50.675781 36.425781 L 50.675781 38.800781 C 50.675781 39.273438 50.769531 39.726562 50.949219 40.164062 C 51.128906 40.601562 51.386719 40.984375 51.722656 41.320312 C 52.054688 41.652344 52.441406 41.910156 52.878906 42.09375 C 53.3125 42.273438 53.769531 42.363281 54.242188 42.363281 L 56.617188 42.363281 C 56.773438 42.363281 56.925781 42.332031 57.070312 42.273438 C 57.214844 42.210938 57.34375 42.125 57.457031 42.015625 C 57.566406 41.902344 57.652344 41.777344 57.714844 41.628906 C 57.773438 41.484375 57.804688 41.332031 57.804688 41.175781 C 57.804688 41.019531 57.773438 40.867188 57.714844 40.722656 C 57.652344 40.574219 57.566406 40.445312 57.457031 40.335938 C 57.34375 40.222656 57.214844 40.136719 57.070312 40.078125 C 56.925781 40.019531 56.773438 39.988281 56.617188 39.988281 L 54.242188 39.988281 C 54.082031 39.988281 53.929688 39.957031 53.785156 39.898438 C 53.640625 39.835938 53.511719 39.75 53.402344 39.640625 C 53.289062 39.527344 53.203125 39.398438 53.144531 39.253906 C 53.082031 39.109375 53.054688 38.957031 53.054688 38.800781 L 53.054688 36.425781 C 53.054688 36.265625 53.082031 36.117188 53.144531 35.96875 C 53.203125 35.824219 53.289062 35.695312 53.402344 35.585938 C 53.511719 35.472656 53.640625 35.386719 53.785156 35.328125 C 53.929688 35.265625 54.082031 35.238281 54.242188 35.238281 Z M 54.242188 35.238281 " fill-opacity="1" fill-rule="nonzero"/><path fill="#000000" d="M 51.863281 10.292969 L 23.359375 10.292969 C 22.886719 10.292969 22.433594 10.386719 21.996094 10.566406 C 21.558594 10.746094 21.175781 11.003906 20.839844 11.339844 C 20.507812 11.671875 20.25 12.058594 20.066406 12.496094 C 19.886719 12.929688 19.796875 13.386719 19.796875 13.859375 L 19.796875 20.984375 C 19.796875 21.457031 19.886719 21.910156 20.066406 22.347656 C 20.25 22.785156 20.507812 23.167969 20.839844 23.503906 C 21.175781 23.839844 21.558594 24.09375 21.996094 24.277344 C 22.433594 24.457031 22.886719 24.546875 23.359375 24.546875 L 51.863281 24.546875 C 52.335938 24.546875 52.792969 24.457031 53.230469 24.277344 C 53.664062 24.09375 54.050781 23.839844 54.382812 23.503906 C 54.71875 23.167969 54.976562 22.785156 55.15625 22.347656 C 55.339844 21.910156 55.429688 21.457031 55.429688 20.984375 L 55.429688 13.859375 C 55.429688 13.386719 55.339844 12.929688 55.15625 12.496094 C 54.976562 12.058594 54.71875 11.671875 54.382812 11.339844 C 54.050781 11.003906 53.664062 10.746094 53.230469 10.566406 C 52.792969 10.386719 52.335938 10.292969 51.863281 10.292969 Z M 53.054688 20.984375 C 53.054688 21.140625 53.023438 21.292969 52.960938 21.4375 C 52.902344 21.585938 52.816406 21.710938 52.703125 21.824219 C 52.59375 21.9375 52.464844 22.019531 52.320312 22.082031 C 52.175781 22.140625 52.023438 22.171875 51.863281 22.171875 L 23.359375 22.171875 C 23.203125 22.171875 23.050781 22.140625 22.90625 22.082031 C 22.761719 22.019531 22.632812 21.9375 22.519531 21.824219 C 22.410156 21.710938 22.324219 21.585938 22.261719 21.4375 C 22.203125 21.292969 22.171875 21.140625 22.171875 20.984375 L 22.171875 13.859375 C 22.171875 13.699219 22.203125 13.550781 22.261719 13.402344 C 22.324219 13.257812 22.410156 13.128906 22.519531 13.019531 C 22.632812 12.90625 22.761719 12.820312 22.90625 12.761719 C 23.050781 12.699219 23.203125 12.671875 23.359375 12.671875 L 51.863281 12.671875 C 52.023438 12.671875 52.175781 12.699219 52.320312 12.761719 C 52.464844 12.820312 52.59375 12.90625 52.703125 13.019531 C 52.816406 13.128906 52.902344 13.257812 52.960938 13.402344 C 53.023438 13.550781 53.054688 13.699219 53.054688 13.859375 Z M 53.054688 20.984375 " fill-opacity="1" fill-rule="nonzero"/><path fill="#000000" d="M 25.734375 53.054688 L 49.488281 53.054688 C 49.648438 53.054688 49.796875 53.023438 49.945312 52.960938 C 50.089844 52.902344 50.21875 52.816406 50.328125 52.703125 C 50.441406 52.59375 50.527344 52.464844 50.585938 52.320312 C 50.648438 52.175781 50.675781 52.023438 50.675781 51.863281 C 50.675781 51.707031 50.648438 51.554688 50.585938 51.410156 C 50.527344 51.265625 50.441406 51.136719 50.328125 51.023438 C 50.21875 50.914062 50.089844 50.828125 49.945312 50.769531 C 49.796875 50.707031 49.648438 50.675781 49.488281 50.675781 L 25.734375 50.675781 C 25.578125 50.675781 25.425781 50.707031 25.28125 50.769531 C 25.136719 50.828125 25.007812 50.914062 24.894531 51.023438 C 24.785156 51.136719 24.699219 51.265625 24.636719 51.410156 C 24.578125 51.554688 24.546875 51.707031 24.546875 51.863281 C 24.546875 52.023438 24.578125 52.175781 24.636719 52.320312 C 24.699219 52.464844 24.785156 52.59375 24.894531 52.703125 C 25.007812 52.816406 25.136719 52.902344 25.28125 52.960938 C 25.425781 53.023438 25.578125 53.054688 25.734375 53.054688 Z M 25.734375 53.054688 " fill-opacity="1" fill-rule="nonzero"/><path fill="#000000" d="M 47.113281 56.617188 L 28.109375 56.617188 C 27.953125 56.617188 27.800781 56.644531 27.65625 56.707031 C 27.511719 56.765625 27.382812 56.851562 27.269531 56.964844 C 27.160156 57.074219 27.074219 57.203125 27.011719 57.347656 C 26.953125 57.496094 26.921875 57.644531 26.921875 57.804688 C 26.921875 57.960938 26.953125 58.113281 27.011719 58.257812 C 27.074219 58.402344 27.160156 58.53125 27.269531 58.644531 C 27.382812 58.753906 27.511719 58.839844 27.65625 58.902344 C 27.800781 58.960938 27.953125 58.992188 28.109375 58.992188 L 47.113281 58.992188 C 47.273438 58.992188 47.421875 58.960938 47.570312 58.902344 C 47.714844 58.839844 47.84375 58.753906 47.953125 58.644531 C 48.066406 58.53125 48.152344 58.402344 48.210938 58.257812 C 48.273438 58.113281 48.300781 57.960938 48.300781 57.804688 C 48.300781 57.644531 48.273438 57.496094 48.210938 57.347656 C 48.152344 57.203125 48.066406 57.074219 47.953125 56.964844 C 47.84375 56.851562 47.714844 56.765625 47.570312 56.707031 C 47.421875 56.644531 47.273438 56.617188 47.113281 56.617188 Z M 47.113281 56.617188 " fill-opacity="1" fill-rule="nonzero"/><path fill="#000000" d="M 44.738281 62.554688 L 30.484375 62.554688 C 30.328125 62.554688 30.175781 62.585938 30.03125 62.644531 C 29.886719 62.707031 29.757812 62.792969 29.644531 62.902344 C 29.535156 63.015625 29.449219 63.140625 29.390625 63.289062 C 29.328125 63.433594 29.296875 63.585938 29.296875 63.742188 C 29.296875 63.898438 29.328125 64.050781 29.390625 64.195312 C 29.449219 64.34375 29.535156 64.472656 29.644531 64.582031 C 29.757812 64.695312 29.886719 64.78125 30.03125 64.839844 C 30.175781 64.898438 30.328125 64.929688 30.484375 64.929688 L 44.738281 64.929688 C 44.894531 64.929688 45.046875 64.898438 45.191406 64.839844 C 45.339844 64.78125 45.46875 64.695312 45.578125 64.582031 C 45.691406 64.472656 45.777344 64.34375 45.835938 64.195312 C 45.894531 64.050781 45.925781 63.898438 45.925781 63.742188 C 45.925781 63.585938 45.894531 63.433594 45.835938 63.289062 C 45.777344 63.140625 45.691406 63.015625 45.578125 62.902344 C 45.46875 62.792969 45.339844 62.707031 45.191406 62.644531 C 45.046875 62.585938 44.894531 62.554688 44.738281 62.554688 Z M 44.738281 62.554688 " fill-opacity="1" fill-rule="nonzero"/></svg>