<svg xmlns="http://www.w3.org/2000/svg" xmlns:xlink="http://www.w3.org/1999/xlink" width="100" zoomAndPan="magnify" viewBox="0 0 75 74.999997" height="100" preserveAspectRatio="xMidYMid meet" version="1.0"><defs><clipPath id="992c77e779"><path d="M 11.742188 2.414062 L 63.492188 2.414062 L 63.492188 72.914062 L 11.742188 72.914062 Z M 11.742188 2.414062 " clip-rule="nonzero"/></clipPath></defs><g clip-path="url(#992c77e779)"><path fill="#222222" d="M 27.726562 7.320312 C 27.722656 7.132812 27.785156 6.976562 27.914062 6.839844 C 28.046875 6.707031 28.203125 6.640625 28.386719 6.636719 L 34.925781 6.539062 C 35.109375 6.535156 35.269531 6.597656 35.402344 6.726562 C 35.535156 6.855469 35.605469 7.015625 35.609375 7.199219 C 35.609375 7.386719 35.546875 7.546875 35.417969 7.679688 C 35.289062 7.8125 35.128906 7.878906 34.945312 7.882812 L 28.410156 7.984375 L 28.398438 7.984375 C 28.214844 7.984375 28.058594 7.917969 27.925781 7.789062 C 27.796875 7.660156 27.730469 7.503906 27.726562 7.320312 Z M 29.769531 38.328125 C 29.769531 38.328125 29.769531 38.328125 29.769531 38.332031 C 29.769531 38.359375 29.765625 38.390625 29.757812 38.421875 C 29.722656 38.832031 29.828125 39.347656 30.195312 39.976562 C 33.449219 45.550781 39.652344 55.371094 41.554688 57.519531 C 41.679688 57.65625 41.738281 57.820312 41.726562 58.007812 C 41.714844 58.191406 41.640625 58.347656 41.503906 58.472656 C 41.363281 58.59375 41.199219 58.652344 41.011719 58.640625 C 40.828125 58.628906 40.671875 58.550781 40.550781 58.410156 C 39.800781 57.570312 38.480469 55.6875 36.945312 53.367188 C 35.976562 54.589844 35.539062 55.914062 35.640625 57.316406 C 35.835938 59.972656 37.9375 62.472656 39.839844 63.921875 C 41.515625 65.203125 43.3125 65.957031 45.050781 66.6875 C 47.640625 67.777344 50.316406 68.902344 52.636719 71.738281 C 52.757812 71.882812 52.804688 72.046875 52.785156 72.230469 C 52.769531 72.414062 52.6875 72.566406 52.542969 72.683594 C 52.398438 72.800781 52.234375 72.851562 52.050781 72.832031 C 51.867188 72.816406 51.714844 72.734375 51.597656 72.589844 C 49.488281 70.011719 47.078125 69 44.527344 67.929688 C 42.714844 67.167969 40.835938 66.378906 39.023438 64.992188 C 37.820312 64.078125 36.789062 62.996094 35.929688 61.75 C 35.496094 61.121094 35.136719 60.449219 34.847656 59.738281 C 33.371094 59.761719 31.640625 59.765625 29.574219 59.757812 C 28.359375 59.75 27.238281 59.765625 26.152344 59.777344 C 25.367188 59.785156 24.617188 59.796875 23.902344 59.796875 C 19.351562 59.796875 16.21875 59.4375 14.183594 56.535156 C 12.457031 54.078125 12.429688 51.425781 12.402344 48.621094 C 12.394531 48.070312 12.390625 47.507812 12.371094 46.941406 C 12.203125 42.042969 12.113281 33.835938 12.023438 25.898438 C 12.003906 23.933594 11.980469 21.96875 11.957031 20.042969 C 11.953125 19.582031 11.941406 19.105469 11.929688 18.601562 C 11.847656 14.839844 11.742188 10.15625 13.890625 7.0625 C 16.140625 3.820312 19.710938 3.207031 23.171875 2.851562 C 27.460938 2.414062 30.664062 2.441406 36.226562 2.671875 C 36.550781 2.6875 36.867188 2.699219 37.171875 2.710938 C 43.605469 2.972656 46.542969 3.089844 48.488281 6.535156 C 49.949219 9.132812 50.09375 13.125 50.035156 17.050781 C 49.984375 20.164062 50.023438 24.601562 50.0625 29.300781 C 50.105469 34.429688 50.148438 39.738281 50.074219 43.242188 C 50.066406 43.527344 50.0625 43.808594 50.058594 44.082031 C 50.222656 44.054688 50.394531 44.039062 50.5625 44.035156 C 51.871094 44.003906 53.238281 44.625 54.410156 45.78125 C 55.097656 46.464844 55.652344 47.242188 56.191406 47.996094 C 56.394531 48.277344 56.605469 48.570312 56.8125 48.847656 C 57.480469 49.730469 58.128906 50.636719 58.757812 51.507812 C 60.351562 53.730469 61.859375 55.828125 63.214844 56.949219 C 63.359375 57.066406 63.4375 57.21875 63.457031 57.40625 C 63.476562 57.589844 63.425781 57.753906 63.304688 57.898438 C 63.1875 58.042969 63.035156 58.121094 62.851562 58.140625 C 62.664062 58.15625 62.5 58.105469 62.359375 57.984375 C 60.867188 56.753906 59.3125 54.585938 57.664062 52.292969 C 57.042969 51.425781 56.398438 50.53125 55.742188 49.65625 C 55.519531 49.367188 55.304688 49.066406 55.097656 48.777344 C 54.570312 48.039062 54.070312 47.339844 53.464844 46.738281 C 52.9375 46.21875 51.863281 45.347656 50.59375 45.378906 C 50.292969 45.386719 50.007812 45.449219 49.734375 45.570312 C 49.691406 45.601562 49.644531 45.621094 49.59375 45.640625 C 49.011719 45.949219 48.632812 46.488281 48.589844 46.992188 C 48.574219 47.152344 48.515625 47.285156 48.40625 47.402344 C 48.296875 47.515625 48.164062 47.582031 48.003906 47.601562 C 47.847656 47.625 47.703125 47.59375 47.566406 47.511719 C 47.433594 47.425781 47.339844 47.3125 47.285156 47.164062 C 46.917969 46.136719 45.78125 45.421875 44.695312 45.535156 C 43.609375 45.652344 42.648438 46.589844 42.507812 47.671875 C 42.46875 47.957031 42.3125 48.140625 42.039062 48.226562 C 41.765625 48.3125 41.535156 48.246094 41.34375 48.035156 C 41.015625 47.679688 39.859375 46.199219 38.390625 44.332031 C 36.464844 41.875 34.070312 38.820312 32.925781 37.496094 C 32.277344 36.75 31.027344 36.738281 30.417969 37.222656 C 30.054688 37.503906 29.839844 37.871094 29.769531 38.328125 Z M 34.617188 54.824219 C 33.800781 54.839844 32.984375 54.855469 32.167969 54.871094 C 28.820312 54.929688 25.363281 54.996094 21.644531 55.023438 C 21.542969 55.023438 21.433594 55.023438 21.320312 55.023438 C 20.3125 55.023438 19.050781 54.960938 18.046875 54.242188 C 16.410156 53.066406 16.308594 50.894531 16.339844 48.949219 C 16.402344 44.976562 16.34375 40.351562 16.277344 35.453125 C 16.1875 28.457031 16.09375 21.21875 16.335938 14.703125 C 16.394531 13.097656 16.714844 11.941406 17.308594 11.171875 C 18.238281 9.96875 19.527344 9.933594 20.558594 9.902344 C 20.683594 9.898438 20.804688 9.898438 20.925781 9.890625 C 20.933594 9.890625 20.941406 9.890625 20.953125 9.890625 C 23.414062 9.882812 26.523438 9.839844 29.535156 9.796875 C 34.519531 9.726562 39.226562 9.65625 41.34375 9.738281 C 42.136719 9.769531 43.128906 9.804688 43.972656 10.3125 C 45.648438 11.3125 45.871094 13.40625 45.867188 15.320312 C 45.855469 21 45.90625 27.34375 45.957031 33.472656 C 45.988281 37.078125 46.019531 40.792969 46.035156 44.351562 C 46.722656 44.566406 47.308594 44.933594 47.792969 45.464844 C 48.042969 45.125 48.347656 44.839844 48.703125 44.613281 C 48.710938 44.164062 48.71875 43.695312 48.730469 43.214844 C 48.804688 39.730469 48.761719 34.433594 48.71875 29.308594 C 48.675781 24.605469 48.640625 20.160156 48.6875 17.03125 C 48.746094 13.292969 48.621094 9.515625 47.316406 7.195312 C 45.808594 4.523438 43.8125 4.328125 37.117188 4.054688 C 36.8125 4.042969 36.496094 4.03125 36.167969 4.015625 C 30.675781 3.789062 27.515625 3.761719 23.308594 4.1875 C 20.027344 4.523438 16.921875 5.054688 14.996094 7.832031 C 13.097656 10.5625 13.191406 14.816406 13.273438 18.570312 C 13.285156 19.078125 13.296875 19.558594 13.300781 20.027344 C 13.324219 21.953125 13.347656 23.917969 13.367188 25.886719 C 13.457031 33.8125 13.546875 42.011719 13.714844 46.898438 C 13.734375 47.476562 13.742188 48.050781 13.746094 48.605469 C 13.773438 51.308594 13.796875 53.644531 15.285156 55.761719 C 17.230469 58.539062 20.582031 58.5 26.136719 58.433594 C 27.226562 58.417969 28.351562 58.40625 29.582031 58.410156 C 31.460938 58.421875 33.058594 58.417969 34.441406 58.398438 C 34.371094 58.074219 34.324219 57.746094 34.300781 57.414062 C 34.230469 56.53125 34.335938 55.667969 34.617188 54.824219 Z M 29.035156 40.652344 C 28.714844 40.125 28.511719 39.558594 28.433594 38.945312 C 27.980469 38.925781 27.496094 38.898438 26.945312 38.863281 C 24.730469 38.726562 22.253906 38.308594 20.695312 36.242188 C 19.835938 35.105469 19.488281 33.636719 19.714844 32.105469 C 19.835938 31.261719 20.113281 30.472656 20.550781 29.738281 C 20.984375 29.003906 21.542969 28.378906 22.226562 27.871094 C 24.589844 26.140625 27.175781 25.78125 30.332031 25.773438 C 30.617188 25.773438 30.90625 25.773438 31.195312 25.769531 C 33.546875 25.753906 35.976562 25.734375 38.257812 26.507812 C 40.761719 27.359375 42.5 29.5625 42.585938 31.988281 C 42.664062 34.328125 41.5625 36.429688 39.710938 37.472656 C 38.402344 38.210938 36.96875 38.558594 35.691406 38.746094 C 36.851562 40.1875 38.242188 41.960938 39.449219 43.5 C 40.257812 44.53125 41.035156 45.527344 41.59375 46.222656 C 42.183594 45.132812 43.300781 44.332031 44.554688 44.199219 C 44.597656 44.195312 44.644531 44.191406 44.691406 44.191406 C 44.671875 40.683594 44.640625 37.03125 44.613281 33.484375 C 44.5625 27.351562 44.507812 21.003906 44.519531 15.320312 C 44.523438 13.78125 44.378906 12.121094 43.285156 11.46875 C 42.734375 11.136719 41.96875 11.109375 41.289062 11.082031 C 39.210938 11.003906 34.300781 11.074219 29.554688 11.140625 C 26.546875 11.183594 23.4375 11.226562 20.96875 11.234375 C 20.847656 11.242188 20.722656 11.246094 20.597656 11.25 C 19.695312 11.273438 18.914062 11.292969 18.375 11.992188 C 17.960938 12.527344 17.726562 13.457031 17.679688 14.75 C 17.441406 21.234375 17.535156 28.453125 17.625 35.4375 C 17.6875 40.34375 17.746094 44.976562 17.683594 48.96875 C 17.65625 50.648438 17.722656 52.351562 18.832031 53.148438 C 19.53125 53.652344 20.515625 53.6875 21.636719 53.679688 C 25.34375 53.652344 28.800781 53.585938 32.144531 53.523438 C 33.171875 53.503906 34.203125 53.488281 35.242188 53.46875 C 35.511719 53.015625 35.824219 52.585938 36.171875 52.191406 C 33.710938 48.410156 30.882812 43.820312 29.035156 40.652344 Z M 31.738281 35.558594 C 32.621094 35.605469 33.355469 35.957031 33.941406 36.617188 C 34.152344 36.863281 34.410156 37.167969 34.691406 37.511719 C 36.027344 37.375 37.648438 37.09375 39.050781 36.300781 C 40.460938 35.503906 41.300781 33.867188 41.238281 32.03125 C 41.175781 30.164062 39.804688 28.453125 37.828125 27.78125 C 35.757812 27.082031 33.445312 27.097656 31.207031 27.117188 C 30.914062 27.117188 30.621094 27.121094 30.332031 27.121094 C 27.441406 27.128906 25.09375 27.441406 23.023438 28.957031 C 21.980469 29.714844 21.242188 30.96875 21.046875 32.300781 C 20.875 33.472656 21.128906 34.585938 21.769531 35.433594 C 23 37.0625 25.117188 37.402344 27.027344 37.519531 C 27.601562 37.554688 28.101562 37.582031 28.570312 37.605469 C 28.765625 37.03125 29.101562 36.554688 29.578125 36.175781 C 30.132812 35.730469 30.921875 35.503906 31.738281 35.558594 Z M 28.519531 32.199219 C 27.972656 33.183594 26.832031 33.683594 25.394531 33.589844 L 25.269531 35.117188 C 25.253906 35.289062 25.183594 35.4375 25.054688 35.554688 C 24.925781 35.671875 24.773438 35.730469 24.597656 35.734375 C 24.582031 35.734375 24.5625 35.730469 24.542969 35.730469 C 24.359375 35.714844 24.207031 35.636719 24.085938 35.496094 C 23.964844 35.351562 23.914062 35.191406 23.929688 35.003906 L 24.335938 30.0625 C 24.347656 29.914062 24.40625 29.78125 24.507812 29.667969 C 24.609375 29.558594 24.734375 29.488281 24.882812 29.457031 C 25.808594 29.28125 26.582031 29.277344 27.320312 29.441406 C 27.902344 29.574219 28.3125 29.914062 28.550781 30.464844 C 28.808594 31.03125 28.792969 31.695312 28.519531 32.199219 Z M 27.324219 31.015625 C 27.273438 30.875 27.171875 30.789062 27.027344 30.753906 C 26.566406 30.65625 26.101562 30.640625 25.632812 30.703125 L 25.503906 32.246094 C 26.253906 32.289062 27.023438 32.121094 27.339844 31.546875 C 27.414062 31.367188 27.410156 31.191406 27.324219 31.015625 Z M 31.1875 34.328125 C 30.890625 34.332031 30.585938 34.335938 30.292969 34.332031 C 30.191406 34.667969 30.097656 35 30.007812 35.316406 C 29.957031 35.496094 29.851562 35.632812 29.6875 35.722656 C 29.527344 35.816406 29.355469 35.835938 29.175781 35.785156 C 28.996094 35.734375 28.863281 35.625 28.769531 35.464844 C 28.679688 35.300781 28.660156 35.128906 28.710938 34.949219 C 28.894531 34.304688 29.105469 33.597656 29.3125 32.910156 C 29.515625 32.234375 29.726562 31.53125 29.90625 30.894531 C 29.976562 30.589844 30.101562 30.308594 30.289062 30.058594 C 30.613281 29.652344 31.140625 29.476562 31.59375 29.621094 C 32.21875 29.820312 32.402344 30.46875 32.472656 30.714844 C 32.660156 31.375 32.878906 32.101562 33.085938 32.804688 C 33.300781 33.511719 33.519531 34.246094 33.707031 34.914062 C 33.757812 35.09375 33.738281 35.261719 33.648438 35.425781 C 33.558594 35.585938 33.421875 35.695312 33.246094 35.746094 C 33.066406 35.796875 32.894531 35.777344 32.734375 35.683594 C 32.570312 35.59375 32.464844 35.460938 32.414062 35.28125 C 32.328125 34.972656 32.234375 34.652344 32.136719 34.324219 C 31.832031 34.320312 31.507812 34.324219 31.1875 34.328125 Z M 31.734375 32.980469 C 31.558594 32.382812 31.375 31.777344 31.214844 31.207031 L 31.199219 31.257812 C 31.042969 31.808594 30.867188 32.402344 30.691406 32.988281 C 30.851562 32.988281 31.015625 32.984375 31.175781 32.984375 C 31.359375 32.980469 31.546875 32.980469 31.734375 32.980469 Z M 34.941406 31.921875 C 35.199219 32.253906 35.46875 32.597656 35.765625 32.96875 C 35.789062 33.425781 35.789062 33.773438 35.792969 34.171875 C 35.796875 34.453125 35.796875 34.746094 35.804688 35.109375 C 35.8125 35.289062 35.878906 35.445312 36.007812 35.574219 C 36.140625 35.699219 36.296875 35.761719 36.476562 35.761719 L 36.496094 35.761719 C 36.683594 35.757812 36.839844 35.6875 36.964844 35.554688 C 37.09375 35.417969 37.15625 35.257812 37.152344 35.074219 C 37.140625 34.722656 37.140625 34.4375 37.136719 34.164062 C 37.136719 33.808594 37.132812 33.46875 37.113281 33.054688 C 37.40625 32.675781 37.691406 32.332031 37.996094 31.972656 C 38.332031 31.574219 38.679688 31.160156 39.023438 30.699219 C 39.136719 30.550781 39.179688 30.382812 39.152344 30.199219 C 39.125 30.015625 39.039062 29.867188 38.890625 29.757812 C 38.742188 29.644531 38.574219 29.601562 38.390625 29.628906 C 38.207031 29.65625 38.0625 29.742188 37.949219 29.890625 C 37.625 30.324219 37.304688 30.703125 36.96875 31.105469 C 36.804688 31.296875 36.640625 31.496094 36.472656 31.699219 C 36.3125 31.492188 36.152344 31.289062 36 31.09375 C 35.683594 30.691406 35.359375 30.273438 34.988281 29.8125 C 34.871094 29.667969 34.71875 29.582031 34.535156 29.5625 C 34.351562 29.542969 34.1875 29.59375 34.042969 29.707031 C 33.898438 29.824219 33.816406 29.976562 33.792969 30.160156 C 33.773438 30.34375 33.824219 30.507812 33.941406 30.65625 C 34.304688 31.105469 34.628906 31.519531 34.941406 31.921875 Z M 34.941406 31.921875 " fill-opacity="1" fill-rule="nonzero"/></g></svg>