<svg xmlns="http://www.w3.org/2000/svg" xmlns:xlink="http://www.w3.org/1999/xlink" width="100" zoomAndPan="magnify" viewBox="0 0 75 74.999997" height="100" preserveAspectRatio="xMidYMid meet" version="1.0"><defs><clipPath id="e44c9a86be"><path d="M 4.421875 3.042969 L 70.421875 3.042969 L 70.421875 72.042969 L 4.421875 72.042969 Z M 4.421875 3.042969 " clip-rule="nonzero"/></clipPath></defs><path fill="#000000" d="M 23.953125 35.515625 L 31.363281 35.515625 C 32.105469 35.515625 32.707031 34.910156 32.707031 34.164062 C 32.707031 33.417969 32.105469 32.8125 31.363281 32.8125 L 23.953125 32.8125 C 23.210938 32.8125 22.605469 33.417969 22.605469 34.164062 C 22.605469 34.910156 23.210938 35.515625 23.953125 35.515625 Z M 23.953125 35.515625 " fill-opacity="1" fill-rule="nonzero"/><path fill="#000000" d="M 19.914062 34.164062 C 19.914062 33.417969 19.308594 32.8125 18.566406 32.8125 L 11.15625 32.8125 C 10.414062 32.8125 9.808594 33.417969 9.808594 34.164062 C 9.808594 34.910156 10.414062 35.515625 11.15625 35.515625 L 18.566406 35.515625 C 19.308594 35.515625 19.914062 34.910156 19.914062 34.164062 Z M 19.914062 34.164062 " fill-opacity="1" fill-rule="nonzero"/><g clip-path="url(#e44c9a86be)"><path fill="#000000" d="M 70.421875 16.589844 C 70.421875 9.136719 64.378906 3.070312 56.953125 3.070312 C 56.199219 3.070312 24.515625 3.070312 23.28125 3.070312 C 20.308594 3.070312 17.890625 5.496094 17.890625 8.480469 L 17.890625 21.996094 L 5.769531 21.996094 C 5.027344 21.996094 4.421875 22.601562 4.421875 23.347656 L 4.421875 39.570312 C 4.421875 40.320312 5.027344 40.925781 5.769531 40.925781 L 17.890625 40.925781 L 17.890625 66.609375 C 17.890625 69.589844 20.308594 72.015625 23.28125 72.015625 L 54.257812 72.015625 C 57.230469 72.015625 59.648438 69.589844 59.648438 66.609375 L 59.648438 29.835938 C 65.789062 28.582031 70.421875 23.117188 70.421875 16.589844 Z M 23.28125 5.773438 L 48.878906 5.773438 C 46.292969 7.726562 44.425781 10.589844 43.753906 13.886719 L 20.585938 13.886719 L 20.585938 8.480469 C 20.585938 6.988281 21.792969 5.773438 23.28125 5.773438 Z M 35.402344 24.703125 L 35.402344 27.40625 L 7.117188 27.40625 L 7.117188 24.703125 Z M 7.117188 30.109375 L 35.402344 30.109375 L 35.402344 38.21875 L 7.117188 38.21875 Z M 54.257812 69.3125 L 23.28125 69.3125 C 21.792969 69.3125 20.585938 68.101562 20.585938 66.609375 L 20.585938 61.203125 L 56.953125 61.203125 L 56.953125 66.609375 C 56.953125 68.101562 55.746094 69.3125 54.257812 69.3125 Z M 56.953125 58.5 L 20.585938 58.5 L 20.585938 40.925781 L 36.75 40.925781 C 37.492188 40.925781 38.097656 40.320312 38.097656 39.570312 L 38.097656 23.347656 C 38.097656 22.601562 37.492188 21.996094 36.75 21.996094 L 20.585938 21.996094 L 20.585938 16.589844 L 43.484375 16.589844 C 43.484375 24.042969 49.527344 30.109375 56.953125 30.109375 Z M 56.953125 27.40625 C 51.011719 27.40625 46.175781 22.554688 46.175781 16.589844 C 46.175781 10.625 51.011719 5.773438 56.953125 5.773438 C 62.894531 5.773438 67.730469 10.625 67.730469 16.589844 C 67.730469 22.554688 62.894531 27.40625 56.953125 27.40625 Z M 56.953125 27.40625 " fill-opacity="1" fill-rule="nonzero"/></g><path fill="#000000" d="M 61.050781 12.085938 L 54.933594 18.226562 L 52.855469 16.140625 C 52.328125 15.613281 51.476562 15.613281 50.949219 16.140625 C 50.421875 16.667969 50.421875 17.523438 50.949219 18.054688 L 53.980469 21.09375 C 54.507812 21.621094 55.359375 21.621094 55.886719 21.09375 L 62.957031 13.996094 C 63.484375 13.46875 63.484375 12.613281 62.957031 12.085938 C 62.429688 11.558594 61.578125 11.558594 61.050781 12.085938 Z M 61.050781 12.085938 " fill-opacity="1" fill-rule="nonzero"/><path fill="#000000" d="M 42.136719 63.90625 L 35.402344 63.90625 C 34.660156 63.90625 34.054688 64.511719 34.054688 65.257812 C 34.054688 66.003906 34.660156 66.609375 35.402344 66.609375 L 42.136719 66.609375 C 42.878906 66.609375 43.484375 66.003906 43.484375 65.257812 C 43.484375 64.511719 42.878906 63.90625 42.136719 63.90625 Z M 42.136719 63.90625 " fill-opacity="1" fill-rule="nonzero"/><path fill="#000000" d="M 34.054688 11.183594 L 40.789062 11.183594 C 41.535156 11.183594 42.136719 10.578125 42.136719 9.832031 C 42.136719 9.085938 41.535156 8.480469 40.789062 8.480469 L 34.054688 8.480469 C 33.3125 8.480469 32.707031 9.085938 32.707031 9.832031 C 32.707031 10.578125 33.3125 11.183594 34.054688 11.183594 Z M 34.054688 11.183594 " fill-opacity="1" fill-rule="nonzero"/></svg>