<svg xmlns="http://www.w3.org/2000/svg" xmlns:xlink="http://www.w3.org/1999/xlink" width="100" zoomAndPan="magnify" viewBox="0 0 75 74.999997" height="100" preserveAspectRatio="xMidYMid meet" version="1.0"><defs><clipPath id="fdb7343e25"><path d="M 4.839844 4.949219 L 70 4.949219 L 70 70.199219 L 4.839844 70.199219 Z M 4.839844 4.949219 " clip-rule="nonzero"/></clipPath></defs><g clip-path="url(#fdb7343e25)"><path fill="#000000" d="M 69.769531 33.53125 C 69.457031 32.5625 68.566406 31.914062 67.550781 31.914062 C 67.550781 31.914062 67.546875 31.914062 67.546875 31.914062 L 62.617188 31.921875 C 62.503906 31.921875 62.425781 31.867188 62.390625 31.757812 L 60.878906 27.050781 C 60.566406 26.082031 59.671875 25.429688 58.65625 25.429688 C 58.265625 25.429688 57.890625 25.527344 57.5625 25.703125 C 55.816406 23.019531 53.539062 20.691406 50.894531 18.886719 L 50.894531 16.828125 C 50.894531 16.390625 50.628906 16 50.222656 15.84375 L 48.65625 15.238281 C 48.414062 14.402344 48.082031 13.597656 47.660156 12.835938 L 48.34375 11.292969 C 48.519531 10.894531 48.433594 10.429688 48.125 10.121094 L 45.738281 7.726562 C 45.433594 7.417969 44.96875 7.332031 44.570312 7.507812 L 43.035156 8.191406 C 42.273438 7.773438 41.472656 7.4375 40.636719 7.195312 L 40.035156 5.625 C 39.878906 5.21875 39.488281 4.949219 39.054688 4.949219 L 35.679688 4.949219 C 35.242188 4.949219 34.855469 5.21875 34.699219 5.625 L 34.09375 7.195312 C 33.261719 7.4375 32.460938 7.773438 31.699219 8.191406 L 30.164062 7.507812 C 29.765625 7.332031 29.300781 7.417969 28.996094 7.726562 L 26.605469 10.121094 C 26.300781 10.429688 26.214844 10.894531 26.390625 11.292969 L 27.070312 12.835938 C 26.652344 13.597656 26.320312 14.402344 26.078125 15.238281 L 24.511719 15.84375 C 24.105469 16 23.839844 16.390625 23.839844 16.828125 L 23.839844 18.886719 C 21.855469 20.238281 20.097656 21.867188 18.59375 23.742188 C 17.390625 23.214844 16.066406 22.921875 14.671875 22.921875 C 9.253906 22.921875 4.847656 27.34375 4.847656 32.777344 C 4.847656 35.335938 5.648438 36.714844 6.425781 38.042969 C 7.285156 39.515625 8.167969 41.035156 8.382812 44.621094 L 8.382812 46.015625 C 8.382812 47.007812 8.96875 47.867188 9.808594 48.261719 L 9.808594 48.878906 C 9.808594 49.886719 10.410156 50.753906 11.273438 51.140625 L 11.273438 51.742188 C 11.273438 53.109375 12.382812 54.222656 13.75 54.222656 L 15.597656 54.222656 C 16.527344 54.222656 17.339844 53.707031 17.761719 52.945312 C 20.1875 56.347656 23.457031 59.070312 27.25 60.832031 C 25.183594 63 23.796875 65.839844 23.457031 69.035156 C 23.425781 69.332031 23.523438 69.628906 23.722656 69.851562 C 23.917969 70.070312 24.203125 70.199219 24.5 70.199219 L 50.234375 70.199219 C 50.53125 70.199219 50.8125 70.070312 51.011719 69.851562 C 51.210938 69.628906 51.308594 69.332031 51.277344 69.035156 C 50.933594 65.839844 49.550781 62.996094 47.480469 60.832031 C 50.65625 59.355469 53.496094 57.1875 55.769531 54.492188 C 58.078125 51.753906 59.75 48.527344 60.660156 45.082031 L 62.777344 46.632812 C 63.597656 47.234375 64.703125 47.234375 65.523438 46.636719 C 66.347656 46.035156 66.6875 44.984375 66.371094 44.015625 L 64.839844 39.3125 C 64.804688 39.207031 64.832031 39.113281 64.925781 39.050781 L 68.917969 36.148438 C 69.742188 35.550781 70.082031 34.5 69.769531 33.53125 Z M 25.9375 17.550781 L 27.332031 17.011719 C 27.65625 16.886719 27.894531 16.609375 27.976562 16.273438 C 28.210938 15.273438 28.605469 14.324219 29.140625 13.453125 C 29.324219 13.15625 29.347656 12.789062 29.207031 12.472656 L 28.597656 11.101562 L 29.96875 9.726562 L 31.335938 10.335938 C 31.652344 10.476562 32.019531 10.453125 32.3125 10.269531 C 33.1875 9.730469 34.132812 9.335938 35.125 9.101562 C 35.460938 9.019531 35.738281 8.777344 35.859375 8.453125 L 36.398438 7.054688 L 38.335938 7.054688 L 38.871094 8.453125 C 38.996094 8.777344 39.273438 9.019531 39.609375 9.101562 C 40.601562 9.335938 41.546875 9.730469 42.421875 10.269531 C 42.714844 10.453125 43.082031 10.476562 43.394531 10.335938 L 44.765625 9.726562 L 46.132812 11.101562 L 45.527344 12.472656 C 45.386719 12.789062 45.410156 13.15625 45.59375 13.449219 C 46.128906 14.324219 46.519531 15.273438 46.757812 16.273438 C 46.839844 16.609375 47.078125 16.886719 47.402344 17.011719 L 48.796875 17.550781 L 48.796875 19.492188 L 47.402344 20.03125 C 47.078125 20.15625 46.835938 20.433594 46.757812 20.769531 C 46.519531 21.765625 46.128906 22.714844 45.59375 23.589844 C 45.410156 23.886719 45.386719 24.253906 45.527344 24.570312 L 46.132812 25.941406 L 44.765625 27.316406 L 43.398438 26.707031 C 43.082031 26.566406 42.714844 26.589844 42.421875 26.773438 C 41.550781 27.3125 40.601562 27.707031 39.609375 27.941406 C 39.273438 28.023438 38.996094 28.265625 38.871094 28.589844 L 38.335938 29.988281 L 36.398438 29.988281 L 35.859375 28.589844 C 35.738281 28.265625 35.460938 28.023438 35.125 27.941406 C 34.132812 27.703125 33.183594 27.3125 32.3125 26.773438 C 32.019531 26.589844 31.652344 26.566406 31.335938 26.707031 L 29.96875 27.316406 L 28.597656 25.941406 L 29.207031 24.570312 C 29.347656 24.253906 29.324219 23.886719 29.140625 23.589844 C 28.605469 22.71875 28.210938 21.769531 27.976562 20.769531 C 27.894531 20.433594 27.65625 20.15625 27.332031 20.03125 L 25.9375 19.492188 Z M 6.945312 32.777344 C 6.945312 28.503906 10.414062 25.023438 14.671875 25.023438 C 18.933594 25.023438 22.402344 28.503906 22.402344 32.777344 C 22.402344 34.765625 21.832031 35.742188 21.109375 36.980469 C 20.292969 38.382812 19.292969 40.097656 18.945312 43.53125 L 17.238281 43.53125 L 17.238281 35.941406 L 18.230469 35.941406 C 19.933594 35.941406 21.316406 34.550781 21.316406 32.84375 C 21.316406 31.132812 19.933594 29.746094 18.230469 29.746094 C 16.527344 29.746094 15.140625 31.132812 15.140625 32.84375 L 15.140625 33.835938 L 14.207031 33.835938 L 14.207031 32.84375 C 14.207031 31.132812 12.820312 29.746094 11.117188 29.746094 C 9.414062 29.746094 8.03125 31.132812 8.03125 32.84375 C 8.03125 34.550781 9.414062 35.941406 11.117188 35.941406 L 12.109375 35.941406 L 12.109375 43.53125 L 10.402344 43.53125 C 10.054688 40.097656 9.054688 38.382812 8.238281 36.980469 C 7.515625 35.742188 6.945312 34.765625 6.945312 32.777344 Z M 12.285156 49.257812 C 12.082031 49.257812 11.90625 49.082031 11.90625 48.878906 L 11.90625 48.5 L 17.4375 48.5 L 17.4375 48.878906 C 17.4375 49.082031 17.265625 49.257812 17.0625 49.257812 Z M 18.867188 46.015625 C 18.867188 46.222656 18.691406 46.394531 18.488281 46.394531 L 10.859375 46.394531 C 10.65625 46.394531 10.480469 46.222656 10.480469 46.015625 L 10.480469 45.636719 L 18.867188 45.636719 Z M 12.109375 33.835938 L 11.117188 33.835938 C 10.570312 33.835938 10.128906 33.390625 10.128906 32.84375 C 10.128906 32.296875 10.570312 31.847656 11.117188 31.847656 C 11.664062 31.847656 12.109375 32.296875 12.109375 32.84375 Z M 15.140625 43.53125 L 14.207031 43.53125 L 14.207031 35.941406 L 15.140625 35.941406 Z M 17.238281 33.835938 L 17.238281 32.84375 C 17.238281 32.296875 17.683594 31.847656 18.230469 31.847656 C 18.773438 31.847656 19.21875 32.296875 19.21875 32.84375 C 19.21875 33.390625 18.773438 33.835938 18.230469 33.835938 Z M 15.597656 52.117188 L 13.75 52.117188 C 13.542969 52.117188 13.371094 51.945312 13.371094 51.742188 L 13.371094 51.363281 L 15.976562 51.363281 L 15.976562 51.742188 C 15.976562 51.945312 15.804688 52.117188 15.597656 52.117188 Z M 25.726562 68.09375 C 26.855469 62.613281 31.671875 58.613281 37.367188 58.613281 C 43.0625 58.613281 47.875 62.613281 49.007812 68.09375 Z M 31.875 50.996094 C 31.875 47.957031 34.335938 45.484375 37.367188 45.484375 C 40.394531 45.484375 42.859375 47.957031 42.859375 50.996094 C 42.859375 54.035156 40.394531 56.507812 37.367188 56.507812 C 34.335938 56.507812 31.875 54.035156 31.875 50.996094 Z M 45.75 59.292969 C 44.550781 58.394531 43.203125 57.6875 41.75 57.210938 C 43.691406 55.828125 44.957031 53.558594 44.957031 50.996094 C 44.957031 46.796875 41.554688 43.382812 37.367188 43.382812 C 33.179688 43.382812 29.773438 46.796875 29.773438 50.996094 C 29.773438 53.558594 31.042969 55.828125 32.984375 57.210938 C 31.53125 57.6875 30.183594 58.394531 28.980469 59.296875 C 24.765625 57.550781 21.199219 54.535156 18.769531 50.671875 C 19.242188 50.222656 19.535156 49.585938 19.535156 48.878906 L 19.535156 48.261719 C 20.378906 47.867188 20.964844 47.007812 20.964844 46.015625 L 20.964844 44.621094 C 21.179688 41.035156 22.0625 39.515625 22.921875 38.042969 C 23.695312 36.714844 24.5 35.335938 24.5 32.777344 C 24.5 29.503906 22.898438 26.59375 20.4375 24.800781 C 21.585938 23.414062 22.890625 22.175781 24.339844 21.109375 C 24.394531 21.144531 24.449219 21.175781 24.511719 21.199219 L 26.078125 21.804688 C 26.320312 22.640625 26.652344 23.445312 27.070312 24.207031 L 26.390625 25.75 C 26.214844 26.148438 26.300781 26.613281 26.605469 26.921875 L 28.996094 29.316406 C 29.300781 29.625 29.765625 29.710938 30.164062 29.535156 L 31.699219 28.847656 C 32.460938 29.269531 33.261719 29.605469 34.09375 29.847656 L 34.699219 31.417969 C 34.855469 31.824219 35.242188 32.09375 35.679688 32.09375 L 39.054688 32.09375 C 39.488281 32.09375 39.878906 31.824219 40.035156 31.417969 L 40.636719 29.847656 C 41.472656 29.605469 42.273438 29.269531 43.035156 28.851562 L 44.570312 29.535156 C 44.96875 29.710938 45.429688 29.625 45.738281 29.316406 L 48.128906 26.921875 C 48.433594 26.613281 48.519531 26.148438 48.34375 25.75 L 47.660156 24.207031 C 48.082031 23.445312 48.414062 22.640625 48.65625 21.804688 L 50.222656 21.199219 C 50.285156 21.175781 50.339844 21.144531 50.394531 21.109375 C 52.753906 22.855469 54.761719 25.070312 56.261719 27.59375 L 54.921875 31.757812 C 54.886719 31.867188 54.8125 31.921875 54.699219 31.921875 L 49.769531 31.914062 C 49.765625 31.914062 49.765625 31.914062 49.761719 31.914062 C 48.75 31.914062 47.859375 32.5625 47.542969 33.53125 C 47.230469 34.5 47.574219 35.550781 48.394531 36.148438 L 52.390625 39.050781 C 52.480469 39.117188 52.511719 39.207031 52.476562 39.3125 L 50.941406 44.015625 C 50.628906 44.984375 50.96875 46.039062 51.789062 46.636719 C 52.199219 46.933594 52.679688 47.085938 53.160156 47.085938 C 53.640625 47.085938 54.125 46.933594 54.535156 46.632812 L 58.519531 43.71875 C 58.609375 43.652344 58.703125 43.652344 58.796875 43.71875 L 58.828125 43.742188 C 57.269531 50.695312 52.332031 56.566406 45.75 59.292969 Z M 67.6875 34.445312 L 63.695312 37.34375 C 62.871094 37.941406 62.527344 38.996094 62.84375 39.96875 L 64.378906 44.667969 C 64.414062 44.777344 64.382812 44.867188 64.292969 44.933594 C 64.203125 45 64.105469 45 64.015625 44.933594 L 60.03125 42.019531 C 59.210938 41.417969 58.105469 41.414062 57.28125 42.019531 L 53.300781 44.933594 C 53.207031 45 53.113281 45 53.023438 44.933594 C 52.933594 44.867188 52.902344 44.777344 52.9375 44.667969 L 54.46875 39.96875 C 54.785156 38.996094 54.445312 37.941406 53.621094 37.34375 L 49.625 34.445312 C 49.535156 34.378906 49.503906 34.289062 49.539062 34.179688 C 49.574219 34.074219 49.652344 34.015625 49.765625 34.015625 L 54.695312 34.027344 C 54.695312 34.027344 54.699219 34.027344 54.699219 34.027344 C 55.714844 34.027344 56.605469 33.375 56.917969 32.40625 L 58.433594 27.699219 C 58.46875 27.589844 58.546875 27.535156 58.65625 27.535156 C 58.769531 27.535156 58.847656 27.589844 58.882812 27.699219 L 60.394531 32.40625 C 60.707031 33.375 61.601562 34.027344 62.617188 34.027344 C 62.617188 34.027344 62.621094 34.027344 62.621094 34.027344 L 67.550781 34.015625 C 67.664062 34.015625 67.742188 34.074219 67.773438 34.179688 C 67.808594 34.289062 67.78125 34.378906 67.6875 34.445312 Z M 37.367188 26.386719 C 41.691406 26.386719 45.207031 22.859375 45.207031 18.519531 C 45.207031 14.183594 41.691406 10.65625 37.367188 10.65625 C 33.042969 10.65625 29.527344 14.183594 29.527344 18.519531 C 29.527344 22.859375 33.042969 26.386719 37.367188 26.386719 Z M 37.367188 12.761719 C 40.535156 12.761719 43.109375 15.34375 43.109375 18.519531 C 43.109375 21.699219 40.535156 24.28125 37.367188 24.28125 C 34.199219 24.28125 31.625 21.699219 31.625 18.519531 C 31.625 15.34375 34.199219 12.761719 37.367188 12.761719 Z M 33.433594 19.457031 C 33.023438 19.046875 33.023438 18.378906 33.433594 17.96875 C 33.839844 17.558594 34.507812 17.558594 34.914062 17.96875 L 36.070312 19.128906 L 39.855469 15.683594 C 40.285156 15.292969 40.945312 15.324219 41.335938 15.753906 C 41.726562 16.183594 41.695312 16.851562 41.265625 17.242188 L 36.742188 21.359375 C 36.539062 21.542969 36.289062 21.632812 36.035156 21.632812 C 35.765625 21.632812 35.5 21.53125 35.292969 21.324219 Z M 33.433594 19.457031 " fill-opacity="1" fill-rule="nonzero"/></g></svg>