<svg xmlns="http://www.w3.org/2000/svg" xmlns:xlink="http://www.w3.org/1999/xlink" width="100" zoomAndPan="magnify" viewBox="0 0 75 74.999997" height="100" preserveAspectRatio="xMidYMid meet" version="1.0"><defs><clipPath id="a90fea9a17"><path d="M 10.574219 1.953125 L 64.574219 1.953125 L 64.574219 73.203125 L 10.574219 73.203125 Z M 10.574219 1.953125 " clip-rule="nonzero"/></clipPath></defs><g clip-path="url(#a90fea9a17)"><path fill="#000000" d="M 24.269531 69.972656 L 28.957031 72.980469 C 29.125 73.09375 29.347656 73.148438 29.570312 73.148438 C 29.792969 73.148438 30.015625 73.09375 30.183594 72.980469 L 34.3125 70.304688 L 38.4375 72.980469 C 38.828125 73.203125 39.277344 73.203125 39.667969 72.980469 L 43.792969 70.304688 L 47.921875 72.980469 C 48.3125 73.203125 48.757812 73.203125 49.148438 72.980469 L 53.277344 70.304688 L 57.402344 72.980469 C 57.792969 73.203125 58.242188 73.203125 58.632812 72.980469 L 63.371094 69.972656 C 63.984375 69.972656 64.488281 69.46875 64.488281 68.855469 L 64.488281 10.039062 C 64.488281 5.578125 60.972656 1.953125 56.679688 1.953125 C 56.566406 1.953125 56.511719 1.953125 56.398438 2.011719 C 56.289062 1.953125 56.234375 1.953125 56.121094 1.953125 L 18.136719 1.953125 C 18.136719 1.953125 18.078125 1.953125 18.078125 1.953125 C 18.078125 1.953125 18.023438 1.953125 18.023438 1.953125 C 18.023438 1.953125 17.96875 1.953125 17.96875 1.953125 C 15.679688 2.289062 13.785156 3.347656 12.5 5.019531 C 11.105469 6.917969 10.660156 9.480469 11.164062 12.4375 C 11.21875 12.714844 11.328125 12.882812 11.496094 13.050781 C 11.664062 13.382812 12.054688 13.605469 12.445312 13.605469 L 23.15625 13.605469 L 23.15625 68.800781 C 23.15625 69.46875 23.65625 69.972656 24.269531 69.972656 Z M 62.257812 10.039062 L 62.257812 68.074219 C 62.257812 68.074219 62.203125 68.074219 62.203125 68.074219 L 58.074219 70.75 L 53.945312 68.074219 C 53.554688 67.851562 53.109375 67.851562 52.71875 68.074219 L 48.589844 70.75 L 44.464844 68.074219 C 44.074219 67.851562 43.625 67.851562 43.234375 68.074219 L 39.109375 70.75 L 34.980469 68.074219 C 34.589844 67.851562 34.144531 67.851562 33.753906 68.074219 L 29.625 70.75 L 25.496094 68.074219 C 25.496094 68.074219 25.441406 68.074219 25.441406 68.074219 L 25.441406 10.039062 C 25.386719 7.695312 24.492188 5.691406 22.820312 4.183594 L 56.121094 4.183594 C 56.234375 4.183594 56.289062 4.183594 56.398438 4.128906 C 56.511719 4.183594 56.566406 4.183594 56.679688 4.183594 C 59.746094 4.183594 62.257812 6.804688 62.257812 10.039062 Z M 13.28125 11.433594 C 13.003906 9.425781 13.394531 7.640625 14.285156 6.359375 C 15.179688 5.1875 16.460938 4.40625 18.136719 4.183594 C 18.914062 4.351562 23.097656 5.523438 23.210938 10.039062 L 23.210938 11.433594 Z M 13.28125 11.433594 " fill-opacity="1" fill-rule="nonzero"/></g><path fill="#000000" d="M 31.464844 19.238281 L 31.464844 14.777344 C 31.464844 14.777344 31.523438 14.777344 31.523438 14.777344 C 31.578125 14.777344 31.578125 14.777344 31.632812 14.777344 C 31.855469 14.777344 32.023438 14.832031 32.191406 14.945312 C 32.359375 15.054688 32.414062 15.277344 32.414062 15.503906 C 32.414062 15.613281 32.414062 15.78125 32.359375 15.890625 C 32.304688 16.003906 32.246094 16.117188 32.191406 16.226562 C 32.136719 16.339844 32.078125 16.394531 31.96875 16.503906 C 31.855469 16.617188 31.800781 16.617188 31.746094 16.671875 L 31.691406 16.730469 L 32.804688 19.292969 C 32.917969 19.292969 33.027344 19.347656 33.195312 19.347656 C 33.363281 19.347656 33.472656 19.347656 33.585938 19.347656 C 33.699219 19.347656 33.863281 19.347656 33.976562 19.347656 C 34.089844 19.347656 34.253906 19.347656 34.367188 19.292969 L 33.140625 16.894531 C 33.195312 16.839844 33.308594 16.785156 33.417969 16.671875 C 33.53125 16.5625 33.585938 16.503906 33.640625 16.339844 C 33.699219 16.226562 33.753906 16.058594 33.808594 15.949219 C 33.863281 15.78125 33.863281 15.613281 33.863281 15.445312 C 33.863281 15.113281 33.808594 14.777344 33.640625 14.554688 C 33.472656 14.332031 33.308594 14.109375 33.085938 13.996094 C 32.859375 13.886719 32.582031 13.773438 32.304688 13.71875 C 32.023438 13.664062 31.746094 13.664062 31.464844 13.664062 C 31.242188 13.664062 31.019531 13.664062 30.796875 13.71875 C 30.574219 13.773438 30.351562 13.773438 30.070312 13.773438 L 30.070312 19.347656 C 30.351562 19.40625 30.574219 19.40625 30.742188 19.40625 C 30.964844 19.292969 31.1875 19.238281 31.464844 19.238281 Z M 31.464844 19.238281 " fill-opacity="1" fill-rule="nonzero"/><path fill="#000000" d="M 38.273438 18.625 C 38.273438 18.457031 38.273438 18.234375 38.214844 18.011719 L 36.261719 18.011719 L 36.261719 16.894531 L 37.769531 16.894531 C 37.824219 16.671875 37.824219 16.449219 37.824219 16.28125 C 37.824219 16.117188 37.824219 15.890625 37.769531 15.667969 L 36.261719 15.667969 L 36.261719 14.832031 L 38.160156 14.832031 C 38.214844 14.609375 38.214844 14.386719 38.214844 14.21875 C 38.214844 14.109375 38.214844 14.050781 38.214844 13.941406 C 38.214844 13.828125 38.214844 13.71875 38.160156 13.605469 L 34.867188 13.605469 L 34.867188 19.238281 L 38.214844 19.238281 C 38.273438 19.015625 38.273438 18.792969 38.273438 18.625 Z M 38.273438 18.625 " fill-opacity="1" fill-rule="nonzero"/><path fill="#000000" d="M 39.332031 18.511719 C 39.554688 18.792969 39.832031 18.957031 40.167969 19.125 C 40.503906 19.292969 40.894531 19.347656 41.339844 19.347656 C 41.449219 19.347656 41.5625 19.347656 41.730469 19.347656 C 41.839844 19.347656 41.953125 19.347656 42.066406 19.292969 C 42.175781 19.292969 42.289062 19.238281 42.457031 19.238281 C 42.566406 19.183594 42.734375 19.183594 42.902344 19.070312 C 42.84375 18.679688 42.734375 18.289062 42.566406 17.898438 C 42.34375 17.957031 42.175781 18.011719 42.007812 18.066406 C 41.839844 18.121094 41.730469 18.121094 41.5625 18.121094 C 40.613281 18.121094 40.167969 17.566406 40.167969 16.449219 C 40.167969 15.890625 40.28125 15.445312 40.503906 15.167969 C 40.726562 14.890625 41.0625 14.722656 41.507812 14.722656 C 41.617188 14.722656 41.675781 14.722656 41.730469 14.722656 C 41.785156 14.722656 41.898438 14.722656 41.953125 14.777344 C 42.007812 14.777344 42.121094 14.832031 42.175781 14.832031 C 42.289062 14.832031 42.34375 14.890625 42.457031 14.945312 C 42.511719 14.777344 42.621094 14.609375 42.679688 14.441406 C 42.734375 14.21875 42.789062 14.050781 42.789062 13.828125 C 42.511719 13.71875 42.289062 13.664062 42.066406 13.605469 C 41.839844 13.550781 41.617188 13.550781 41.339844 13.550781 C 40.894531 13.550781 40.558594 13.605469 40.222656 13.773438 C 39.890625 13.941406 39.609375 14.109375 39.386719 14.386719 C 39.164062 14.664062 38.996094 14.945312 38.886719 15.335938 C 38.773438 15.726562 38.71875 16.058594 38.71875 16.503906 C 38.71875 16.894531 38.773438 17.285156 38.886719 17.675781 C 38.941406 17.957031 39.109375 18.234375 39.332031 18.511719 Z M 39.332031 18.511719 " fill-opacity="1" fill-rule="nonzero"/><path fill="#000000" d="M 46.972656 18.625 C 46.972656 18.457031 46.972656 18.234375 46.917969 18.011719 L 44.964844 18.011719 L 44.964844 16.894531 L 46.472656 16.894531 C 46.527344 16.671875 46.527344 16.449219 46.527344 16.28125 C 46.527344 16.117188 46.527344 15.890625 46.472656 15.667969 L 44.964844 15.667969 L 44.964844 14.832031 L 46.863281 14.832031 C 46.917969 14.609375 46.917969 14.386719 46.917969 14.21875 C 46.917969 14.109375 46.917969 14.050781 46.917969 13.941406 C 46.917969 13.828125 46.917969 13.71875 46.863281 13.605469 L 43.570312 13.605469 L 43.570312 19.238281 L 46.917969 19.238281 C 46.972656 19.015625 46.972656 18.792969 46.972656 18.625 Z M 46.972656 18.625 " fill-opacity="1" fill-rule="nonzero"/><path fill="#000000" d="M 49.09375 19.238281 L 49.09375 13.664062 C 48.980469 13.664062 48.8125 13.605469 48.703125 13.605469 C 48.589844 13.605469 48.480469 13.605469 48.367188 13.605469 C 48.257812 13.605469 48.199219 13.605469 48.089844 13.605469 C 47.976562 13.605469 47.867188 13.605469 47.699219 13.664062 L 47.699219 19.238281 C 47.976562 19.292969 48.199219 19.292969 48.367188 19.292969 C 48.535156 19.292969 48.8125 19.238281 49.09375 19.238281 Z M 49.09375 19.238281 " fill-opacity="1" fill-rule="nonzero"/><path fill="#000000" d="M 50.988281 19.292969 C 51.101562 19.292969 51.210938 19.238281 51.378906 19.238281 L 51.378906 17.398438 C 51.4375 17.398438 51.492188 17.398438 51.601562 17.398438 C 51.714844 17.398438 51.828125 17.398438 51.882812 17.398438 C 52.105469 17.398438 52.382812 17.34375 52.605469 17.285156 C 52.832031 17.230469 53.054688 17.117188 53.222656 16.953125 C 53.386719 16.785156 53.554688 16.617188 53.667969 16.394531 C 53.777344 16.171875 53.835938 15.835938 53.835938 15.445312 C 53.835938 15.054688 53.777344 14.664062 53.609375 14.441406 C 53.445312 14.164062 53.277344 13.996094 53.054688 13.828125 C 52.832031 13.664062 52.550781 13.605469 52.273438 13.550781 C 51.992188 13.496094 51.714844 13.496094 51.4375 13.496094 C 51.046875 13.496094 50.765625 13.496094 50.488281 13.550781 C 50.265625 13.605469 50.042969 13.605469 49.929688 13.605469 L 49.929688 19.183594 C 50.207031 19.238281 50.433594 19.238281 50.597656 19.238281 C 50.765625 19.292969 50.878906 19.292969 50.988281 19.292969 Z M 51.378906 14.722656 C 51.4375 14.722656 51.4375 14.722656 51.492188 14.722656 C 51.546875 14.722656 51.546875 14.722656 51.601562 14.722656 C 51.714844 14.722656 51.828125 14.722656 51.9375 14.777344 C 52.050781 14.777344 52.160156 14.832031 52.214844 14.890625 C 52.273438 14.945312 52.382812 15.054688 52.382812 15.167969 C 52.382812 15.277344 52.441406 15.390625 52.441406 15.558594 C 52.441406 15.835938 52.382812 16.003906 52.214844 16.171875 C 52.050781 16.28125 51.882812 16.339844 51.660156 16.339844 C 51.601562 16.339844 51.546875 16.339844 51.492188 16.339844 C 51.4375 16.339844 51.378906 16.339844 51.378906 16.339844 Z M 51.378906 14.722656 " fill-opacity="1" fill-rule="nonzero"/><path fill="#000000" d="M 54.226562 14.21875 C 54.226562 14.386719 54.226562 14.609375 54.28125 14.832031 L 55.5625 14.832031 L 55.5625 19.238281 C 55.84375 19.292969 56.066406 19.292969 56.234375 19.292969 C 56.398438 19.292969 56.625 19.292969 56.902344 19.238281 L 56.902344 14.890625 L 58.183594 14.890625 C 58.242188 14.664062 58.242188 14.441406 58.242188 14.277344 C 58.242188 14.164062 58.242188 14.109375 58.242188 13.996094 C 58.242188 13.886719 58.242188 13.773438 58.183594 13.664062 L 54.167969 13.664062 C 54.226562 13.828125 54.226562 14.050781 54.226562 14.21875 Z M 54.226562 14.21875 " fill-opacity="1" fill-rule="nonzero"/><path fill="#000000" d="M 31.019531 21.46875 C 30.40625 21.46875 29.90625 21.96875 29.90625 22.582031 C 29.90625 23.195312 30.40625 23.699219 31.019531 23.699219 L 57.792969 23.699219 C 58.410156 23.699219 58.910156 23.195312 58.910156 22.582031 C 58.910156 21.96875 58.410156 21.46875 57.792969 21.46875 Z M 31.019531 21.46875 " fill-opacity="1" fill-rule="nonzero"/><path fill="#000000" d="M 31.019531 34.847656 L 51.101562 34.847656 C 51.714844 34.847656 52.214844 34.347656 52.214844 33.734375 C 52.214844 33.121094 51.714844 32.617188 51.101562 32.617188 L 31.019531 32.617188 C 30.40625 32.617188 29.90625 33.121094 29.90625 33.734375 C 29.90625 34.347656 30.40625 34.847656 31.019531 34.847656 Z M 31.019531 34.847656 " fill-opacity="1" fill-rule="nonzero"/><path fill="#000000" d="M 46.640625 39.308594 L 31.019531 39.308594 C 30.40625 39.308594 29.90625 39.808594 29.90625 40.421875 C 29.90625 41.035156 30.40625 41.539062 31.019531 41.539062 L 46.640625 41.539062 C 47.253906 41.539062 47.753906 41.035156 47.753906 40.421875 C 47.753906 39.808594 47.253906 39.308594 46.640625 39.308594 Z M 46.640625 39.308594 " fill-opacity="1" fill-rule="nonzero"/><path fill="#000000" d="M 38.550781 58.875 C 38.4375 58.765625 38.273438 58.652344 38.105469 58.542969 C 37.9375 58.429688 37.769531 58.375 37.546875 58.320312 L 37.101562 58.152344 C 36.988281 58.097656 36.820312 58.039062 36.710938 57.929688 C 36.597656 57.875 36.542969 57.707031 36.542969 57.59375 C 36.542969 57.484375 36.542969 57.425781 36.597656 57.371094 C 36.652344 57.316406 36.652344 57.261719 36.765625 57.261719 C 36.820312 57.203125 36.878906 57.203125 36.933594 57.203125 C 36.988281 57.203125 37.101562 57.203125 37.15625 57.203125 C 37.433594 57.203125 37.65625 57.203125 37.882812 57.261719 C 38.046875 57.316406 38.273438 57.371094 38.4375 57.484375 C 38.605469 57.09375 38.71875 56.648438 38.773438 56.3125 C 38.550781 56.257812 38.328125 56.144531 38.160156 56.144531 C 37.9375 56.089844 37.769531 56.035156 37.546875 56.035156 L 37.546875 55.308594 C 37.492188 55.308594 37.378906 55.253906 37.269531 55.253906 C 37.15625 55.253906 37.101562 55.253906 37.042969 55.253906 C 36.988281 55.253906 36.933594 55.253906 36.820312 55.253906 C 36.710938 55.253906 36.652344 55.253906 36.542969 55.308594 L 36.542969 56.035156 C 36.097656 56.089844 35.707031 56.3125 35.425781 56.589844 C 35.148438 56.871094 35.035156 57.261719 35.035156 57.761719 C 35.035156 57.984375 35.09375 58.207031 35.148438 58.375 C 35.203125 58.542969 35.316406 58.710938 35.425781 58.820312 C 35.539062 58.933594 35.648438 59.042969 35.816406 59.15625 C 35.984375 59.265625 36.152344 59.324219 36.320312 59.378906 L 36.765625 59.546875 C 36.933594 59.601562 37.101562 59.710938 37.269531 59.824219 C 37.378906 59.9375 37.492188 60.046875 37.492188 60.214844 C 37.492188 60.382812 37.433594 60.550781 37.269531 60.660156 C 37.101562 60.773438 36.878906 60.773438 36.652344 60.773438 C 36.488281 60.773438 36.261719 60.773438 36.039062 60.714844 C 35.816406 60.660156 35.59375 60.605469 35.316406 60.492188 C 35.257812 60.714844 35.148438 60.9375 35.09375 61.164062 C 35.035156 61.386719 34.980469 61.550781 34.980469 61.777344 C 35.148438 61.832031 35.257812 61.886719 35.371094 61.941406 C 35.484375 62 35.648438 62 35.761719 62.054688 C 35.875 62.054688 36.039062 62.109375 36.152344 62.109375 C 36.261719 62.109375 36.429688 62.109375 36.597656 62.109375 L 36.597656 63.003906 C 36.710938 63.003906 36.765625 63.058594 36.878906 63.058594 C 36.988281 63.058594 37.042969 63.058594 37.101562 63.058594 C 37.15625 63.058594 37.210938 63.058594 37.324219 63.058594 C 37.433594 63.058594 37.492188 63.058594 37.601562 63.003906 L 37.601562 62 C 38.046875 61.886719 38.382812 61.664062 38.664062 61.328125 C 38.886719 60.996094 38.996094 60.605469 38.996094 60.160156 C 38.996094 59.878906 38.941406 59.65625 38.886719 59.433594 C 38.773438 59.15625 38.71875 58.988281 38.550781 58.875 Z M 38.550781 58.875 " fill-opacity="1" fill-rule="nonzero"/><path fill="#000000" d="M 45.523438 61.050781 L 43.292969 61.050781 C 42.679688 61.050781 42.175781 61.550781 42.175781 62.164062 C 42.175781 62.777344 42.679688 63.28125 43.292969 63.28125 L 45.523438 63.28125 C 46.136719 63.28125 46.640625 62.777344 46.640625 62.164062 C 46.640625 61.550781 46.136719 61.050781 45.523438 61.050781 Z M 45.523438 61.050781 " fill-opacity="1" fill-rule="nonzero"/><path fill="#000000" d="M 51.769531 61.050781 L 49.261719 61.050781 C 48.648438 61.050781 48.144531 61.550781 48.144531 62.164062 C 48.144531 62.777344 48.648438 63.28125 49.261719 63.28125 L 51.769531 63.28125 C 52.382812 63.28125 52.886719 62.777344 52.886719 62.164062 C 52.886719 61.550781 52.382812 61.050781 51.769531 61.050781 Z M 51.769531 61.050781 " fill-opacity="1" fill-rule="nonzero"/><path fill="#000000" d="M 57.792969 61.050781 L 55.5625 61.050781 C 54.949219 61.050781 54.449219 61.550781 54.449219 62.164062 C 54.449219 62.777344 54.949219 63.28125 55.5625 63.28125 L 57.792969 63.28125 C 58.410156 63.28125 58.910156 62.777344 58.910156 62.164062 C 58.910156 61.550781 58.410156 61.050781 57.792969 61.050781 Z M 57.792969 61.050781 " fill-opacity="1" fill-rule="nonzero"/></svg>