<svg xmlns="http://www.w3.org/2000/svg" xmlns:xlink="http://www.w3.org/1999/xlink" width="100" zoomAndPan="magnify" viewBox="0 0 75 74.999997" height="100" preserveAspectRatio="xMidYMid meet" version="1.0"><defs><clipPath id="adf676d7cc"><path d="M 4 9.863281 L 70.75 9.863281 L 70.75 65.363281 L 4 65.363281 Z M 4 9.863281 " clip-rule="nonzero"/></clipPath></defs><g clip-path="url(#adf676d7cc)"><path fill="#000000" d="M 70.75 31.121094 C 70.75 24.003906 66.253906 17.949219 59.988281 15.625 L 60.199219 15.589844 C 59.648438 12.117188 56.664062 9.875 52.601562 9.875 L 17.46875 9.875 C 15.558594 9.886719 13.710938 10.652344 12.28125 12.058594 C 10.734375 13.582031 9.855469 15.683594 9.855469 17.832031 L 9.855469 41.496094 C 6.332031 43.820312 4 47.824219 4 52.367188 C 4 59.53125 9.773438 65.351562 16.882812 65.351562 L 56.699219 65.351562 C 61.21875 65.351562 64.894531 61.644531 64.894531 57.089844 L 64.894531 50.007812 L 60.210938 50.007812 L 60.210938 46.535156 C 66.359375 44.152344 70.75 38.15625 70.75 31.121094 Z M 52.601562 12.234375 C 54.554688 12.234375 56.722656 12.96875 57.578125 14.914062 C 56.535156 14.703125 55.457031 14.597656 54.355469 14.597656 C 51.289062 14.597656 48.417969 15.46875 45.960938 16.957031 L 28.59375 16.957031 L 28.59375 24.039062 L 39.566406 24.039062 C 39.203125 24.792969 38.898438 25.585938 38.652344 26.398438 L 28.59375 26.398438 L 28.59375 33.480469 L 38.148438 33.480469 C 38.265625 34.285156 38.429688 35.074219 38.652344 35.84375 L 28.59375 35.84375 L 28.59375 41.496094 C 27.515625 40.789062 26.34375 40.246094 25.082031 39.878906 L 25.082031 17.546875 C 25.082031 15.554688 24.320312 13.664062 22.949219 12.234375 Z M 42.902344 19.316406 C 42.164062 20.039062 41.511719 20.828125 40.925781 21.679688 L 30.933594 21.679688 L 30.933594 19.316406 Z M 33.558594 47.648438 L 52.015625 47.648438 L 52.015625 50.007812 L 36.789062 50.007812 L 36.789062 55.910156 L 33.945312 55.910156 C 34.261719 54.777344 34.449219 53.59375 34.449219 52.367188 C 34.449219 50.703125 34.121094 49.109375 33.558594 47.648438 Z M 32.351562 45.285156 C 31.789062 44.425781 31.121094 43.632812 30.386719 42.925781 L 42.902344 42.925781 C 43.816406 43.835938 44.847656 44.613281 45.960938 45.285156 Z M 30.933594 40.566406 L 30.933594 38.203125 L 39.566406 38.203125 C 39.953125 39.03125 40.410156 39.820312 40.925781 40.566406 Z M 38.148438 28.761719 C 38.042969 29.539062 37.960938 30.320312 37.960938 31.121094 L 30.933594 31.121094 L 30.933594 28.761719 Z M 12.199219 17.832031 C 12.199219 16.308594 12.832031 14.820312 13.921875 13.746094 C 14.9375 12.742188 16.238281 12.199219 17.597656 12.234375 C 18.957031 12.257812 20.230469 12.8125 21.191406 13.792969 C 22.046875 14.65625 22.550781 15.765625 22.679688 16.957031 L 16.882812 16.957031 L 16.882812 39.382812 C 15.230469 39.382812 13.652344 39.714844 12.199219 40.28125 Z M 22.738281 19.316406 L 22.738281 39.382812 L 19.226562 39.382812 L 19.226562 19.316406 Z M 6.34375 52.367188 C 6.34375 47.753906 9.28125 43.835938 13.359375 42.371094 C 10.5 44.753906 8.683594 48.355469 8.683594 52.367188 C 8.683594 56.382812 10.511719 59.980469 13.359375 62.367188 C 9.269531 60.902344 6.34375 56.972656 6.34375 52.367188 Z M 21.566406 62.992188 C 15.757812 62.992188 11.027344 58.222656 11.027344 52.367188 C 11.027344 46.511719 15.757812 41.746094 21.566406 41.746094 C 27.375 41.746094 32.105469 46.511719 32.105469 52.367188 C 32.105469 58.222656 27.375 62.992188 21.566406 62.992188 Z M 31.109375 62.992188 L 30.945312 62.992188 C 30.386719 62.992188 29.835938 62.898438 29.308594 62.71875 C 30.855469 61.539062 32.128906 60.015625 33.03125 58.269531 L 36.671875 58.269531 C 36.449219 59.402344 35.902344 60.429688 35.070312 61.269531 C 34.015625 62.34375 32.609375 62.957031 31.109375 62.992188 Z M 62.554688 52.367188 L 62.554688 57.089844 C 62.554688 60.347656 59.929688 62.992188 56.699219 62.992188 L 36.660156 62.992188 L 36.71875 62.933594 C 38.277344 61.386719 39.132812 59.308594 39.132812 57.089844 L 39.132812 52.367188 Z M 54.355469 50.007812 L 54.355469 47.648438 C 55.5625 47.648438 56.734375 47.503906 57.871094 47.257812 L 57.871094 50.007812 Z M 54.355469 45.285156 C 46.605469 45.285156 40.304688 38.9375 40.304688 31.121094 C 40.304688 23.308594 46.605469 16.957031 54.355469 16.957031 C 62.109375 16.957031 68.410156 23.308594 68.410156 31.121094 C 68.410156 38.9375 62.109375 45.285156 54.355469 45.285156 Z M 54.355469 45.285156 " fill-opacity="1" fill-rule="nonzero"/></g><path fill="#000000" d="M 57.871094 32.300781 L 57.871094 38.203125 L 64.894531 38.203125 L 64.894531 35.84375 L 62.460938 35.84375 C 63.28125 34.414062 63.726562 32.785156 63.726562 31.121094 C 63.726562 25.917969 59.519531 21.679688 54.355469 21.679688 C 49.191406 21.679688 44.988281 25.917969 44.988281 31.121094 C 44.988281 36.328125 49.191406 40.566406 54.355469 40.566406 L 54.355469 38.203125 C 50.480469 38.203125 47.332031 35.027344 47.332031 31.121094 C 47.332031 27.214844 50.480469 24.039062 54.355469 24.039062 C 58.234375 24.039062 61.382812 27.214844 61.382812 31.121094 C 61.382812 32.515625 60.960938 33.871094 60.210938 35.027344 L 60.210938 32.300781 Z M 57.871094 32.300781 " fill-opacity="1" fill-rule="nonzero"/><path fill="#000000" d="M 23.910156 47.648438 C 24.554688 47.648438 25.082031 48.179688 25.082031 48.828125 L 27.421875 48.828125 C 27.421875 46.878906 25.839844 45.285156 23.910156 45.285156 L 22.738281 45.285156 L 22.738281 44.105469 L 20.394531 44.105469 L 20.394531 45.285156 L 19.226562 45.285156 C 17.292969 45.285156 15.710938 46.878906 15.710938 48.828125 L 15.710938 50.007812 C 15.710938 51.953125 17.292969 53.546875 19.226562 53.546875 L 20.394531 53.546875 L 20.394531 57.089844 L 19.226562 57.089844 C 18.582031 57.089844 18.054688 56.558594 18.054688 55.910156 L 15.710938 55.910156 C 15.710938 57.855469 17.292969 59.449219 19.226562 59.449219 L 20.394531 59.449219 L 20.394531 60.628906 L 22.738281 60.628906 L 22.738281 59.449219 L 23.910156 59.449219 C 25.839844 59.449219 27.421875 57.855469 27.421875 55.910156 L 27.421875 54.730469 C 27.421875 52.78125 25.839844 51.1875 23.910156 51.1875 L 22.738281 51.1875 L 22.738281 47.648438 Z M 20.394531 51.1875 L 19.226562 51.1875 C 18.582031 51.1875 18.054688 50.65625 18.054688 50.007812 L 18.054688 48.828125 C 18.054688 48.179688 18.582031 47.648438 19.226562 47.648438 L 20.394531 47.648438 Z M 23.910156 53.546875 C 24.554688 53.546875 25.082031 54.078125 25.082031 54.730469 L 25.082031 55.910156 C 25.082031 56.558594 24.554688 57.089844 23.910156 57.089844 L 22.738281 57.089844 L 22.738281 53.546875 Z M 23.910156 53.546875 " fill-opacity="1" fill-rule="nonzero"/></svg>