<svg xmlns="http://www.w3.org/2000/svg" xmlns:xlink="http://www.w3.org/1999/xlink" width="100" zoomAndPan="magnify" viewBox="0 0 75 74.999997" height="100" preserveAspectRatio="xMidYMid meet" version="1.0"><defs><clipPath id="be196e6fef"><path d="M 6.160156 3.574219 L 69 3.574219 L 69 71.074219 L 6.160156 71.074219 Z M 6.160156 3.574219 " clip-rule="nonzero"/></clipPath></defs><g clip-path="url(#be196e6fef)"><path fill="#000000" d="M 28.835938 50.984375 L 26.542969 53.253906 C 26.261719 53.53125 25.808594 53.53125 25.527344 53.253906 L 24.207031 51.949219 C 23.539062 51.289062 24.554688 50.285156 25.222656 50.945312 L 26.035156 51.75 L 27.820312 49.980469 C 28.488281 49.320312 29.503906 50.324219 28.835938 50.984375 Z M 53.5 24.175781 L 36.183594 24.175781 C 35.25 24.175781 35.238281 25.601562 36.183594 25.601562 L 53.5 25.601562 C 54.433594 25.601562 54.445312 24.175781 53.5 24.175781 Z M 27.820312 36.609375 L 26.035156 38.378906 L 25.222656 37.574219 C 24.554688 36.914062 23.539062 37.917969 24.207031 38.578125 L 25.527344 39.882812 C 25.808594 40.160156 26.261719 40.160156 26.542969 39.882812 L 28.835938 37.613281 C 29.503906 36.953125 28.488281 35.949219 27.820312 36.609375 Z M 53.5 40.914062 L 36.183594 40.914062 C 35.25 40.914062 35.238281 42.339844 36.183594 42.339844 L 53.5 42.339844 C 54.433594 42.339844 54.445312 40.925781 53.5 40.914062 Z M 67.453125 53.347656 C 67.453125 53.347656 58.902344 57.863281 58.902344 57.847656 L 58.902344 62.800781 C 58.902344 64.199219 57.753906 65.335938 56.339844 65.335938 L 44.722656 65.335938 L 34.4375 70.761719 C 34.050781 70.957031 33.652344 71.050781 33.25 71.050781 C 32.34375 71.050781 31.449219 70.5625 30.996094 69.71875 L 28.636719 65.347656 L 18.964844 65.347656 C 17.5625 65.347656 16.417969 64.210938 16.417969 62.8125 L 16.417969 42.617188 L 6.828125 24.792969 C 6.160156 23.605469 6.652344 21.984375 7.878906 21.375 L 16.417969 16.875 L 16.417969 11.925781 C 16.417969 10.539062 17.5625 9.402344 18.964844 9.402344 L 30.609375 9.402344 L 40.894531 3.976562 C 41.496094 3.660156 42.1875 3.59375 42.839844 3.792969 C 43.496094 3.992188 44.027344 4.425781 44.347656 5.019531 L 46.695312 9.390625 L 56.367188 9.390625 C 57.78125 9.390625 58.929688 10.523438 58.929688 11.910156 L 58.929688 32.109375 L 68.519531 49.914062 C 69.160156 51.144531 68.691406 52.675781 67.453125 53.347656 Z M 16.402344 18.5 L 8.546875 22.644531 C 8.011719 22.90625 7.800781 23.621094 8.082031 24.136719 L 16.402344 39.59375 Z M 33.664062 9.402344 L 45.054688 9.402344 L 43.066406 5.691406 C 42.800781 5.164062 42.082031 4.953125 41.5625 5.230469 Z M 41.65625 65.335938 L 30.261719 65.335938 L 32.265625 69.042969 C 32.558594 69.585938 33.222656 69.78125 33.769531 69.503906 Z M 57.472656 11.925781 C 57.472656 11.316406 56.96875 10.828125 56.355469 10.828125 L 18.953125 10.828125 C 18.335938 10.828125 17.84375 11.316406 17.84375 11.925781 L 17.84375 62.800781 C 17.84375 63.40625 18.335938 63.910156 18.953125 63.910156 L 56.355469 63.910156 C 56.96875 63.910156 57.472656 63.40625 57.472656 62.800781 Z M 67.226562 50.589844 L 58.914062 35.144531 L 58.914062 56.238281 L 66.773438 52.09375 C 67.304688 51.804688 67.519531 51.128906 67.226562 50.589844 Z M 36.183594 22.21875 L 44.550781 22.21875 C 44.949219 22.21875 45.269531 21.902344 45.269531 21.507812 C 45.269531 21.113281 44.949219 20.796875 44.550781 20.796875 L 36.183594 20.796875 C 35.238281 20.796875 35.238281 22.21875 36.183594 22.21875 Z M 36.183594 35.578125 L 44.550781 35.578125 C 44.949219 35.578125 45.269531 35.261719 45.269531 34.867188 C 45.269531 34.472656 44.949219 34.152344 44.550781 34.152344 L 36.183594 34.152344 C 35.238281 34.152344 35.238281 35.578125 36.183594 35.578125 Z M 31.808594 51.617188 C 31.558594 58.535156 21.484375 58.535156 21.246094 51.617188 C 21.246094 48.742188 23.621094 46.390625 26.527344 46.390625 C 29.4375 46.390625 31.808594 48.726562 31.808594 51.617188 Z M 26.527344 47.804688 C 21.445312 47.960938 21.445312 55.25 26.527344 55.40625 C 31.597656 55.261719 31.597656 47.960938 26.527344 47.804688 Z M 31.808594 24.886719 C 31.558594 31.804688 21.484375 31.804688 21.246094 24.886719 C 21.246094 22.007812 23.621094 19.660156 26.527344 19.660156 C 29.4375 19.660156 31.808594 22.007812 31.808594 24.886719 Z M 26.527344 21.085938 C 21.445312 21.242188 21.445312 28.53125 26.527344 28.6875 C 31.597656 28.53125 31.597656 21.242188 26.527344 21.085938 Z M 53.5 54.285156 L 36.183594 54.285156 C 35.25 54.285156 35.238281 55.710938 36.183594 55.710938 L 53.5 55.710938 C 54.433594 55.699219 54.445312 54.285156 53.5 54.285156 Z M 36.183594 48.9375 L 44.550781 48.9375 C 44.949219 48.9375 45.269531 48.621094 45.269531 48.226562 C 45.269531 47.832031 44.949219 47.511719 44.550781 47.511719 L 36.183594 47.511719 C 35.238281 47.527344 35.238281 48.9375 36.183594 48.9375 Z M 53.5 50.90625 L 36.183594 50.90625 C 35.25 50.90625 35.238281 52.332031 36.183594 52.332031 L 53.5 52.332031 C 54.433594 52.320312 54.445312 50.90625 53.5 50.90625 Z M 53.5 27.554688 L 36.183594 27.554688 C 35.25 27.554688 35.238281 28.980469 36.183594 28.980469 L 53.5 28.980469 C 54.433594 28.980469 54.445312 27.554688 53.5 27.554688 Z M 31.808594 38.246094 C 31.558594 45.164062 21.484375 45.164062 21.246094 38.246094 C 21.246094 35.367188 23.621094 33.019531 26.527344 33.019531 C 29.4375 33.019531 31.808594 35.367188 31.808594 38.246094 Z M 26.527344 34.445312 C 21.445312 34.601562 21.445312 41.890625 26.527344 42.046875 C 31.597656 41.890625 31.597656 34.601562 26.527344 34.445312 Z M 53.5 37.535156 L 36.183594 37.535156 C 35.25 37.535156 35.238281 38.960938 36.183594 38.960938 L 53.5 38.960938 C 54.433594 38.960938 54.445312 37.546875 53.5 37.535156 Z M 27.820312 23.25 L 26.035156 25.019531 L 25.222656 24.214844 C 24.554688 23.554688 23.539062 24.558594 24.207031 25.21875 L 25.527344 26.523438 C 25.792969 26.800781 26.273438 26.800781 26.542969 26.523438 L 28.835938 24.253906 C 29.503906 23.59375 28.488281 22.589844 27.820312 23.25 Z M 27.820312 23.25 " fill-opacity="1" fill-rule="nonzero"/></g></svg>