<svg xmlns="http://www.w3.org/2000/svg" xmlns:xlink="http://www.w3.org/1999/xlink" width="100" zoomAndPan="magnify" viewBox="0 0 75 74.999997" height="100" preserveAspectRatio="xMidYMid meet" version="1.0"><defs><clipPath id="c929bbaf27"><path d="M 9.886719 5.484375 L 47 5.484375 L 47 64 L 9.886719 64 Z M 9.886719 5.484375 " clip-rule="nonzero"/></clipPath><clipPath id="cd681a3950"><path d="M 30 29 L 65.386719 29 L 65.386719 69 L 30 69 Z M 30 29 " clip-rule="nonzero"/></clipPath></defs><g clip-path="url(#c929bbaf27)"><path fill="#000000" d="M 14.011719 8.042969 L 42.578125 8.042969 C 43.621094 8.042969 44.414062 8.839844 44.414062 9.863281 L 44.414062 12.335938 L 12.175781 12.335938 L 12.175781 9.863281 C 12.175781 8.839844 12.972656 8.042969 14.011719 8.042969 Z M 14.011719 5.796875 C 11.761719 5.796875 9.910156 7.628906 9.910156 9.863281 L 9.910156 59.324219 C 9.910156 61.558594 11.761719 63.390625 14.011719 63.390625 L 39.515625 63.390625 C 40.15625 63.40625 40.679688 62.898438 40.679688 62.265625 C 40.679688 61.636719 40.15625 61.128906 39.515625 61.144531 L 14.011719 61.144531 C 12.972656 61.144531 12.175781 60.351562 12.175781 59.324219 L 12.175781 56.589844 L 30.167969 56.589844 C 31.679688 56.589844 31.679688 54.339844 30.167969 54.339844 L 12.175781 54.339844 L 12.175781 14.582031 L 44.414062 14.582031 L 44.414062 27.574219 C 44.398438 28.203125 44.914062 28.722656 45.550781 28.722656 C 46.1875 28.722656 46.699219 28.203125 46.683594 27.574219 L 46.683594 9.863281 C 46.683594 7.628906 44.832031 5.796875 42.578125 5.796875 Z M 14.011719 5.796875 " fill-opacity="1" fill-rule="evenodd"/></g><path fill="#000000" d="M 24.203125 22.769531 C 23.582031 22.8125 23.109375 23.074219 22.632812 23.402344 C 21.671875 24.050781 20.6875 25.078125 19.699219 26.304688 C 17.734375 28.753906 15.832031 31.859375 15.464844 34.425781 C 15.199219 36.292969 16.164062 37.675781 17.136719 38.226562 C 18.109375 38.769531 19.078125 38.765625 19.078125 38.765625 C 20.542969 38.792969 20.582031 36.550781 19.117188 36.523438 C 19.117188 36.523438 18.605469 36.488281 18.199219 36.257812 C 17.789062 36.03125 17.480469 35.878906 17.644531 34.75 C 17.867188 33.15625 19.605469 29.964844 21.40625 27.722656 C 21.824219 27.195312 22.25 26.707031 22.660156 26.308594 C 23.875 25.117188 24.027344 25.367188 24.117188 26.480469 C 24.136719 26.765625 24.097656 27.09375 24.054688 27.464844 C 23.890625 28.714844 23.539062 30.183594 23.171875 31.597656 C 22.804688 33.007812 22.421875 34.359375 22.1875 35.464844 C 22.070312 36.011719 22.003906 36.5 21.972656 36.972656 C 21.933594 37.695312 22.226562 38.203125 22.6875 38.597656 C 23.160156 39.007812 23.914062 39.007812 24.480469 38.84375 C 25.050781 38.679688 25.527344 38.351562 25.988281 37.949219 C 26.910156 37.136719 27.8125 35.933594 28.828125 34.398438 C 29.714844 33.144531 27.8125 31.835938 27.007812 33.140625 C 26.265625 34.269531 25.707031 35.117188 25.128906 35.710938 C 24.554688 36.296875 24.308594 36.042969 24.457031 35.398438 C 24.671875 34.492188 24.988281 33.363281 25.304688 32.175781 C 25.679688 30.730469 26.046875 29.191406 26.226562 27.757812 C 26.414062 26.316406 26.472656 24.964844 25.914062 23.789062 C 25.621094 23.175781 24.824219 22.730469 24.203125 22.769531 Z M 24.203125 22.769531 " fill-opacity="1" fill-rule="nonzero"/><g clip-path="url(#cd681a3950)"><path fill="#000000" d="M 62.09375 57.847656 L 62.898438 59.136719 C 63.421875 60.480469 62.511719 60.96875 61.636719 61.609375 C 58.875 63.152344 56.335938 64.757812 53.796875 66.027344 C 52.625 66.566406 51.617188 66.601562 51.121094 65.890625 L 50.265625 64.609375 Z M 45.425781 38.789062 L 47.277344 41.960938 C 47.796875 42.855469 47.425781 44.226562 46.089844 45.1875 L 41.488281 40.613281 C 41.664062 40.558594 41.839844 40.507812 42.015625 40.429688 Z M 47.242188 31.898438 C 47.703125 31.972656 48.101562 32.28125 48.433594 32.886719 L 54.429688 42.433594 C 55.164062 43.800781 56.769531 43.074219 55.941406 41.757812 L 53.453125 37.488281 C 54.847656 38.214844 56.402344 39.0625 57.453125 39.742188 C 58.5625 40.460938 59.058594 41.324219 59.21875 42.816406 L 59.914062 49.144531 C 60.125 51.015625 59.972656 53.664062 61.011719 55.875 L 49.050781 62.710938 C 48.25 61.480469 47.410156 60.679688 46.273438 59.8125 L 35.894531 51.863281 C 35.261719 51.378906 35.046875 50.3125 35.117188 48.921875 L 35.492188 45.054688 L 35.179688 41.925781 C 35.105469 41.207031 36.117188 40.878906 36.648438 41.425781 C 37.222656 42.023438 38.789062 43.386719 38.742188 45.941406 C 38.738281 46.359375 39.0625 46.601562 39.3125 46.851562 L 49.699219 57.1875 C 52.4375 59.90625 56.679688 55.710938 53.941406 52.988281 L 47.6875 46.773438 C 49.503906 45.21875 50.28125 42.628906 49.238281 40.835938 L 46.882812 36.785156 C 46.589844 36.292969 45.96875 36.09375 45.441406 36.324219 L 41.105469 38.371094 C 39.785156 38.949219 39.453125 38.585938 39.199219 38.191406 C 38.949219 37.800781 39.085938 37.304688 39.152344 37.257812 L 45.789062 32.382812 C 46.390625 31.945312 46.785156 31.828125 47.242188 31.898438 Z M 44.449219 30.566406 L 37.808594 35.441406 C 37.496094 35.667969 37.257812 35.941406 37.089844 36.246094 L 35.351562 34.519531 C 35.179688 34.34375 34.957031 34.234375 34.714844 34.195312 L 31.273438 33.410156 C 30.5625 33.375 30 33.996094 30.097656 34.691406 L 30.8125 38.101562 C 30.84375 38.34375 30.960938 38.566406 31.136719 38.742188 L 32.726562 40.316406 L 33.019531 45.316406 L 32.855469 48.8125 C 32.773438 50.457031 32.929688 52.433594 34.507812 53.644531 L 44.886719 61.582031 C 46.097656 62.515625 46.636719 63.007812 47.414062 64.335938 L 48.59375 66.203125 C 49.417969 67.265625 50.460938 68.589844 51.925781 68.730469 C 53.28125 68.863281 54.515625 68.257812 55.914062 67.464844 L 61.710938 64.175781 C 63.109375 63.382812 64.25 62.625 64.847656 61.410156 C 65.441406 60.195312 65.191406 58.722656 64.347656 57.234375 L 63.132812 55.105469 C 62.316406 53.703125 62.425781 51.207031 62.171875 48.898438 L 61.476562 42.585938 C 61.253906 40.613281 60.332031 38.925781 58.691406 37.863281 C 56.242188 36.269531 52.15625 34.304688 51.765625 34.121094 L 50.390625 31.757812 C 49.863281 30.847656 49.082031 30.03125 47.671875 29.816406 C 46.257812 29.597656 45.328125 29.929688 44.449219 30.566406 Z M 44.449219 30.566406 " fill-opacity="1" fill-rule="nonzero"/></g></svg>