<svg xmlns="http://www.w3.org/2000/svg" xmlns:xlink="http://www.w3.org/1999/xlink" width="100" zoomAndPan="magnify" viewBox="0 0 75 74.999997" height="100" preserveAspectRatio="xMidYMid meet" version="1.0"><defs><clipPath id="a47fd36d8f"><path d="M 4.058594 4 L 70.804688 4 L 70.804688 70.746094 L 4.058594 70.746094 Z M 4.058594 4 " clip-rule="nonzero"/></clipPath></defs><g clip-path="url(#a47fd36d8f)"><path fill="#000000" d="M 70.226562 60.472656 L 66.269531 60.472656 L 66.269531 49.746094 C 66.269531 49.4375 66.011719 49.183594 65.703125 49.183594 L 29.507812 49.183594 C 29.195312 49.183594 28.941406 49.4375 28.941406 49.746094 L 28.941406 55.957031 L 28.476562 55.957031 C 26.960938 54.558594 24.941406 53.699219 22.71875 53.699219 C 20.683594 53.699219 18.804688 54.417969 17.347656 55.617188 C 15.425781 57.199219 14.351562 59.570312 14.292969 62.039062 L 14.238281 64.988281 C 14.238281 67.457031 12.242188 69.460938 9.796875 69.503906 C 7.265625 69.546875 5.1875 67.429688 5.1875 64.902344 L 5.1875 5.152344 L 56.089844 5.152344 L 56.089844 47.460938 C 56.089844 47.757812 56.300781 48.023438 56.597656 48.054688 C 56.9375 48.082031 57.21875 47.828125 57.21875 47.488281 L 57.21875 4.589844 C 57.21875 4.277344 56.964844 4.023438 56.652344 4.023438 L 4.621094 4.023438 C 4.3125 4.023438 4.058594 4.277344 4.058594 4.589844 L 4.058594 64.988281 C 4.058594 68.007812 6.445312 70.476562 9.429688 70.617188 L 9.429688 70.632812 C 9.429688 70.632812 64.019531 70.71875 65.957031 70.574219 C 68.714844 70.363281 70.804688 67.824219 70.804688 64.988281 L 70.804688 61.035156 C 70.792969 60.726562 70.539062 60.472656 70.226562 60.472656 Z M 37.988281 66.117188 L 30.214844 66.117188 C 30.582031 65.410156 30.863281 64.664062 31.019531 63.859375 L 37.988281 63.859375 C 38.613281 63.859375 39.121094 64.367188 39.121094 64.988281 C 39.121094 65.609375 38.613281 66.117188 37.988281 66.117188 Z M 37.988281 60.472656 C 38.613281 60.472656 39.121094 60.980469 39.121094 61.601562 C 39.121094 62.222656 38.613281 62.730469 37.988281 62.730469 L 31.1875 62.730469 C 31.203125 62.546875 31.203125 62.347656 31.203125 62.164062 C 31.203125 61.585938 31.148438 61.023438 31.035156 60.472656 Z M 39.488281 66.679688 C 39.957031 66.273438 40.253906 65.664062 40.253906 64.988281 C 40.253906 64.308594 39.957031 63.703125 39.488281 63.292969 C 39.957031 62.886719 40.253906 62.277344 40.253906 61.601562 C 40.253906 60.921875 39.957031 60.316406 39.488281 59.90625 C 39.957031 59.496094 40.253906 58.890625 40.253906 58.214844 C 40.253906 56.972656 39.234375 55.957031 37.988281 55.957031 L 34.964844 55.957031 C 35.980469 55.136719 36.675781 53.9375 36.832031 52.570312 L 58.378906 52.570312 C 58.648438 54.925781 60.511719 56.789062 62.875 57.054688 L 62.875 62.757812 C 60.511719 63.027344 58.648438 64.886719 58.378906 67.246094 L 39.941406 67.246094 C 39.828125 67.035156 39.671875 66.835938 39.488281 66.679688 Z M 37.988281 57.085938 C 38.613281 57.085938 39.121094 57.59375 39.121094 58.214844 C 39.121094 58.835938 38.613281 59.34375 37.988281 59.34375 L 30.722656 59.34375 C 30.425781 58.523438 30.015625 57.761719 29.507812 57.085938 Z M 22.71875 54.828125 C 26.777344 54.828125 30.074219 58.113281 30.074219 62.164062 C 30.074219 66.214844 26.777344 69.503906 22.71875 69.503906 C 18.664062 69.503906 15.367188 66.214844 15.367188 62.164062 C 15.367188 58.113281 18.664062 54.828125 22.71875 54.828125 Z M 13.105469 69.503906 C 14.179688 68.699219 14.957031 67.511719 15.253906 66.160156 C 16.003906 67.554688 17.136719 68.714844 18.507812 69.503906 Z M 26.949219 69.503906 C 27.953125 68.925781 28.8125 68.164062 29.507812 67.246094 L 37.988281 67.246094 C 38.613281 67.246094 39.121094 67.753906 39.121094 68.375 C 39.121094 68.996094 38.613281 69.503906 37.988281 69.503906 Z M 39.941406 69.503906 C 40.140625 69.164062 40.253906 68.785156 40.253906 68.375 L 58.914062 68.375 C 59.226562 68.375 59.480469 68.121094 59.480469 67.808594 C 59.480469 65.636719 61.261719 63.859375 63.441406 63.859375 C 63.75 63.859375 64.003906 63.605469 64.003906 63.292969 L 64.003906 56.519531 C 64.003906 56.210938 63.75 55.957031 63.441406 55.957031 C 61.261719 55.957031 59.480469 54.179688 59.480469 52.003906 C 59.480469 51.695312 59.226562 51.441406 58.914062 51.441406 L 36.292969 51.441406 C 35.980469 51.441406 35.726562 51.695312 35.726562 52.003906 C 35.726562 54.179688 33.945312 55.957031 31.769531 55.957031 L 30.074219 55.957031 L 30.074219 50.3125 L 65.136719 50.3125 L 65.136719 69.503906 Z M 69.660156 64.988281 C 69.660156 67.089844 68.21875 68.855469 66.269531 69.363281 L 66.269531 61.601562 L 69.660156 61.601562 Z M 69.660156 64.988281 " fill-opacity="1" fill-rule="nonzero"/></g><path fill="#000000" d="M 9.710938 23.78125 L 9.710938 27.167969 C 9.710938 27.476562 9.964844 27.730469 10.277344 27.730469 L 50.996094 27.730469 C 51.308594 27.730469 51.5625 27.476562 51.5625 27.167969 L 51.5625 23.78125 C 51.5625 23.46875 51.308594 23.214844 50.996094 23.214844 L 10.277344 23.214844 C 9.964844 23.214844 9.710938 23.46875 9.710938 23.78125 Z M 10.84375 24.34375 L 50.433594 24.34375 L 50.433594 26.601562 L 10.84375 26.601562 Z M 10.84375 24.34375 " fill-opacity="1" fill-rule="nonzero"/><path fill="#000000" d="M 39.121094 19.265625 C 39.121094 19.574219 39.375 19.828125 39.6875 19.828125 L 50.996094 19.828125 C 51.308594 19.828125 51.5625 19.574219 51.5625 19.265625 C 51.5625 18.953125 51.308594 18.699219 50.996094 18.699219 L 39.6875 18.699219 C 39.375 18.699219 39.121094 18.953125 39.121094 19.265625 Z M 39.121094 19.265625 " fill-opacity="1" fill-rule="nonzero"/><path fill="#000000" d="M 39.6875 20.957031 C 39.375 20.957031 39.121094 21.210938 39.121094 21.523438 C 39.121094 21.832031 39.375 22.085938 39.6875 22.085938 L 47.605469 22.085938 C 47.914062 22.085938 48.171875 21.832031 48.171875 21.523438 C 48.171875 21.210938 47.914062 20.957031 47.605469 20.957031 Z M 39.6875 20.957031 " fill-opacity="1" fill-rule="nonzero"/><path fill="#000000" d="M 22.71875 68.375 C 26.15625 68.375 28.941406 65.59375 28.941406 62.164062 C 28.941406 58.734375 26.15625 55.957031 22.71875 55.957031 C 19.285156 55.957031 16.5 58.734375 16.5 62.164062 C 16.5 65.59375 19.285156 68.375 22.71875 68.375 Z M 22.71875 57.085938 C 25.535156 57.085938 27.808594 59.355469 27.808594 62.164062 C 27.808594 64.972656 25.535156 67.246094 22.71875 67.246094 C 19.90625 67.246094 17.628906 64.972656 17.628906 62.164062 C 17.628906 59.355469 19.90625 57.085938 22.71875 57.085938 Z M 22.71875 57.085938 " fill-opacity="1" fill-rule="nonzero"/><path fill="#000000" d="M 22.71875 64.421875 C 22.253906 64.421875 21.871094 64.042969 21.871094 63.578125 L 21.871094 63.292969 C 21.871094 62.984375 21.617188 62.730469 21.304688 62.730469 C 20.996094 62.730469 20.742188 62.984375 20.742188 63.292969 L 20.742188 63.578125 C 20.742188 64.464844 21.335938 65.226562 22.15625 65.46875 L 22.15625 66.117188 C 22.15625 66.425781 22.410156 66.679688 22.71875 66.679688 C 23.03125 66.679688 23.285156 66.425781 23.285156 66.117188 L 23.285156 65.46875 C 24.105469 65.226562 24.699219 64.464844 24.699219 63.578125 C 24.699219 62.828125 24.246094 62.164062 23.554688 61.898438 L 22.296875 61.402344 C 22.027344 61.304688 21.859375 61.050781 21.859375 60.769531 C 21.859375 60.300781 22.238281 59.921875 22.707031 59.921875 C 23.171875 59.921875 23.554688 60.300781 23.554688 60.769531 L 23.554688 60.851562 C 23.554688 61.164062 23.808594 61.417969 24.121094 61.417969 C 24.429688 61.417969 24.683594 61.164062 24.683594 60.851562 L 24.683594 60.753906 C 24.683594 59.863281 24.089844 59.101562 23.269531 58.863281 L 23.269531 58.214844 C 23.269531 57.902344 23.015625 57.648438 22.707031 57.648438 C 22.394531 57.648438 22.140625 57.902344 22.140625 58.214844 L 22.140625 58.863281 C 21.320312 59.101562 20.726562 59.863281 20.726562 60.753906 C 20.726562 61.5 21.179688 62.164062 21.871094 62.433594 L 23.128906 62.925781 C 23.398438 63.027344 23.570312 63.28125 23.570312 63.5625 C 23.570312 64.042969 23.1875 64.421875 22.71875 64.421875 Z M 22.71875 64.421875 " fill-opacity="1" fill-rule="nonzero"/><path fill="#000000" d="M 47.605469 53.699219 C 44.167969 53.699219 41.382812 56.476562 41.382812 59.90625 C 41.382812 61.542969 42.019531 63.082031 43.164062 64.253906 C 44.339844 65.453125 45.921875 66.117188 47.605469 66.117188 C 49.289062 66.117188 50.871094 65.453125 52.042969 64.253906 C 53.191406 63.082031 53.824219 61.542969 53.824219 59.90625 C 53.824219 56.476562 51.039062 53.699219 47.605469 53.699219 Z M 44.777344 64.125 L 44.777344 61.925781 C 44.777344 61.121094 45.425781 60.472656 46.234375 60.472656 L 48.976562 60.472656 C 49.78125 60.472656 50.433594 61.121094 50.433594 61.925781 L 50.433594 64.125 C 49.597656 64.675781 48.621094 64.988281 47.605469 64.988281 C 46.585938 64.988281 45.609375 64.691406 44.777344 64.125 Z M 47.039062 58.777344 L 47.039062 57.648438 C 47.039062 57.339844 47.292969 57.085938 47.605469 57.085938 C 47.914062 57.085938 48.171875 57.339844 48.171875 57.648438 L 48.171875 58.777344 C 48.171875 59.089844 47.914062 59.34375 47.605469 59.34375 C 47.292969 59.34375 47.039062 59.089844 47.039062 58.777344 Z M 51.5625 63.097656 L 51.5625 61.925781 C 51.5625 60.570312 50.515625 59.46875 49.203125 59.355469 C 49.273438 59.171875 49.300781 58.988281 49.300781 58.777344 L 49.300781 57.648438 C 49.300781 56.71875 48.539062 55.957031 47.605469 55.957031 C 46.671875 55.957031 45.90625 56.71875 45.90625 57.648438 L 45.90625 58.777344 C 45.90625 58.976562 45.949219 59.171875 46.007812 59.355469 C 44.679688 59.46875 43.644531 60.585938 43.644531 61.925781 L 43.644531 63.097656 C 42.910156 62.191406 42.515625 61.078125 42.515625 59.90625 C 42.515625 57.097656 44.789062 54.828125 47.605469 54.828125 C 50.417969 54.828125 52.695312 57.097656 52.695312 59.90625 C 52.695312 61.078125 52.296875 62.191406 51.5625 63.097656 Z M 51.5625 63.097656 " fill-opacity="1" fill-rule="nonzero"/><path fill="#000000" d="M 55.523438 59.34375 L 61.179688 59.34375 C 61.488281 59.34375 61.742188 59.089844 61.742188 58.777344 C 61.742188 58.46875 61.488281 58.214844 61.179688 58.214844 L 55.523438 58.214844 C 55.210938 58.214844 54.957031 58.46875 54.957031 58.777344 C 54.957031 59.089844 55.210938 59.34375 55.523438 59.34375 Z M 55.523438 59.34375 " fill-opacity="1" fill-rule="nonzero"/><path fill="#000000" d="M 61.742188 61.035156 C 61.742188 60.726562 61.488281 60.472656 61.179688 60.472656 L 55.523438 60.472656 C 55.210938 60.472656 54.957031 60.726562 54.957031 61.035156 C 54.957031 61.347656 55.210938 61.601562 55.523438 61.601562 L 61.179688 61.601562 C 61.488281 61.601562 61.742188 61.347656 61.742188 61.035156 Z M 61.742188 61.035156 " fill-opacity="1" fill-rule="nonzero"/><path fill="#000000" d="M 9.710938 37.328125 C 9.710938 37.640625 9.964844 37.894531 10.277344 37.894531 L 50.996094 37.894531 C 51.308594 37.894531 51.5625 37.640625 51.5625 37.328125 L 51.5625 33.941406 C 51.5625 33.632812 51.308594 33.378906 50.996094 33.378906 L 10.277344 33.378906 C 9.964844 33.378906 9.710938 33.632812 9.710938 33.941406 Z M 10.84375 34.507812 L 50.433594 34.507812 L 50.433594 36.765625 L 10.84375 36.765625 Z M 10.84375 34.507812 " fill-opacity="1" fill-rule="nonzero"/><path fill="#000000" d="M 52.695312 47.488281 L 52.695312 44.101562 C 52.695312 43.792969 52.441406 43.539062 52.128906 43.539062 L 10.277344 43.539062 C 9.964844 43.539062 9.710938 43.792969 9.710938 44.101562 L 9.710938 47.488281 C 9.710938 47.800781 9.964844 48.054688 10.277344 48.054688 L 52.128906 48.054688 C 52.441406 48.054688 52.695312 47.800781 52.695312 47.488281 Z M 51.5625 46.925781 L 10.84375 46.925781 L 10.84375 44.667969 L 51.5625 44.667969 Z M 51.5625 46.925781 " fill-opacity="1" fill-rule="nonzero"/><path fill="#000000" d="M 11.972656 15.878906 L 11.972656 9.105469 C 11.972656 8.792969 11.71875 8.539062 11.410156 8.539062 C 11.097656 8.539062 10.84375 8.792969 10.84375 9.105469 L 10.84375 15.878906 C 10.84375 16.1875 11.097656 16.441406 11.410156 16.441406 C 11.71875 16.441406 11.972656 16.1875 11.972656 15.878906 Z M 11.972656 15.878906 " fill-opacity="1" fill-rule="nonzero"/><path fill="#000000" d="M 36.859375 15.878906 L 36.859375 9.105469 C 36.859375 8.792969 36.605469 8.539062 36.292969 8.539062 C 35.980469 8.539062 35.726562 8.792969 35.726562 9.105469 L 35.726562 15.878906 C 35.726562 16.1875 35.980469 16.441406 36.292969 16.441406 C 36.605469 16.441406 36.859375 16.1875 36.859375 15.878906 Z M 36.859375 15.878906 " fill-opacity="1" fill-rule="nonzero"/><path fill="#000000" d="M 15.367188 15.878906 L 15.367188 10.96875 L 18.859375 16.1875 C 18.972656 16.34375 19.144531 16.441406 19.328125 16.441406 C 19.382812 16.441406 19.441406 16.429688 19.496094 16.414062 C 19.738281 16.34375 19.890625 16.117188 19.890625 15.878906 L 19.890625 9.105469 C 19.890625 8.792969 19.636719 8.539062 19.328125 8.539062 C 19.015625 8.539062 18.761719 8.792969 18.761719 9.105469 L 18.761719 14.015625 L 15.269531 8.792969 C 15.128906 8.582031 14.871094 8.5 14.632812 8.570312 C 14.40625 8.640625 14.238281 8.851562 14.238281 9.105469 L 14.238281 15.878906 C 14.238281 16.1875 14.492188 16.441406 14.800781 16.441406 C 15.113281 16.441406 15.367188 16.1875 15.367188 15.878906 Z M 15.367188 15.878906 " fill-opacity="1" fill-rule="nonzero"/><path fill="#000000" d="M 24.417969 16.441406 C 24.65625 16.441406 24.882812 16.289062 24.953125 16.0625 L 27.214844 9.289062 C 27.316406 8.992188 27.160156 8.667969 26.863281 8.570312 C 26.566406 8.46875 26.242188 8.625 26.140625 8.921875 L 24.417969 14.101562 L 22.691406 8.933594 C 22.59375 8.640625 22.269531 8.484375 21.96875 8.582031 C 21.671875 8.679688 21.519531 9.007812 21.617188 9.300781 L 23.878906 16.074219 C 23.964844 16.289062 24.175781 16.441406 24.417969 16.441406 Z M 24.417969 16.441406 " fill-opacity="1" fill-rule="nonzero"/><path fill="#000000" d="M 34.03125 13.902344 L 34.03125 11.082031 C 34.03125 9.683594 32.886719 8.539062 31.484375 8.539062 C 30.085938 8.539062 28.941406 9.683594 28.941406 11.082031 L 28.941406 13.902344 C 28.941406 15.300781 30.085938 16.441406 31.484375 16.441406 C 32.886719 16.441406 34.03125 15.300781 34.03125 13.902344 Z M 30.074219 13.902344 L 30.074219 11.082031 C 30.074219 10.304688 30.707031 9.667969 31.484375 9.667969 C 32.265625 9.667969 32.898438 10.304688 32.898438 11.082031 L 32.898438 13.902344 C 32.898438 14.679688 32.265625 15.3125 31.484375 15.3125 C 30.707031 15.3125 30.074219 14.679688 30.074219 13.902344 Z M 30.074219 13.902344 " fill-opacity="1" fill-rule="nonzero"/><path fill="#000000" d="M 40.816406 9.667969 L 43.082031 9.667969 C 43.390625 9.667969 43.644531 9.414062 43.644531 9.105469 C 43.644531 8.792969 43.390625 8.539062 43.082031 8.539062 L 40.816406 8.539062 C 39.574219 8.539062 38.554688 9.554688 38.554688 10.796875 L 38.554688 14.183594 C 38.554688 15.425781 39.574219 16.441406 40.816406 16.441406 L 43.082031 16.441406 C 43.390625 16.441406 43.644531 16.1875 43.644531 15.878906 C 43.644531 15.566406 43.390625 15.3125 43.082031 15.3125 L 40.816406 15.3125 C 40.195312 15.3125 39.6875 14.804688 39.6875 14.183594 L 39.6875 10.796875 C 39.6875 10.175781 40.195312 9.667969 40.816406 9.667969 Z M 40.816406 9.667969 " fill-opacity="1" fill-rule="nonzero"/><path fill="#000000" d="M 50.433594 9.667969 C 50.742188 9.667969 50.996094 9.414062 50.996094 9.105469 C 50.996094 8.792969 50.742188 8.539062 50.433594 8.539062 L 45.90625 8.539062 C 45.597656 8.539062 45.34375 8.792969 45.34375 9.105469 L 45.34375 15.878906 C 45.34375 16.1875 45.597656 16.441406 45.90625 16.441406 L 50.433594 16.441406 C 50.742188 16.441406 50.996094 16.1875 50.996094 15.878906 C 50.996094 15.566406 50.742188 15.3125 50.433594 15.3125 L 46.472656 15.3125 L 46.472656 13.054688 L 50.433594 13.054688 C 50.742188 13.054688 50.996094 12.800781 50.996094 12.492188 C 50.996094 12.179688 50.742188 11.925781 50.433594 11.925781 L 46.472656 11.925781 L 46.472656 9.667969 Z M 50.433594 9.667969 " fill-opacity="1" fill-rule="nonzero"/><path fill="#000000" d="M 11.410156 29.992188 L 21.589844 29.992188 C 21.898438 29.992188 22.15625 29.734375 22.15625 29.425781 C 22.15625 29.117188 21.898438 28.863281 21.589844 28.863281 L 11.410156 28.863281 C 11.097656 28.863281 10.84375 29.117188 10.84375 29.425781 C 10.84375 29.734375 11.097656 29.992188 11.410156 29.992188 Z M 11.410156 29.992188 " fill-opacity="1" fill-rule="nonzero"/><path fill="#000000" d="M 11.410156 32.25 L 26.113281 32.25 C 26.425781 32.25 26.679688 31.996094 26.679688 31.683594 C 26.679688 31.375 26.425781 31.121094 26.113281 31.121094 L 11.410156 31.121094 C 11.097656 31.121094 10.84375 31.375 10.84375 31.683594 C 10.84375 31.996094 11.097656 32.25 11.410156 32.25 Z M 11.410156 32.25 " fill-opacity="1" fill-rule="nonzero"/><path fill="#000000" d="M 11.410156 40.152344 L 21.589844 40.152344 C 21.898438 40.152344 22.15625 39.898438 22.15625 39.585938 C 22.15625 39.277344 21.898438 39.023438 21.589844 39.023438 L 11.410156 39.023438 C 11.097656 39.023438 10.84375 39.277344 10.84375 39.585938 C 10.84375 39.898438 11.097656 40.152344 11.410156 40.152344 Z M 11.410156 40.152344 " fill-opacity="1" fill-rule="nonzero"/><path fill="#000000" d="M 11.410156 42.410156 L 26.113281 42.410156 C 26.425781 42.410156 26.679688 42.15625 26.679688 41.84375 C 26.679688 41.535156 26.425781 41.28125 26.113281 41.28125 L 11.410156 41.28125 C 11.097656 41.28125 10.84375 41.535156 10.84375 41.84375 C 10.84375 42.15625 11.097656 42.410156 11.410156 42.410156 Z M 11.410156 42.410156 " fill-opacity="1" fill-rule="nonzero"/><path fill="#000000" d="M 11.410156 50.3125 L 21.589844 50.3125 C 21.898438 50.3125 22.15625 50.058594 22.15625 49.746094 C 22.15625 49.4375 21.898438 49.183594 21.589844 49.183594 L 11.410156 49.183594 C 11.097656 49.183594 10.84375 49.4375 10.84375 49.746094 C 10.84375 50.058594 11.097656 50.3125 11.410156 50.3125 Z M 11.410156 50.3125 " fill-opacity="1" fill-rule="nonzero"/><path fill="#000000" d="M 11.410156 52.570312 L 26.113281 52.570312 C 26.425781 52.570312 26.679688 52.316406 26.679688 52.003906 C 26.679688 51.695312 26.425781 51.441406 26.113281 51.441406 L 11.410156 51.441406 C 11.097656 51.441406 10.84375 51.695312 10.84375 52.003906 C 10.84375 52.316406 11.097656 52.570312 11.410156 52.570312 Z M 11.410156 52.570312 " fill-opacity="1" fill-rule="nonzero"/><path fill="#000000" d="M 49.867188 28.863281 L 41.949219 28.863281 C 41.636719 28.863281 41.382812 29.117188 41.382812 29.425781 C 41.382812 29.734375 41.636719 29.992188 41.949219 29.992188 L 49.867188 29.992188 C 50.179688 29.992188 50.433594 29.734375 50.433594 29.425781 C 50.433594 29.117188 50.179688 28.863281 49.867188 28.863281 Z M 49.867188 28.863281 " fill-opacity="1" fill-rule="nonzero"/><path fill="#000000" d="M 49.867188 31.121094 L 41.949219 31.121094 C 41.636719 31.121094 41.382812 31.375 41.382812 31.683594 C 41.382812 31.996094 41.636719 32.25 41.949219 32.25 L 49.867188 32.25 C 50.179688 32.25 50.433594 31.996094 50.433594 31.683594 C 50.433594 31.375 50.179688 31.121094 49.867188 31.121094 Z M 49.867188 31.121094 " fill-opacity="1" fill-rule="nonzero"/><path fill="#000000" d="M 49.867188 39.023438 L 41.949219 39.023438 C 41.636719 39.023438 41.382812 39.277344 41.382812 39.585938 C 41.382812 39.898438 41.636719 40.152344 41.949219 40.152344 L 49.867188 40.152344 C 50.179688 40.152344 50.433594 39.898438 50.433594 39.585938 C 50.433594 39.277344 50.179688 39.023438 49.867188 39.023438 Z M 49.867188 39.023438 " fill-opacity="1" fill-rule="nonzero"/><path fill="#000000" d="M 49.867188 41.28125 L 41.949219 41.28125 C 41.636719 41.28125 41.382812 41.535156 41.382812 41.84375 C 41.382812 42.15625 41.636719 42.410156 41.949219 42.410156 L 49.867188 42.410156 C 50.179688 42.410156 50.433594 42.15625 50.433594 41.84375 C 50.433594 41.535156 50.179688 41.28125 49.867188 41.28125 Z M 49.867188 41.28125 " fill-opacity="1" fill-rule="nonzero"/></svg>