<svg width="400" height="300" viewBox="0 0 400 300" fill="none" xmlns="http://www.w3.org/2000/svg">
  <!-- Background -->
  <rect width="400" height="300" rx="12" fill="#F8FAFC"/>
  <rect x="20" y="20" width="360" height="260" rx="8" fill="white" stroke="#E5E7EB"/>
  
  <!-- Header -->
  <rect x="40" y="40" width="120" height="6" rx="3" fill="#9333EA"/>
  <rect x="40" y="52" width="200" height="4" rx="2" fill="#E5E7EB"/>
  
  <!-- Progress indicators -->
  <circle cx="80" cy="100" r="20" fill="#10B981" opacity="0.1"/>
  <circle cx="80" cy="100" r="12" fill="#10B981"/>
  <text x="80" y="105" text-anchor="middle" font-size="8" fill="white" font-weight="bold">1K</text>
  
  <circle cx="160" cy="100" r="25" fill="#3B82F6" opacity="0.1"/>
  <circle cx="160" cy="100" r="15" fill="#3B82F6"/>
  <text x="160" y="105" text-anchor="middle" font-size="8" fill="white" font-weight="bold">5K</text>
  
  <circle cx="240" cy="100" r="30" fill="#EC4899" opacity="0.1"/>
  <circle cx="240" cy="100" r="18" fill="#EC4899"/>
  <text x="240" y="105" text-anchor="middle" font-size="8" fill="white" font-weight="bold">10K</text>
  
  <circle cx="320" cy="100" r="35" fill="#F59E0B" opacity="0.1"/>
  <circle cx="320" cy="100" r="22" fill="#F59E0B"/>
  <text x="320" y="105" text-anchor="middle" font-size="8" fill="white" font-weight="bold">25K</text>
  
  <!-- Connection lines -->
  <path d="M100 100L140 100" stroke="#E5E7EB" stroke-width="2" stroke-dasharray="4,4"/>
  <path d="M180 100L220 100" stroke="#E5E7EB" stroke-width="2" stroke-dasharray="4,4"/>
  <path d="M260 100L300 100" stroke="#E5E7EB" stroke-width="2" stroke-dasharray="4,4"/>
  
  <!-- Labels -->
  <text x="80" y="140" text-anchor="middle" font-size="10" fill="#6B7280">Startup</text>
  <text x="160" y="140" text-anchor="middle" font-size="10" fill="#6B7280">Growth</text>
  <text x="240" y="140" text-anchor="middle" font-size="10" fill="#6B7280">Scale</text>
  <text x="320" y="140" text-anchor="middle" font-size="10" fill="#6B7280">Enterprise</text>
  
  <!-- Features grid -->
  <rect x="40" y="170" width="80" height="40" rx="4" fill="#F3E8FF"/>
  <rect x="46" y="176" width="8" height="8" rx="2" fill="#9333EA"/>
  <text x="58" y="182" font-size="8" fill="#374151">Multi-user</text>
  <text x="58" y="192" font-size="8" fill="#6B7280">collaboration</text>
  
  <rect x="140" y="170" width="80" height="40" rx="4" fill="#EEF2FF"/>
  <rect x="146" y="176" width="8" height="8" rx="2" fill="#4F46E5"/>
  <text x="158" y="182" font-size="8" fill="#374151">Advanced</text>
  <text x="158" y="192" font-size="8" fill="#6B7280">analytics</text>
  
  <rect x="240" y="170" width="80" height="40" rx="4" fill="#F0FDF4"/>
  <rect x="246" y="176" width="8" height="8" rx="2" fill="#16A34A"/>
  <text x="258" y="182" font-size="8" fill="#374151">Global</text>
  <text x="258" y="192" font-size="8" fill="#6B7280">support</text>
  
  <!-- Bottom stats -->
  <rect x="40" y="230" width="320" height="30" rx="4" fill="#F9FAFB"/>
  <text x="60" y="248" font-size="10" fill="#374151" font-weight="bold">99.9% Uptime</text>
  <text x="160" y="248" font-size="10" fill="#374151" font-weight="bold">150+ Countries</text>
  <text x="260" y="248" font-size="10" fill="#374151" font-weight="bold">24/7 Support</text>
</svg> 